<svg xmlns="http://www.w3.org/2000/svg" xmlns:xlink="http://www.w3.org/1999/xlink" width="1920" height="1080" viewBox="0 0 1920 1080">
  <defs>
    <style>
      .cls-1 {
        fill: #a5daf1;
      }

      .cls-2 {
        fill: url(#Unbenannter_Verlauf_88);
      }

      .cls-3 {
        fill: url(#Unbenannter_Verlauf_13);
      }

      .cls-4 {
        fill: url(#Unbenannter_Verlauf_11);
      }

      .cls-5 {
        fill: #56707a;
      }

      .cls-6 {
        fill: url(#Unbenannter_Verlauf_36);
      }

      .cls-7 {
        fill: url(#Unbenannter_Verlauf_36-2);
      }

      .cls-8 {
        fill: url(#Unbenannter_Verlauf_36-3);
      }

      .cls-9 {
        fill: url(#Unbenannter_Verlauf_36-4);
      }

      .cls-10 {
        fill: url(#Unbenannter_Verlauf_40);
      }

      .cls-11 {
        fill: url(#Unbenannter_Verlauf_36-5);
      }

      .cls-12 {
        fill: url(#Unbenannter_Verlauf_36-6);
      }

      .cls-13 {
        fill: url(#Unbenannter_Verlauf_36-7);
      }

      .cls-14 {
        fill: url(#Unbenannter_Verlauf_36-8);
      }

      .cls-15 {
        fill: url(#Unbenannter_Verlauf_36-9);
      }

      .cls-16 {
        fill: url(#Unbenannter_Verlauf_36-10);
      }

      .cls-17 {
        fill: url(#Unbenannter_Verlauf_36-11);
      }

      .cls-18 {
        fill: url(#Unbenannter_Verlauf_36-12);
      }

      .cls-19 {
        fill: url(#Unbenannter_Verlauf_36-13);
      }

      .cls-20 {
        fill: #f0f9fc;
      }

      .cls-21 {
        fill: #fff;
      }

      .cls-22 {
        fill: #c1d8dd;
      }

      .cls-23 {
        fill: none;
      }
    </style>
    <linearGradient id="Unbenannter_Verlauf_88" data-name="Unbenannter Verlauf 88" x1="1084.803" y1="1494.951" x2="951.929" y2="615.23" gradientUnits="userSpaceOnUse">
      <stop offset="0" stop-color="#496873"/>
      <stop offset="0.635" stop-color="#6c7d83"/>
      <stop offset="1" stop-color="#7b868a"/>
    </linearGradient>
    <linearGradient id="Unbenannter_Verlauf_13" data-name="Unbenannter Verlauf 13" x1="962.986" y1="-54.233" x2="987.487" y2="337.777" gradientUnits="userSpaceOnUse">
      <stop offset="0" stop-color="#496873"/>
      <stop offset="0" stop-color="#919ea3"/>
    </linearGradient>
    <linearGradient id="Unbenannter_Verlauf_11" data-name="Unbenannter Verlauf 11" x1="12.814" y1="309.151" x2="1699.731" y2="284.903" gradientUnits="userSpaceOnUse">
      <stop offset="1" stop-color="#496873"/>
      <stop offset="1" stop-color="#7b868a"/>
    </linearGradient>
    <linearGradient id="Unbenannter_Verlauf_36" data-name="Unbenannter Verlauf 36" x1="1419.172" y1="-5668.24" x2="1430.64" y2="-5625.237" gradientTransform="matrix(1, 0, 0, -1, -192.638, -5282.836)" gradientUnits="userSpaceOnUse">
      <stop offset="0" stop-color="#496873"/>
      <stop offset="1" stop-color="#7b868a"/>
    </linearGradient>
    <linearGradient id="Unbenannter_Verlauf_36-2" x1="1428.296" y1="-5426.906" x2="1430.292" y2="-5419.417" xlink:href="#Unbenannter_Verlauf_36"/>
    <linearGradient id="Unbenannter_Verlauf_36-3" x1="1915.033" y1="-5742.804" x2="1926.501" y2="-5699.802" xlink:href="#Unbenannter_Verlauf_36"/>
    <linearGradient id="Unbenannter_Verlauf_36-4" x1="1930.892" y1="-5489.351" x2="1932.348" y2="-5483.889" xlink:href="#Unbenannter_Verlauf_36"/>
    <linearGradient id="Unbenannter_Verlauf_40" data-name="Unbenannter Verlauf 40" x1="-8964.347" y1="-5382.388" x2="-8976.776" y2="-5765.798" gradientTransform="translate(-8217.757 -5282.836) rotate(180)" gradientUnits="userSpaceOnUse">
      <stop offset="0" stop-color="#496873"/>
      <stop offset="0.763" stop-color="#56707a"/>
      <stop offset="1" stop-color="#798489"/>
      <stop offset="1" stop-color="#7b868a"/>
    </linearGradient>
    <linearGradient id="Unbenannter_Verlauf_36-5" x1="-8969.379" y1="-5667.838" x2="-8957.912" y2="-5624.835" gradientTransform="translate(-8217.757 -5282.836) rotate(180)" xlink:href="#Unbenannter_Verlauf_36"/>
    <linearGradient id="Unbenannter_Verlauf_36-6" x1="-8960.115" y1="-5426.559" x2="-8958.119" y2="-5419.07" gradientTransform="translate(-8217.757 -5282.836) rotate(180)" xlink:href="#Unbenannter_Verlauf_36"/>
    <linearGradient id="Unbenannter_Verlauf_36-7" x1="-8473.378" y1="-5742.457" x2="-8461.911" y2="-5699.455" gradientTransform="translate(-8217.757 -5282.836) rotate(180)" xlink:href="#Unbenannter_Verlauf_36"/>
    <linearGradient id="Unbenannter_Verlauf_36-8" x1="-8457.519" y1="-5489.004" x2="-8456.063" y2="-5483.542" gradientTransform="translate(-8217.757 -5282.836) rotate(180)" xlink:href="#Unbenannter_Verlauf_36"/>
    <linearGradient id="Unbenannter_Verlauf_36-9" x1="-242.12" y1="1083.233" x2="-242.247" y2="1081.964" gradientTransform="matrix(1.276, -0.143, 0.117, 1.046, 1603.191, -605.195)" xlink:href="#Unbenannter_Verlauf_36"/>
    <linearGradient id="Unbenannter_Verlauf_36-10" x1="-132.266" y1="1269.84" x2="-162.913" y2="962.194" gradientTransform="matrix(1.276, -0.143, 0.117, 1.046, 1603.191, -605.195)" xlink:href="#Unbenannter_Verlauf_36"/>
    <linearGradient id="Unbenannter_Verlauf_36-11" x1="-453.771" y1="1202.88" x2="-480.053" y2="939.056" gradientTransform="matrix(1.276, -0.143, 0.117, 1.046, 1603.191, -605.195)" xlink:href="#Unbenannter_Verlauf_36"/>
    <linearGradient id="Unbenannter_Verlauf_36-12" x1="-358.292" y1="1453.854" x2="-404.768" y2="987.305" gradientTransform="matrix(1.276, -0.143, 0.117, 1.046, 1603.191, -605.195)" xlink:href="#Unbenannter_Verlauf_36"/>
    <linearGradient id="Unbenannter_Verlauf_36-13" x1="-8052.392" y1="-5735.613" x2="-8127.454" y2="-6489.122" gradientTransform="translate(-7466.453 -5282.836) rotate(180)" xlink:href="#Unbenannter_Verlauf_36"/>
  </defs>
  <g id="Bild">
    <rect class="cls-1" x="-47.206" y="-0.296" width="1973.991" height="523.25"/>
    <g>
      <path class="cls-2" d="M-45.637,333.441C60.921,305.322,156.433,284.4,236.671,268.73c123.9-24.19,219.907-37.187,253.181-41.974,71.054-10.224,166.44-21.522,280.067-27.983,98.606-5.608,173.871-5.464,235.257-5.247,78.584.277,175.37.738,300.232,10.493,65.324,5.1,171.013,13.651,306.953,38.477,181.538,33.153,297.9,73.582,327.119,83.949,27.184,9.645,49.472,18.291,64.976,24.485l-87.381,764.287L-70.283,1080.239Q-57.96,706.84-45.637,333.441Z"/>
      <path class="cls-3" d="M2190.281,332.484C1926.322,218.452,1527.9,131.384,987.251,141.5l-.085.04-.105-.049C446.417,131.375,47.99,218.443-215.968,332.475l120.081,26.963C193.634,243.807,525.5,191.405,894.452,185.566l-1.827.867h.553q47.831-1.147,94.89-1.357,46.168.228,93.066,1.348h.554l-1.788-.848c368.941,5.842,700.789,58.244,990.3,173.871Z"/>
      <path class="cls-4" d="M1017.875,185.236C599.21,180.1,225.566,231.054-95.887,359.438l4.427,30.9c7.747-3.371,16.048-6.741,24.348-10.111,290.225-121.1,632.665-168.918,1006.345-173.929,412.441-2.5,790.082,42.5,1105.9,174.276,8.3,3.37,16.6,6.74,24.348,10.111l4.427-30.895C1767.3,237.332,1413.216,185.326,1017.875,185.236Z"/>
      <polygon class="cls-5" points="1189.062 121.61 1194.596 330.575 1265.427 336.193 1270.961 122.172 1189.062 121.61"/>
      <polygon class="cls-6" points="1270.961 122.172 1297.523 109.252 1294.17 194.428 1281.427 193.553 1279.782 216.426 1293.015 217.382 1265.427 336.193 1270.961 122.172"/>
      <polygon class="cls-7" points="1270.961 122.172 1189.062 121.61 1218.944 107.567 1297.523 109.252 1270.961 122.172"/>
      <polygon class="cls-5" points="1694.29 187.333 1688.757 394.051 1761.248 410.903 1766.782 196.883 1694.29 187.333"/>
      <polygon class="cls-8" points="1766.782 196.883 1793.344 183.963 1790.018 269.167 1777.368 266.18 1776.574 291.977 1789.271 295.402 1761.248 410.903 1766.782 196.883"/>
      <polygon class="cls-9" points="1766.782 196.883 1694.29 187.333 1724.173 173.29 1793.344 183.963 1766.782 196.883"/>
      <polygon class="cls-10" points="707.055 121.825 712.589 335.846 783.42 330.228 788.954 121.263 707.055 121.825"/>
      <polygon class="cls-11" points="712.729 335.791 685.479 217.082 698.341 216.142 697.848 193.234 684.125 194.036 680.633 108.851 707.195 121.77 712.729 335.791"/>
      <polygon class="cls-12" points="680.493 108.905 759.072 107.22 788.954 121.263 707.055 121.825 680.493 108.905"/>
      <polygon class="cls-5" points="211.234 196.536 216.768 410.556 289.26 393.704 283.726 186.986 211.234 196.536"/>
      <polygon class="cls-13" points="216.768 410.556 188.862 294.99 201.382 291.794 200.122 265.888 187.379 268.949 184.672 183.616 211.234 196.536 216.768 410.556"/>
      <polygon class="cls-14" points="184.672 183.616 253.844 172.943 283.726 186.986 211.234 196.536 184.672 183.616"/>
    </g>
    <g>
      <g>
        <path class="cls-15" d="M1421.006,562.7c.019-.613.022-.931.022-.931Z"/>
        <path class="cls-16" d="M1587.61,572.6a369.788,369.788,0,0,0-37.158-5.506c1.485-14.442,1.916-27.236,2.571-38.016.755-20.987,1.129-34.285,1.129-34.285s-.43,12.794-2.409,33.919c-.655,10.78-2.365,23.208-3.85,37.65-1.28-.365-3.115-.159-4.394-.525-17.521-1.6-33.1-2.394-44.942-3.1-11.79-.2-18.575.051-18.575.051s6.9.753,18.744,1.46c11.235.775,26.921,2.579,44.442,4.176,1.279.366,3.114.16,4.394.526-1.654,12.931-3.139,27.373-5.792,42.457-5.08,32.18-10.554,60.836-15.647,81.8-4.481,20.9-8.026,33.532-8.026,33.532s4.157-12.7,9.861-33.738a671.884,671.884,0,0,0,16.871-81.94c2.041-15.015,4.194-29.022,5.18-42.389,14.406,1.439,27.589,3.014,37.045,4.5,11.348,1.782,18.3,3.039,18.3,3.039S1598.345,574.449,1587.61,572.6Z"/>
        <path class="cls-17" d="M1038.442,663.589q5.929.042,11.8.058c42.825.79,81.368,2.061,113.127,3.586,9.344.479,18.688.957,26.808,1.573.568,10.642,1.242,16.684,1.242,16.684s-.062-6.111.038-16.319c5.617.388,10.623.844,15.573.8,13.07.569,23.694,1.413,33.038,1.891,18.076,1.025,28.088,1.938,28.088,1.938s-10.012-.913-28.144-2.441c-8.733-.547-20.024-1.826-32.483-2.464-5.006-.456-10.012-.912-15.63-1.3-.075-17.326-.05-44.859-1.143-76.854-1.449-51.839-4.277-93.836-4.277-93.836s-.23,42.341,1.219,94.18c1.036,31.492,2.291,59.391,3.59,76.579-8.121-.616-17.465-1.094-26.809-1.572-32.426-1.96-70.413-3.8-113.239-4.594q-6.49-.158-13.064-.3Z"/>
        <path class="cls-18" d="M1404.271,744.642a12.614,12.614,0,0,0,.718-4.669c8.788-48.912,13.075-93.748,14.429-126.019.705-15.884,1.08-29.182,1.292-38.382q.235-10.221.3-12.87c-.055,1.845-.248,6.361-.908,12.939-.212,9.2-1.254,22.063-2.571,38.016-2.577,32.408-7.533,76.81-16.321,125.722a12.616,12.616,0,0,0-.717,4.669c-21.416-3.2-36.378-4.064-36.378-4.064s14.519,2.445,35.991,6.147c-6.135,33.829-13.219,64.705-20.2,90.981-2.5-.228-7.566-1.188-15.13-2.376-10.737-1.851-26.478-4.159-45.946-6.557-20.137-2.832-43.943-5.252-70.252-7.9a26.01,26.01,0,0,0,.106-4.6,28.573,28.573,0,0,0-.718,4.669c-20.635-1.757-42.55-3.88-66.244-5.293a1.66,1.66,0,0,1,.443-1.579c2.309-23.711,3.008-45.2,3.157-60.514s.306-25.015.306-25.015-.768,9.773-1.529,25.153-2.684,37.009-4.437,60.148a1.665,1.665,0,0,1-.443,1.579c-4.339-.021-8.733-.547-13.071-.568-40.613-2.28-78.53-3.021-111.207-2.822l.25,2.242c32.721.267,70.957,1.233,111.906,3.532,4.338.021,8.732.547,13.07.568-1.866,22.133-4.013,41.747-5.5,56.189-1.985,15.518-2.808,24.788-2.808,24.788s2.047-9.407,4.032-24.925c2.1-14.511,4.855-34.2,6.777-55.823,23.083,1.481,45.553,3.032,66.189,4.788-.331,2.587-.662,5.173-.88,8.767-1.38,9.841-3.033,22.773-5.686,37.856-2.709,14.58-4.918,28.084-6.965,37.491s-3.208,15.655-3.208,15.655,1.828-5.813,5.1-15.358a385.936,385.936,0,0,0,8.8-37.7,231.723,231.723,0,0,0,3.85-37.651,62.739,62.739,0,0,0,.268-8.7c26.254,2.145,50.06,4.565,70.14,6.894,19.468,2.4,35.154,4.2,45.89,6.053,7.565,1.188,13.183,1.576,15.074,1.873-2.659,9.475-4.763,18.379-7.534,26.848-4.431,15.793-8.588,28.5-11.3,37.469s-4.045,13.711-4.045,13.711,1.941-4.807,4.657-13.78c3.383-8.538,7.539-21.241,11.971-37.034,9.031-30.076,20.553-71.138,29.01-117.464,7.565,1.188,16.41,2.742,25.311,4.8,35.435,6.719,63.972,12.685,63.972,12.685a626.879,626.879,0,0,0-63.03-15.34A264.117,264.117,0,0,0,1404.271,744.642Z"/>
      </g>
      <path class="cls-19" d="M799.6,1011.556s-3.154-24.327-5.52-54.446-3.548-55.027-3.548-55.027,3.154,24.328,5.52,54.447S799.6,1011.556,799.6,1011.556ZM392.338,841.845a321.623,321.623,0,0,0-39.03,25.485s17.741-10.426,39.819-22.589a169.881,169.881,0,0,1,15.77-8.689c8.673,51.551,18.924,96.73,26.808,129.746,3.943,17.377,7.491,31.278,10.251,40.546,2.365,9.846,3.942,15.059,3.942,15.059s-1.182-5.213-3.548-15.059-5.913-23.749-9.856-41.125c-2.365-9.268-4.337-19.115-6.7-29.541,1.182-.579,4.731-1.737,9.462-4.054,6.7-3.476,16.558-7.53,28.78-12.743,12.616-5.213,27.6-11,44.156-16.8,0,2.317.394,5.793.788,9.847.789,11,2.366,26.065,5.125,42.283,2.76,16.8,5.914,31.279,8.28,41.7,2.759,10.426,4.336,16.8,4.336,16.8s-1.182-6.951-3.154-17.377-4.336-25.486-7.1-41.7c-2.76-16.8-4.731-31.278-6.308-42.283-.394-4.055-.788-6.951-1.183-9.847,13.011-4.633,27.2-9.267,41.791-13.9,2.759,24.327,5.913,46.338,8.279,62.556,2.365,17.376,4.337,27.8,4.337,27.8s-1.183-10.426-3.549-27.8c-1.971-16.218-4.731-38.229-7.49-63.135,2.759-.58,5.519-1.738,8.279-2.317a909.855,909.855,0,0,1,98.168-23.748c7.1-1.738,13.4-2.317,18.924-3.476,2.365,23.169,4.731,44.6,6.7,62.556,2.365,19.694,4.337,35.912,5.914,46.917s2.365,17.377,2.365,17.377-.789-6.372-1.971-17.377c-1.577-11-3.548-27.223-5.52-46.917q-2.957-26.934-5.913-62.556,5.322-.868,9.462-1.737c7.1-1.159,11.038-1.738,11.038-1.738s-3.942.579-11.038,1.159c-2.76.579-5.914.579-9.462,1.158-2.366-28.382-4.731-59.66-6.7-92.675-1.577-27.224-2.759-53.289-3.548-77.616,13.8-2.9,28.386-5.792,42.973-8.109,31.54-5.213,61.5-9.268,89.1-12.164,15.376-1.738,29.963-2.9,43.368-4.054-.789,29.54-.789,64.872,0,102.522,1.182,53.868,4.731,102.522,7.885,137.276,1.576,17.376,3.154,31.278,4.336,41.124.789,9.847,1.577,15.06,1.577,15.06s-.788-5.213-1.577-15.06-2.365-24.327-3.548-41.7c-2.76-34.753-5.519-83.408-7.1-137.275-1.183-37.65-1.183-72.4-.789-102.523,9.856-.579,19.318-1.158,27.992-1.737,10.25-.58,19.712-.58,27.991-1.159a58.615,58.615,0,0,1,9.857-.579v9.267c-.395,45.18.788,86.305,1.577,116.424,1.182,29.54,1.971,48.075,1.971,48.075s0-17.955-.789-48.075c-.394-29.54-.788-70.665-.394-116.424v-9.267h0c.394-41.7,1.183-78.774,1.971-106.577.789-29.54,1.577-48.075,1.577-48.075s-1.182,18.535-2.365,48.075c-1.183,27.223-2.366,64.873-2.76,106.577h-9.856c-8.279,0-17.741,0-27.992.579-8.673,0-18.135.579-27.991,1.159.394-11.585.394-23.169.788-33.016.394-17.377.789-31.857,1.183-41.7s.788-15.06.788-15.06-.394,5.213-.788,15.06-1.183,24.327-1.971,41.7c-.395,10.426-.789,21.431-1.183,33.6q-20.7,1.737-43.762,3.475c-27.2,2.9-57.56,6.372-89.1,11.585-14.587,2.316-28.78,5.213-42.579,8.109-1.182-28.961-1.577-55.026-1.577-76.458V541.807s0,6.372-.394,17.377-.788,27.223-.788,47.5c0,21.432,0,47.5.788,76.458-15.376,2.9-29.963,6.371-44.156,9.846-27.2,6.372-51.252,13.323-71.753,19.694-5.914,1.738-11.827,3.475-16.952,5.213-.395-19.694-1.577-51.551-3.154-87.463-2.76-59.08-5.914-107.156-5.914-107.156s1.183,48.076,3.942,107.156c1.577,36.491,3.549,67.769,4.731,87.463-3.548,1.158-6.7,2.317-9.856,3.475-7.885,2.317-14.981,5.213-20.5,6.951-11.433,4.055-17.741,6.372-17.741,6.372s6.308-2.317,17.741-5.793c5.914-1.737,12.616-4.054,20.9-6.371a79.168,79.168,0,0,0,9.857-2.9c.788,11.584,1.182,18.535,1.182,18.535s0-6.951-.394-19.114c5.125-1.738,11.039-3.476,16.953-5.213,20.106-5.793,44.55-12.164,71.753-18.535,14.193-2.9,28.78-6.372,44.156-9.268.788,24.327,1.577,50.392,3.154,77.616,1.971,33.594,4.336,64.873,7.1,92.675-5.519,1.159-11.827,1.738-18.924,2.9-25.626,3.475-60.32,10.426-98.562,22.011-2.76.579-5.519,1.737-8.279,2.316a2.821,2.821,0,0,1-.394-1.737c-2.76-26.065-5.52-50.393-7.1-67.769s-2.76-28.382-2.76-28.382.789,11,1.972,28.382,3.154,41.7,6.308,68.348a2.822,2.822,0,0,1,.394,1.738c-14.982,4.633-28.78,9.846-41.79,14.48-.4-3.475-.789-5.213-.789-5.213a52.109,52.109,0,0,0,.394,5.213c-16.558,6.372-31.54,12.164-44.156,17.956-12.221,5.213-22.077,9.847-28.78,13.322-4.731,2.317-7.885,4.055-9.462,4.634-6.308-28.961-13.01-63.135-19.318-100.785,13.4-6.951,22.472-11.584,22.472-11.584a186.25,186.25,0,0,0-22.866,9.267,23.864,23.864,0,0,0-.788-5.213c-9.068-54.446-15.376-104.26-19.319-140.751-1.971-17.955-3.548-32.436-4.336-42.862-1.183-9.847-1.577-15.639-1.577-15.639l1.182,15.639c.789,10.426,1.972,25.486,3.549,43.442,3.154,36.491,9.067,86.883,18.135,141.33a23.806,23.806,0,0,0,.789,5.213A125.332,125.332,0,0,0,392.338,841.845ZM279.978,661.127c5.913-2.9,14.193-6.371,23.26-9.847,1.577,15.06,3.943,30.7,6.308,47.5,5.126,35.911,11.434,67.769,16.559,90.937s8.673,37.071,8.673,37.071-3.154-13.9-7.49-37.071c-4.732-23.168-10.251-55.026-15.77-90.937-2.76-16.8-4.731-33.016-6.7-47.5.789-.579,1.972-.579,2.76-1.158,11.039-4.055,20.9-8.109,27.992-10.426,7.49-2.317,11.827-4.055,11.827-4.055s-4.337.579-11.827,2.317c-7.491,2.317-17.347,5.213-28.386,9.268-.789.579-1.971.579-2.76,1.158-1.971-16.218-3.942-30.119-5.125-42.283-2.76-23.748-3.943-38.229-3.943-38.229s1.183,15.06,3.154,38.808c1.183,12.164,2.366,26.645,4.337,42.863a162.66,162.66,0,0,0-23.261,11c-6.7,3.475-11.038,6.371-11.038,6.371S272.881,664.6,279.978,661.127Z"/>
    </g>
    <g>
      <g>
        <path class="cls-20" d="M1362.921,102.613c1.89,4.263,9.452,2.842,12.476,2.842,3.78,0,7.561.473,11.342-.474,5.292-.947,9.073-2.842,14.366.474a25.878,25.878,0,0,0,13.232,3.789c7.939,5.684,18.524,7.579,25.707,8.526s15.5,1.421,22.684-.947c5.293-1.895,9.451-4.263,12.854-8.526,8.695,6.157,19.659,8.052,29.11,9,7.561.474,15.5.474,22.684-2.368a51.136,51.136,0,0,0,8.317-4.737,47.8,47.8,0,0,0,17.39,4.737,56.387,56.387,0,0,0,23.44-1.895c5.293-1.421,9.451-2.842,12.476-8.052,1.89,3.789,7.183,5.21,10.585,4.737,2.647,0,4.915-2.369,6.8-4.737,2.647-4.263,2.269,0,4.915,2.368,5.671,5.684,12.476,9.947,19.659,9.947,5.671,0,14.366-.947,18.147-7.105,1.89-2.842,2.268-3.315,4.536-.947a34,34,0,0,0,3.781,3.316,26.131,26.131,0,0,0,9.451,4.736c6.805,2.369,14.366,1.895,21.172.474,4.914-.947,11.341-2.842,16.256-6.631,2.646,1.421,5.293,1.894,7.561,2.842,6.427,1.894,12.476,3.789,19.281,3.315,4.915-.473,18.525-5.21,16.634-13.736,1.891,1.421,4.915.947,6.805.474a13.288,13.288,0,0,0,10.586-10.9c1.89-11.842-5.293-28.42-15.5-29.841,2.268-5.211.378-11.368-2.647-15.632a10.026,10.026,0,0,0-5.293-4.263,13.531,13.531,0,0,1-1.89-.473,4.539,4.539,0,0,0-2.646-1.421c-6.049-3.316-13.232-3.79-19.281,0-2.269,1.421-3.781,3.789-4.915,7.1-.378.947-7.183-2.842-7.939-3.316-3.025-.947-5.293-.474-8.317,1.421-1.135.474-4.159,3.316-4.537,4.737.378-1.9-4.537-4.263-5.293-4.737a73.54,73.54,0,0,0-10.585-3.789c-7.94-1.9-15.879-2.842-23.818-1.9a66.07,66.07,0,0,0-20.793,4.737c-9.451-3.79-21.549-1.895-29.11,5.684a7.553,7.553,0,0,0-2.269,2.842c-1.512,2.842-4.158.474-5.671,0-3.024-.947-5.671-.474-8.7-.474s-8.695,5.211-10.585,3.79c-10.208-7.579-22.306-8.527-33.647-5.211a47.651,47.651,0,0,0-16.257,9,17.544,17.544,0,0,0-6.8-1.421c-6.049-.474-14.744,0-19.281,5.684a29.564,29.564,0,0,0-3.024,4.263c-.378.947-.756,4.737-1.512,3.316a10.02,10.02,0,0,0-5.293-4.263c-4.915-1.895-10.964-2.842-16.256-.474-1.891.947-4.537,2.368-5.671,4.737-1.513,2.842-.378,4.737-3.025,2.368-4.536-4.263-13.61-4.737-19.281-4.737-6.805,0-13.988.474-20.037,4.737a38.319,38.319,0,0,0-9.073,7.579,34.531,34.531,0,0,0-20.415,3.789,9.9,9.9,0,0,0-4.537,6.158c-.756,3.316-2.646.947-5.292.947-6.427-.947-13.989-1.421-20.037.948C1364.055,95.507,1361.031,97.876,1362.921,102.613Z"/>
        <path class="cls-21" d="M1746.648,47.193a26.829,26.829,0,0,0-6.8-4.263c-4.914-1.9-10.207-2.842-15.122-.948a10.767,10.767,0,0,0-7.183,7.105,16.871,16.871,0,0,0-.756,4.264c-4.159-4.737-9.829-7.106-15.5-6.158-3.4.473-6.427,3.316-7.183,7.579a7.379,7.379,0,0,0-.378,2.842,38.438,38.438,0,0,0-4.159-4.737,26.606,26.606,0,0,0-16.256-9,65.983,65.983,0,0,0-19.281-.947c-6.049.473-12.1,1.894-17.013,6.631-.378.474-.378.948,0,.948,3.024.947,5.293,4.736,6.805,8.526a27.8,27.8,0,0,0-27.6-7.1c-7.561,2.368-13.988,8.052-14.744,18a17.842,17.842,0,0,1-.378-9.947v-.474c-6.049-5.21-13.61-4.263-20.037-.947a11.141,11.141,0,0,0-3.781,2.368c-1.89-1.421-3.78-2.842-6.049-4.263a23.962,23.962,0,0,0-9.451-3.789,37.918,37.918,0,0,0-19.281.474c-6.427,1.894-12.854,5.684-15.5,12.789a15.953,15.953,0,0,0-5.671-2.842c-4.537-.948-9.83-.948-14.366,1.421a16.116,16.116,0,0,0-7.94,9.473,16.855,16.855,0,0,0-.756,4.263c-5.292-6.631-12.854-10.421-20.415-8.526-4.536,1.421-7.183,4.737-7.939,10.421,0,.947-.378,1.9-.378,3.316a39.874,39.874,0,0,1-4.159-2.842,52,52,0,0,0-16.256-5.684,37.517,37.517,0,0,0-17.769,1.421,25.016,25.016,0,0,0-7.561,4.263l-2.268,2.842c-.378.473-.756,1.421-1.134,1.894h0a19.232,19.232,0,0,0-13.61.948c-4.159,1.421-10.586,5.684-10.964,11.841a37.362,37.362,0,0,0-19.659-5.21c-3.4,0-7.939.474-11.342,2.842a14.763,14.763,0,0,1,3.4-2.368c6.427-2.369,13.61-1.895,20.037-.948,2.268.474,4.158,2.369,5.292-.947.757-2.368,2.647-5.21,4.537-6.158a34.013,34.013,0,0,1,20.415-3.789c2.269-3.316,6.427-6.158,9.074-7.579,6.048-3.789,13.232-4.737,20.036-4.737,5.671,0,14.367.474,19.281,4.737,2.647,2.369,1.513.474,3.025-2.368,1.134-2.369,3.78-3.79,5.671-4.737,4.914-2.368,10.963-1.421,16.256.474a15.95,15.95,0,0,1,5.293,4.263c1.134,1.421,1.512-2.369,1.512-3.316a8.017,8.017,0,0,1,3.024-4.263c4.537-5.684,13.232-6.158,19.281-5.684a17.54,17.54,0,0,1,6.8,1.421c5.293-4.263,10.208-7.579,16.257-9,11.341-3.316,23.439-2.368,33.647,5.211,2.268,1.421,7.561-3.316,10.585-3.79,3.025,0,5.671-.473,8.695.474,1.891.474,4.159,2.842,5.671,0a7.553,7.553,0,0,1,2.269-2.842c7.183-7.579,19.659-9.474,29.11-5.684a63.8,63.8,0,0,1,20.793-4.737c7.939-.947,15.879,0,23.818,1.9,3.4.947,7.183,1.894,10.585,3.789,1.134.474,5.671,2.842,5.293,4.737,0-1.421,3.4-4.263,4.537-4.737,2.646-1.421,5.293-2.368,8.317-1.421.756.474,7.561,4.263,7.939,3.316a12.5,12.5,0,0,1,4.915-7.1c6.049-3.316,13.232-2.842,19.281,0,.378.473,1.89.947,2.646,1.421a2.842,2.842,0,0,1,1.891.473,10.028,10.028,0,0,1,5.292,4.263,6.613,6.613,0,0,1,1.134,1.9h0C1747.783,48.14,1747.026,47.666,1746.648,47.193Z"/>
        <path class="cls-22" d="M1364.811,103.56c4.915,1.895,10.586,1.895,15.879,1.421s13.61-.947,17.39-6.632c1.135,3.316,4.537,5.211,7.562,6.158a12.438,12.438,0,0,0,7.183.474c1.134-.474,2.268-.947,3.78-1.421,8.695,10.894,23.44,12.789,34.781,11.368,5.671-.947,11.72-2.368,17.013-5.21,3.024-1.9,5.671-3.79,7.561-7.105,3.024,3.789,7.561,5.684,11.342,7.578,7.183,2.842,14.366,5.211,21.927,5.211,7.183,0,15.5-.474,21.927-5.211,1.512-.947,4.915-3.315,4.159-6.157-.378-1.421-1.134-2.369-1.512-3.79,4.536,4.263,9.451,7.579,15.122,9a53.528,53.528,0,0,0,19.281,1.895c6.049-.474,15.5-2.369,18.9-9.947,5.292,7.578,17.012,6.157,20.415-3.316,1.89,3.316,5.292,5.684,7.939,8.052a29.788,29.788,0,0,0,17.391,5.684c5.67,0,11.719-1.421,16.256-6.157a17.285,17.285,0,0,0,5.671-7.579,31.373,31.373,0,0,0,26.086,16.1,35.986,35.986,0,0,0,17.012-3.79c1.89-1.421,4.915-2.842,5.671-5.684.378-1.421-.756-2.842-1.134-3.789a1.811,1.811,0,0,0-.378-.948l1.134,1.422c1.512,1.421,3.4,3.789,5.293,3.789.378,0,.378-.474.378-.947a23.564,23.564,0,0,1-3.4-9.948,34.028,34.028,0,0,0,18.147,17.526,19.722,19.722,0,0,0,11.72.948c3.4-.948,7.183-2.369,9.073-6.158,0-.474,0-.947-.378-.947-2.268.473-4.159-.474-5.671-2.369,4.537-.473,9.073-1.894,12.1-6.158a45.2,45.2,0,0,0,3.4-5.684,12.619,12.619,0,0,1-4.915,9c-.378,0-.378.474,0,.948,4.915,2.842,12.476,0,15.5-5.685l1.134-2.842v.948a13.287,13.287,0,0,1-10.585,10.894c-2.269.474-4.915.948-6.8-.473,1.89,9-11.72,13.262-16.635,13.736-6.427.947-12.854-1.421-19.281-3.316a28.868,28.868,0,0,1-7.561-2.842c-4.914,3.79-11.341,5.684-16.256,6.632a45.711,45.711,0,0,1-21.171-.474c-3.4-.947-6.427-2.842-9.452-4.737a14.026,14.026,0,0,1-3.78-3.315c-2.647-2.842-3.025-1.9-4.537.947-3.781,6.631-12.1,7.1-18.147,7.1-7.183,0-14.366-4.263-19.659-9.947-2.268-2.368-1.89-6.632-4.914-2.368-1.891,2.368-4.159,4.736-6.805,4.736-3.4,0-8.318-.947-10.586-4.736-3.024,5.21-7.183,6.631-12.476,8.052-7.561,2.368-15.878,2.368-23.439,1.895a47.8,47.8,0,0,1-17.391-4.737c-2.646,1.895-5.293,3.789-8.317,4.737-7.183,2.842-15.122,2.842-22.684,2.368-9.451-.474-20.415-2.842-29.11-9a28.744,28.744,0,0,1-12.854,8.526c-7.183,2.369-15.5,1.895-22.683.948s-18.147-2.842-25.708-8.526a25.872,25.872,0,0,1-13.232-3.79c-5.293-3.315-9.073-1.421-14.366-.473-3.781.947-7.561.473-11.342.473-3.024,0-10.585,1.421-12.476-2.842h0C1363.677,103.086,1364.055,103.56,1364.811,103.56Z"/>
      </g>
      <g>
        <g>
          <path class="cls-20" d="M1309.993,56.666c-3.4-4.736-9.073-5.21-13.988-4.263-1.89-3.316-6.049-4.737-9.073-5.684-6.427-2.368-14.744-4.737-21.55-2.842L1265,43.4a12.87,12.87,0,0,0-4.158-2.368,9.418,9.418,0,0,0-3.781.474,5.615,5.615,0,0,0-.378-4.263c-1.512-3.316-4.537-4.263-7.561-4.263a6.733,6.733,0,0,0-4.159.947c-4.536-5.684-17.39-1.421-20.793,7.579-2.268-.474-4.915.473-7.183,1.421a21.313,21.313,0,0,0-4.915,3.789c-6.048-3.316-14.366-3.316-17.39,3.316h-.378c-3.781-3.316-10.208-2.369-13.988-1.421-4.159,1.421-9.074,3.789-11.342,8.526-1.89-.947-5.293-1.421-6.049-1.9a16.143,16.143,0,0,0-9.451,1.421c-3.025,1.421-7.183,4.737-7.562,9-.378,5.21,6.427,5.21,9.074,5.21,4.536.474,9.829-1.421,13.988-3.789a13.578,13.578,0,0,0,7.939,2.842,17.567,17.567,0,0,0,9.83-2.842s0,.474.378.474c.756,1.894,2.268,1.421,3.4,1.894a5.263,5.263,0,0,0,2.647-.473,9.427,9.427,0,0,0,7.183,3.789,19.431,19.431,0,0,0,12.475-3.316c2.647,4.263,8.7,5.684,12.854,6.158,4.915.474,12.1-.947,16.635-5.21,4.537,2.842,10.963,2.368,15.122,1.894a40.112,40.112,0,0,0,14.366-4.736c.378-.474,1.134-.474,1.512-.948a51.582,51.582,0,0,0,14.745.948,79.83,79.83,0,0,0,10.585-.948c2.268-.473,6.049,0,8.317-1.421S1312.261,59.982,1309.993,56.666Z"/>
          <path class="cls-21" d="M1156.88,57.614a16.451,16.451,0,0,1,12.476,2.368c3.781-6.631,9.83-10.421,16.635-10.895,2.268,0,6.427,0,9.073,2.369,3.78-6.632,11.342-7.105,16.634-3.316a14.106,14.106,0,0,1,9.452-5.21c.756,0,1.89-.474,3.024,0,.378-1.9,2.269-3.79,3.4-5.211a17.579,17.579,0,0,1,9.073-4.736c2.646-.474,5.671,0,7.183,2.368,3.4-1.895,8.317-1.421,10.586,1.9a7.4,7.4,0,0,1,1.134,5.684,6.776,6.776,0,0,1,6.049,0,6.2,6.2,0,0,1,3.024,2.842c6.427-2.369,14.366-.948,20.793,1.421,2.269.947,6.049,1.894,7.183,4.737a7.95,7.95,0,0,1,.756,2.842c3.4-1.895,7.94-1.421,10.964-.474,1.512.474,3.781,1.421,4.915,2.842,0,0,0-.474-.378-.474-3.4-4.736-9.074-5.21-13.989-4.263-1.89-3.316-6.048-4.737-9.073-5.684-6.427-2.368-14.744-4.737-21.549-2.842l-.378-.474a12.875,12.875,0,0,0-4.159-2.368,9.412,9.412,0,0,0-3.78.474,5.611,5.611,0,0,0-.379-4.263c-1.512-3.316-4.536-4.263-7.561-4.263a6.73,6.73,0,0,0-4.158.947c-4.537-5.684-17.391-1.421-20.793,7.579-2.269-.474-4.915.473-7.183,1.421a21.271,21.271,0,0,0-4.915,3.789c-6.049-3.316-14.366-3.316-17.391,3.316h-.378c-3.78-3.316-10.207-2.369-13.988-1.421-4.159,1.421-9.073,3.789-11.342,8.526-1.89-.947-5.292-1.421-6.049-1.9a16.143,16.143,0,0,0-9.451,1.421c-2.646.948-6.427,4.263-7.561,7.579A27.671,27.671,0,0,1,1156.88,57.614Z"/>
          <path class="cls-22" d="M1309.237,61.4c-3.4,3.316-7.561,3.316-11.342,3.789a53.522,53.522,0,0,1-17.39,0c-2.269-.473-4.537-.947-6.427-2.368a8.181,8.181,0,0,1-1.891-1.421,10.926,10.926,0,0,1-2.268,2.368,20.1,20.1,0,0,1-11.72,5.684c-5.671.948-13.232.948-17.39-4.736q-.567.709-1.134,1.421a15.682,15.682,0,0,1-4.159,3.315,28.829,28.829,0,0,1-10.964,2.369c-4.158,0-9.073-1.421-11.341-5.684-3.025,3.789-7.562,5.684-11.72,4.736-2.647-.473-5.671-1.421-7.183-3.789a3.918,3.918,0,0,1-3.781.947c-1.89,0-3.024-1.421-3.78-3.315a10.009,10.009,0,0,1-2.647,1.894c-1.89.948-3.78,1.895-6.049,1.421a12.094,12.094,0,0,1-8.695-3.315,21.734,21.734,0,0,1-3.4,1.894,23.91,23.91,0,0,1-12.854,1.895c-1.891,0-6.049-.474-6.427-4.263v-1.9c-.378.948-.378,1.421-.757,2.369-.378,5.21,6.427,5.21,9.074,5.21,4.536.474,9.829-1.421,13.988-3.789a13.585,13.585,0,0,0,7.939,2.842,17.575,17.575,0,0,0,9.83-2.842s0,.473.378.473c.756,1.895,2.268,1.421,3.4,1.895a5.253,5.253,0,0,0,2.647-.474,9.426,9.426,0,0,0,7.183,3.79,19.443,19.443,0,0,0,12.475-3.316c2.647,4.263,8.7,5.684,12.854,6.158,4.915.473,12.1-.948,16.635-5.211,4.537,2.842,10.963,2.369,15.122,1.895a40.114,40.114,0,0,0,14.366-4.737c.378-.473,1.134-.473,1.512-.947a51.581,51.581,0,0,0,14.745.947,79.828,79.828,0,0,0,10.585-.947c2.268-.474,6.049,0,8.317-1.421,1.513-1.421,3.781-3.789,3.781-6.631C1310.371,59.982,1309.993,60.929,1309.237,61.4Z"/>
        </g>
        <g>
          <path class="cls-20" d="M1226.065,38.667c-2.647-3.79-7.183-4.263-10.964-3.316-1.512-2.368-4.537-3.789-7.183-4.737-5.293-1.894-11.72-3.789-17.013-1.894l-.378-.474a5.385,5.385,0,0,0-3.024-1.895,6,6,0,0,0-3.025.474c0-.947.379-1.895-.378-3.316a6.364,6.364,0,0,0-5.67-3.316,8.466,8.466,0,0,0-3.4.474c-3.78-4.737-13.61-1.421-16.256,6.158-1.891-.474-3.781.474-5.671.947a32.918,32.918,0,0,0-3.781,2.842c-4.536-2.368-11.341-2.368-13.988,2.842h-.378c-3.024-2.368-7.939-1.894-10.964-.947s-7.183,3.316-9.073,6.631A12.344,12.344,0,0,0,1110,37.719a13.989,13.989,0,0,0-7.561.948c-2.268.947-5.671,3.789-6.049,7.1-.378,3.789,5.293,4.263,7.183,4.263a19.681,19.681,0,0,0,10.964-3.316,11.946,11.946,0,0,0,6.427,2.368c3.024,0,5.671-.473,7.939-2.368v.474c.378,1.421,1.891,1.421,2.647,1.421a3.94,3.94,0,0,0,2.268-.474c1.134,1.895,3.781,2.842,5.671,2.842,3.4,0,6.805-.474,9.829-2.842,2.269,3.316,6.805,4.263,10.208,4.737,3.781.474,9.451-.474,13.232-4.263,3.4,1.894,8.695,1.894,12.1,1.421a32.751,32.751,0,0,0,11.341-3.79c.379-.473.757-.473,1.135-.947a48.99,48.99,0,0,0,11.719.947,49.692,49.692,0,0,0,8.318-.947c1.89,0,4.536,0,6.427-1.421C1225.687,44.351,1227.955,41.035,1226.065,38.667Z"/>
          <path class="cls-21" d="M1105.086,39.614a14.382,14.382,0,0,1,9.83,1.9c3.024-5.211,7.939-8.526,13.232-8.526,1.89,0,5.293,0,7.183,1.894,3.024-5.21,9.073-5.684,13.232-2.368a11.794,11.794,0,0,1,7.561-4.263h2.268c.379-1.421,1.891-2.842,2.647-4.263a13.962,13.962,0,0,1,7.183-3.79,5.471,5.471,0,0,1,5.671,1.895,6.22,6.22,0,0,1,8.317,1.421,6.633,6.633,0,0,1,.756,4.737c1.512-.474,3.025-.947,4.915,0a4,4,0,0,1,2.268,2.368c5.293-1.894,11.342-.473,16.635,1.421,1.89.474,4.914,1.421,5.671,3.79.378.473.378,1.421.756,1.894a11.2,11.2,0,0,1,8.695-.473c1.134.473,3.024.947,4.159,2.368,0,0,0-.474-.378-.474-2.647-3.789-7.183-4.263-10.964-3.315-1.512-2.369-4.537-3.79-7.183-4.737-5.293-1.895-11.72-3.789-17.013-1.895l-.378-.473a5.379,5.379,0,0,0-3.024-1.895,6,6,0,0,0-3.024.474c0-.948.378-1.895-.379-3.316a6.362,6.362,0,0,0-5.67-3.316,8.466,8.466,0,0,0-3.4.474c-3.78-4.737-13.61-1.421-16.256,6.158-1.891-.474-3.781.473-5.671.947a32.8,32.8,0,0,0-3.781,2.842c-4.536-2.368-11.341-2.368-13.988,2.842h-.378c-3.024-2.368-7.939-1.9-10.964-.947s-7.183,3.315-9.073,6.631a12.344,12.344,0,0,0-4.915-1.421,13.989,13.989,0,0,0-7.561.947c-1.89.948-4.914,3.316-5.671,6.158A12.534,12.534,0,0,1,1105.086,39.614Z"/>
          <path class="cls-22" d="M1225.687,42.456c-2.647,2.368-6.049,2.842-9.074,3.316a65.446,65.446,0,0,1-13.61,0c-1.89-.474-3.4-.474-4.915-1.895a5.538,5.538,0,0,1-1.512-1.421,4.08,4.08,0,0,1-1.89,1.895,17.972,17.972,0,0,1-9.451,4.263c-4.537.473-10.586.947-13.611-3.79-.378.474-.378.948-.756,1.421l-3.4,2.842a18.237,18.237,0,0,1-8.695,1.895c-3.4,0-7.183-1.421-9.074-4.737a10.532,10.532,0,0,1-9.451,3.79c-1.89-.474-4.537-.948-5.671-3.316a7.476,7.476,0,0,1-3.024.947,3.046,3.046,0,0,1-3.025-2.368,5.381,5.381,0,0,1-1.89,1.421,8.787,8.787,0,0,1-4.915,1.421,9.4,9.4,0,0,1-6.805-2.368c-1.134.473-1.89,1.421-2.646,1.421a19.22,19.22,0,0,1-10.208,1.421c-1.512,0-4.914-.474-4.914-3.316V43.877a3.417,3.417,0,0,0-.379,1.895c-.378,3.789,5.293,4.263,7.183,4.263a19.681,19.681,0,0,0,10.964-3.316,11.946,11.946,0,0,0,6.427,2.368c3.025,0,5.671-.473,7.939-2.368v.474c.378,1.421,1.891,1.421,2.647,1.421a3.94,3.94,0,0,0,2.268-.474c1.134,1.895,3.781,2.842,5.671,2.842,3.4,0,6.805-.473,9.829-2.842,2.269,3.316,6.805,4.263,10.208,4.737,3.781.474,9.451-.474,13.232-4.263,3.4,1.9,8.7,1.9,12.1,1.421a32.763,32.763,0,0,0,11.342-3.79c.378-.473.756-.473,1.134-.947a48.99,48.99,0,0,0,11.719.947,49.692,49.692,0,0,0,8.318-.947c1.89,0,4.536,0,6.427-1.421,1.134-.947,3.024-2.842,3.024-5.21A13.966,13.966,0,0,1,1225.687,42.456Z"/>
        </g>
      </g>
      <g>
        <path class="cls-20" d="M516.453,108.77c-5.671-1.894-12.1-1.894-17.769-.947-2.268.474-3.781,1.9-4.537-.474a8.671,8.671,0,0,0-4.158-5.21,30.088,30.088,0,0,0-18.147-3.316c-2.268-2.842-5.671-5.684-7.939-6.631-5.293-3.316-11.72-4.263-17.769-4.263-4.915,0-12.854.473-17.013,4.263-2.268,2.368-1.512.473-2.646-1.895a11.867,11.867,0,0,0-4.915-4.263c-4.536-1.9-9.829-1.421-14.366.474-1.512.473-3.4,2.368-4.536,3.789-.757,1.421-1.135-1.895-1.513-2.842a8.155,8.155,0,0,0-2.646-3.789c-4.159-5.211-11.72-5.211-17.013-5.211a30.494,30.494,0,0,0-6.049.948c-4.536-3.79-9.073-6.632-14.366-8.053-10.207-2.842-20.793-2.368-29.866,4.737-1.89,1.421-6.805-2.842-9.452-3.316-2.646,0-4.914-.474-7.561.474-1.512.473-3.78,2.368-5.292,0a10.375,10.375,0,0,0-1.891-2.369c-6.427-6.631-17.39-8.526-25.708-5.21A62.747,62.747,0,0,0,262.777,61.4a64.273,64.273,0,0,0-21.172,1.9,54.194,54.194,0,0,0-9.073,3.315c-.756.474-4.915,2.842-4.915,4.263,0-1.421-3.024-3.789-3.78-4.263a7.749,7.749,0,0,0-7.183-.947c-.756.474-6.805,3.789-7.183,2.842a12.8,12.8,0,0,0-4.159-6.158c-5.293-3.315-11.72-2.842-17.013,0a11.79,11.79,0,0,1-2.268,1.421,3.4,3.4,0,0,0-1.89.474,8.941,8.941,0,0,0-4.537,3.789c-2.646,3.79-4.158,9-2.268,13.737-9.074,1.421-15.5,16.105-13.61,26.526,1.134,5.684,5.293,9,9.451,9.473a8.921,8.921,0,0,0,6.049-.474c-1.89,7.579,10.586,11.842,14.744,12.316,5.671.474,11.342-1.421,17.013-2.842a53.428,53.428,0,0,0,6.805-2.369c4.159,3.316,10.207,5.211,14.366,6.158a35.059,35.059,0,0,0,18.525-.473,36.888,36.888,0,0,0,8.7-4.264l3.4-2.842c2.268-2.368,2.646-1.894,4.158.948,3.4,5.684,10.964,6.631,15.879,6.631,6.427,0,12.475-3.789,17.39-9,1.89-1.894,1.89-5.684,4.159-1.894,1.512,2.368,3.4,4.263,6.049,4.263,3.024,0,7.561-.948,9.073-4.263,2.646,4.736,6.427,5.684,10.964,7.1,6.805,2.368,13.988,2.368,20.793,1.421a47.487,47.487,0,0,0,15.5-4.263,25.037,25.037,0,0,0,7.561,4.263c6.427,2.842,13.232,2.842,20.037,2.368,8.318-.473,18.147-2.368,25.708-8.052a24.344,24.344,0,0,0,11.342,7.579c6.427,1.894,13.61,1.421,20.037.947,6.427-.947,15.878-2.842,22.683-7.579a24.746,24.746,0,0,0,11.72-3.316c4.915-2.842,7.939-1.421,12.854-.473a73.745,73.745,0,0,0,10.207.473c2.647,0,9.452,1.421,10.964-2.368C522.5,112.56,519.477,110.191,516.453,108.77Z"/>
        <path class="cls-21" d="M180.738,67.561a28.373,28.373,0,0,1,6.049-3.79,19.238,19.238,0,0,1,13.61-.947,9.8,9.8,0,0,1,6.427,6.631,14.605,14.605,0,0,1,.378,3.79c3.781-4.263,8.7-6.158,13.61-5.211a7.934,7.934,0,0,1,6.427,6.632,5.2,5.2,0,0,1,.378,2.368,17.176,17.176,0,0,1,3.781-4.263,26.558,26.558,0,0,1,14.744-8.052,68.478,68.478,0,0,1,17.013-.948c5.292.474,10.585,1.895,15.122,6.158.378,0,.378.474,0,.947-2.646.948-4.915,4.263-6.049,7.579,6.805-6.631,16.256-9,24.574-6.158A17.893,17.893,0,0,1,310.034,88.4a13.323,13.323,0,0,0,.378-8.526V79.4c5.293-4.737,12.1-3.79,17.768-.948a14.748,14.748,0,0,1,3.4,2.369c1.89-1.421,3.4-2.369,5.293-3.79a30.518,30.518,0,0,1,8.317-3.316,29.653,29.653,0,0,1,17.012.474c5.671,1.9,11.342,5.211,13.61,11.368a23.368,23.368,0,0,1,4.915-2.368,20.072,20.072,0,0,1,12.854.947,13,13,0,0,1,6.805,8.053c.378,1.421.378,2.368.756,3.789,4.915-5.684,11.342-9.473,18.147-7.579,3.781.948,6.427,4.263,7.183,9v2.842a16.54,16.54,0,0,1,3.781-2.368,40.114,40.114,0,0,1,14.366-4.737c5.293-.474,10.963-.474,15.878,1.421a24.534,24.534,0,0,1,6.805,3.789,5.293,5.293,0,0,1,1.891,2.369,6.6,6.6,0,0,1,1.134,1.895h0c3.78-1.421,8.317-.948,12.1.473s9.074,4.737,9.452,10.421a29.033,29.033,0,0,1,17.39-4.263c3.025,0,7.184.474,10.208,2.368a7.157,7.157,0,0,0-3.024-1.894c-5.671-1.9-12.1-1.9-17.769-.948-2.268.474-3.781,1.9-4.537-.473a8.674,8.674,0,0,0-4.158-5.211,30.088,30.088,0,0,0-18.147-3.316c-2.268-2.842-5.671-5.684-7.939-6.631-5.293-3.316-11.72-4.263-17.769-4.263-4.915,0-12.854.474-17.012,4.263-2.269,2.368-1.513.474-2.647-1.895a11.882,11.882,0,0,0-4.915-4.263c-4.536-1.894-9.829-1.421-14.366.474-1.512.474-3.4,2.368-4.536,3.789-.757,1.421-1.135-1.894-1.513-2.842a8.155,8.155,0,0,0-2.646-3.789c-4.159-5.21-11.72-5.21-17.013-5.21a30.467,30.467,0,0,0-6.048.947c-4.537-3.789-9.074-6.632-14.367-8.053-10.207-2.842-20.793-2.368-29.866,4.737-1.89,1.421-6.805-2.842-9.452-3.316-2.646,0-4.914-.473-7.561.474-1.512.474-3.78,2.369-5.292,0a10.345,10.345,0,0,0-1.891-2.368c-6.427-6.632-17.39-8.526-25.708-5.211a62.74,62.74,0,0,0-18.524-4.263,64.3,64.3,0,0,0-21.172,1.9,54.228,54.228,0,0,0-9.073,3.316c-.756.473-4.915,2.842-4.915,4.263,0-1.421-3.024-3.79-3.78-4.263a7.749,7.749,0,0,0-7.183-.948c-.756.474-6.805,3.79-7.183,2.842a12.793,12.793,0,0,0-4.159-6.157c-5.293-3.316-11.72-2.842-17.012,0a11.932,11.932,0,0,1-2.269,1.421,3.4,3.4,0,0,0-1.89.473,8.939,8.939,0,0,0-4.537,3.79,2.63,2.63,0,0,0-.756,1.421h0A7.551,7.551,0,0,1,180.738,67.561Z"/>
        <path class="cls-22" d="M518.721,117.3c-4.537,1.895-9.452,1.421-13.988.948s-12.1-.948-15.5-5.684c-1.134,2.842-4.158,4.736-6.805,5.684a14.4,14.4,0,0,1-6.427.473,22.914,22.914,0,0,1-3.024-1.421c-7.561,9.474-20.793,11.369-31,9.948-5.292-.948-10.207-1.895-15.122-4.737a18.262,18.262,0,0,1-6.805-6.158c-2.646,3.316-6.427,5.21-9.829,6.631a57.5,57.5,0,0,1-19.281,4.737c-6.427,0-13.61-.473-19.281-4.263-1.134-.947-4.537-2.842-3.4-5.21a12.879,12.879,0,0,1,1.513-3.316c-4.159,3.789-8.318,6.631-13.61,8.052-5.671,1.421-11.342,2.369-17.013,1.421-5.293-.473-13.61-2.368-16.634-8.526a10.227,10.227,0,0,1-18.147-2.842,28.446,28.446,0,0,1-7.183,7.105,26.094,26.094,0,0,1-15.5,5.211,21.078,21.078,0,0,1-14.366-5.211,27.194,27.194,0,0,1-5.293-6.631c-4.914,9.473-14.366,13.737-23.439,14.21a32.724,32.724,0,0,1-15.122-3.316c-1.891-.947-4.537-2.368-4.915-5.21-.378-.947.378-2.368,1.134-3.316,0-.473.378-.473.378-.947-.378.474-.756.947-1.134.947-1.134,1.421-3.024,3.316-4.915,3.316-.378,0-.378-.474-.378-.947a24.741,24.741,0,0,0,3.025-9A30.006,30.006,0,0,1,200.4,124.875a15.288,15.288,0,0,1-10.207.947c-3.025-.473-6.427-1.894-7.939-5.21,0-.474,0-.947.378-.474,1.89.474,3.4-.473,4.914-1.894-3.024-2.369-6.805-3.79-9.829-7.579a21.558,21.558,0,0,1-3.025-5.21,12.171,12.171,0,0,0,4.159,8.052c.378,0,.378.474,0,.947-4.537,2.842-10.964,0-13.61-5.21-.378-.947-.756-1.421-1.134-2.368v.947c1.134,5.684,5.293,9,9.451,9.473a8.926,8.926,0,0,0,6.049-.473c-1.89,7.578,10.586,11.842,14.744,12.315,5.671.474,11.342-1.421,17.013-2.842a53.568,53.568,0,0,0,6.805-2.368c4.159,3.316,10.207,5.21,14.366,6.158a35.049,35.049,0,0,0,18.525-.474,36.845,36.845,0,0,0,8.7-4.263l3.4-2.842c2.268-2.369,2.646-1.9,4.158.947,3.4,5.684,10.964,6.632,15.879,6.632,6.427,0,12.475-3.79,17.39-9,1.891-1.895,1.891-5.684,4.159-1.895,1.512,2.368,3.4,4.263,6.049,4.263,3.024,0,7.561-.947,9.073-4.263,2.647,4.737,6.427,5.684,10.964,7.105,6.805,2.369,13.988,2.369,20.793,1.421a47.462,47.462,0,0,0,15.5-4.263,25.016,25.016,0,0,0,7.561,4.263c6.427,2.842,13.232,2.842,20.037,2.369,8.318-.474,18.147-2.369,25.708-8.053a24.344,24.344,0,0,0,11.342,7.579c6.427,1.9,13.61,1.421,20.037.947,6.427-.947,15.878-2.842,22.683-7.579a24.756,24.756,0,0,0,11.72-3.315c4.915-2.842,7.939-1.421,12.854-.474a73.591,73.591,0,0,0,10.207.474c2.647,0,9.452,1.421,10.964-2.369h0C519.855,116.823,519.477,117.3,518.721,117.3Z"/>
      </g>
      <g>
        <g>
          <path class="cls-20" d="M449.158,67.087c1.891,1.421,4.915,1.421,7.184,1.421a59.088,59.088,0,0,0,9.451.947,58.808,58.808,0,0,0,12.854-.947c.378.474,1.134.474,1.512.947a30.588,30.588,0,0,0,12.476,4.263c3.781.474,9.451.474,13.232-1.894,4.159,3.789,10.207,4.737,14.744,4.737,3.781-.474,9.074-1.421,11.342-5.211a15.549,15.549,0,0,0,10.963,2.842,9.706,9.706,0,0,0,6.427-3.316,4.594,4.594,0,0,0,2.647.474c1.134,0,2.646,0,3.024-1.421v-.474a11.8,11.8,0,0,0,8.7,2.369,13.121,13.121,0,0,0,6.8-2.369c3.78,2.369,8.317,3.79,12.476,3.316,2.268,0,8.317-.474,7.939-4.737-.378-3.789-4.159-7.105-6.8-8.052s-5.671-1.895-8.318-1.421a15.71,15.71,0,0,0-5.292,1.421c-2.269-3.789-6.427-6.158-9.83-7.579-3.4-.947-9.073-1.894-12.1.948h-.378c-3.024-5.685-10.207-5.685-15.5-2.842a15.634,15.634,0,0,0-4.159-3.316c-1.89-.948-4.158-1.895-6.427-1.421-3.024-8.053-14.366-11.842-18.146-6.632a5.079,5.079,0,0,0-3.781-.473c-2.268,0-5.293.947-6.427,3.789-.756,1.421-.378,2.368-.378,3.789a8.48,8.48,0,0,0-3.4-.473,5.184,5.184,0,0,0-3.4,1.894c-.378,0-.378.474-.378.474-6.049-1.9-13.232.474-18.9,2.369-2.646.947-6.427,2.368-7.939,5.21-4.537-.474-9.073-.474-12.1,3.789C444.622,62.35,447.268,65.666,449.158,67.087Z"/>
          <path class="cls-21" d="M581.478,60.456a15.206,15.206,0,0,0-10.963,2.368c-3.4-6.158-8.7-9.473-14.745-9.473-1.89,0-5.67,0-7.939,1.894A9.635,9.635,0,0,0,533.087,52.4c-2.268-2.842-5.293-3.789-8.317-4.737h-2.647c-.378-1.894-1.89-3.315-3.024-4.736a13.722,13.722,0,0,0-7.939-4.263,5.885,5.885,0,0,0-6.427,2.368c-3.025-1.895-7.561-1.421-9.452,1.9a6.3,6.3,0,0,0-1.134,5.21,5.273,5.273,0,0,0-5.293,0,11.92,11.92,0,0,0-2.646,2.369c-5.671-2.369-12.854-.474-18.147,1.421-2.268.947-5.293,1.421-6.427,4.263a4.139,4.139,0,0,0-.756,2.368,14.175,14.175,0,0,0-9.829-.474,35.422,35.422,0,0,0-4.537,2.369s0-.474.378-.474c3.025-4.263,7.939-4.737,12.1-3.789,1.512-2.842,5.293-4.263,7.939-5.211,5.671-1.895,12.854-4.263,18.9-2.368l.378-.474a5.185,5.185,0,0,1,3.4-1.9,8.463,8.463,0,0,1,3.4.474c0-1.421-.378-2.368.378-3.789,1.134-2.842,4.159-3.79,6.427-3.79a10.381,10.381,0,0,1,3.781.474c4.158-5.21,15.122-1.421,18.146,6.631,2.269-.473,4.537.474,6.427,1.421a15.69,15.69,0,0,1,4.159,3.316c5.293-2.842,12.476-2.842,15.5,2.842h.378c3.4-2.842,8.7-2.368,12.1-.947,3.4.947,7.939,3.316,9.829,7.579a13.81,13.81,0,0,1,5.293-1.421,12.65,12.65,0,0,1,8.318,1.421c2.268.947,5.67,3.789,6.426,6.631A10.336,10.336,0,0,0,581.478,60.456Z"/>
          <path class="cls-22" d="M447.268,63.771c3.025,2.842,6.805,2.842,10.208,3.316a84.654,84.654,0,0,0,15.5,0,26.583,26.583,0,0,0,5.671-1.9,5.523,5.523,0,0,0,1.512-1.421,7.134,7.134,0,0,0,1.89,1.895,23.864,23.864,0,0,0,10.208,5.21c4.915.948,11.72.948,15.122-4.263.378.474.378.948.756,1.421a7.744,7.744,0,0,0,3.781,2.842c3.024,1.421,6.427,2.369,9.451,1.895,3.781,0,7.939-1.421,10.208-5.21a11.757,11.757,0,0,0,10.585,4.263c2.269-.474,4.915-1.421,6.427-3.316a4.718,4.718,0,0,0,3.4.947c1.512,0,2.646-1.421,3.4-2.842a22.927,22.927,0,0,1,2.269,1.895,11.1,11.1,0,0,0,5.292,1.421c2.647,0,5.671-.474,7.562-2.842a20.95,20.95,0,0,0,3.024,1.895,19.3,19.3,0,0,0,11.342,1.894c1.89,0,5.671-.473,5.671-3.789V65.666a3.424,3.424,0,0,1,.378,1.9c.378,4.263-5.671,4.736-7.94,4.736-3.78.474-8.7-.947-12.475-3.315-1.891,1.894-4.915,2.368-6.8,2.368a14.412,14.412,0,0,1-8.7-2.368v.473c-.756,1.421-1.89,1.421-3.024,1.421a6.02,6.02,0,0,1-2.647-.473,8.963,8.963,0,0,1-6.427,3.315c-3.78.474-7.561-.947-10.963-2.842-2.269,3.79-7.561,5.211-11.342,5.211a19.9,19.9,0,0,1-14.744-4.737c-3.781,2.368-9.83,1.9-13.232,1.9a28.829,28.829,0,0,1-12.476-4.263c-.378-.474-1.134-.474-1.512-.948a58.752,58.752,0,0,1-12.854.948,69.326,69.326,0,0,1-9.452-.948c-2.268-.473-5.292,0-7.183-1.421a7.578,7.578,0,0,1-3.4-5.684C446.134,62.35,446.512,63.3,447.268,63.771Z"/>
        </g>
        <g>
          <path class="cls-20" d="M845.362,76.561c1.89,1.421,4.536.947,6.427,1.421,2.646.473,5.67.473,8.317.947a50.584,50.584,0,0,0,11.72-.947c.378.473.756.473,1.134.947A32.726,32.726,0,0,0,884.3,82.718c3.4.474,8.317.474,12.1-1.421,3.781,3.316,9.074,4.263,13.232,4.263,3.4-.473,7.94-1.421,10.208-4.736a18.491,18.491,0,0,0,9.829,2.842c1.891,0,4.537-.948,5.671-2.842a3.949,3.949,0,0,0,2.269.473c1.134,0,2.268,0,2.646-1.421V79.4c2.268,1.894,4.915,2.368,7.939,2.368A11.946,11.946,0,0,0,954.62,79.4a19.682,19.682,0,0,0,10.964,3.315c1.89,0,7.561-.473,7.183-4.263-.378-3.315-3.781-6.158-6.049-7.105a13.989,13.989,0,0,0-7.561-.947,10.956,10.956,0,0,0-4.537,1.421,15.538,15.538,0,0,0-9.073-6.632c-3.025-.947-7.94-1.421-10.964.948h-.378c-2.646-5.211-9.073-5.211-13.988-2.842a7.739,7.739,0,0,0-3.781-2.842,8.118,8.118,0,0,0-5.671-.948c-2.646-7.105-12.853-10.421-16.256-6.157a8.463,8.463,0,0,0-3.4-.474,5.983,5.983,0,0,0-5.671,3.316,11.437,11.437,0,0,0-.378,3.315,6.011,6.011,0,0,0-3.025-.473,4.413,4.413,0,0,0-3.024,1.894l-.378.474c-5.671-1.421-11.72.474-17.013,1.9-2.268.947-5.671,1.894-7.183,4.736-3.781-.473-8.317-.473-10.964,3.316C840.825,72.3,843.471,75.139,845.362,76.561Z"/>
          <path class="cls-21" d="M963.693,70.4a14.384,14.384,0,0,0-9.829,1.894c-3.025-5.21-7.939-8.526-13.232-8.526-1.89,0-5.293,0-7.183,1.895-3.025-5.21-9.073-5.684-13.232-2.368a11.785,11.785,0,0,0-7.561-4.263h-2.269c-.378-1.421-1.89-2.842-2.646-4.263a13.962,13.962,0,0,0-7.183-3.79,5.469,5.469,0,0,0-5.671,1.9A6.22,6.22,0,0,0,886.57,54.3a6.633,6.633,0,0,0-.756,4.737c-1.512-.474-3.025-.948-4.915,0a4,4,0,0,0-2.268,2.368c-5.293-1.895-11.342-.474-16.257,1.421-1.89.474-4.915,1.421-5.671,3.789-.378.474-.378,1.421-.756,1.895a11.2,11.2,0,0,0-8.7-.474c-1.134.474-3.024.948-4.159,2.369,0,0,0-.474.378-.474,2.647-3.789,7.183-4.263,10.964-3.316,1.512-2.368,4.537-3.789,7.183-4.736,5.293-1.9,11.342-3.79,17.013-1.9l.378-.474a4.413,4.413,0,0,1,3.024-1.894,6.011,6.011,0,0,1,3.025.473c0-.947-.378-1.894.378-3.315a6.362,6.362,0,0,1,5.671-3.316,8.463,8.463,0,0,1,3.4.474c3.781-4.737,13.61-1.422,16.256,6.157,1.891-.473,3.781.474,5.671.948,1.513.473,2.647,1.894,3.781,2.842,4.537-2.369,11.342-2.369,13.988,2.842h.378c3.025-2.369,7.939-1.895,10.964-.948s7.183,3.316,9.073,6.632a12.817,12.817,0,0,1,4.537-1.421,13.989,13.989,0,0,1,7.561.947c1.89.947,4.915,3.316,5.671,6.158A13.35,13.35,0,0,0,963.693,70.4Z"/>
          <path class="cls-22" d="M843.471,73.718c2.647,2.369,6.049,2.843,9.074,3.316a65.309,65.309,0,0,0,13.61,0c1.89-.473,3.4-.473,4.915-1.894.378-.474,1.134-.948,1.512-1.422a4.071,4.071,0,0,0,1.89,1.895,17.953,17.953,0,0,0,9.451,4.263c4.537.474,10.586.948,13.61-3.789.379.474.379.947.757,1.421a27.009,27.009,0,0,0,3.4,2.842,18.246,18.246,0,0,0,8.695,1.9c3.4,0,7.183-1.421,9.074-4.737a10.529,10.529,0,0,0,9.451,3.789c1.89-.473,4.537-.947,5.671-3.315a7.492,7.492,0,0,0,3.024.947c1.513,0,2.269-.947,3.025-2.368a5.381,5.381,0,0,0,1.89,1.421,8.787,8.787,0,0,0,4.915,1.421,9.4,9.4,0,0,0,6.8-2.369c1.134.474,1.89,1.421,2.646,1.421A19.21,19.21,0,0,0,967.1,79.876c1.512,0,4.915-.473,4.915-3.316V75.139a3.424,3.424,0,0,1,.378,1.9c.378,3.79-5.293,4.263-7.183,4.263a19.682,19.682,0,0,1-10.964-3.315,11.946,11.946,0,0,1-6.427,2.368c-3.024,0-5.671-.474-7.939-2.368v.473c-.378,1.421-1.89,1.421-2.647,1.421a3.947,3.947,0,0,1-2.268-.473c-1.134,1.894-3.78,2.842-5.671,2.842-3.4,0-6.8-.474-9.829-2.842-1.89,3.315-6.805,4.263-10.208,4.736-3.78.474-9.451-.473-13.232-4.263-3.4,1.895-8.695,1.895-12.1,1.421a32.728,32.728,0,0,1-11.341-3.789c-.378-.474-.756-.474-1.134-.948-3.781.948-7.562.948-11.72.948a49.671,49.671,0,0,1-8.317-.948c-1.891,0-4.537,0-6.427-1.421-1.135-.947-3.025-2.842-3.025-5.21C842.337,72.3,842.715,72.771,843.471,73.718Z"/>
        </g>
      </g>
    </g>
    <rect class="cls-23" x="298.66" y="155.152" width="1247.606" height="885.509"/>
  </g>
</svg>
