<svg xmlns="http://www.w3.org/2000/svg" width="149.747mm" height="103.012mm" viewBox="0 0 424.479 292.003">
  <defs>
    <style>
      .cls-1 {
        fill: #231f20;
      }
    </style>
  </defs>
  <g id="Bild">
    <g>
      <path class="cls-1" d="M287.158,82.215q-.435,4.242-.871,8.486l42.824,13.756a176.5,176.5,0,0,1-39.179,14.266,125.878,125.878,0,0,0,8.8,18.928A84.4,84.4,0,0,0,288.3,153.089c7.235,3.128,11.7,8.087,21.283,9.2C283.227,171.1,256.6,180.033,232.762,195.4a119.935,119.935,0,0,1,3.407-25.215c-20.508-2.57-41.174-3.041-61.806-3.511,10.346-2.976,15.446-6.784,22.5-11.4a43.519,43.519,0,0,0-8.96-15.759q23.835-9.389,47.833-18.242a38.8,38.8,0,0,0-7.036-16.664,4.807,4.807,0,0,1-.968-1.732c-1.378-5.919,20.479-11.423,23.854-12.341C254.839,89.65,287.025,83.511,287.158,82.215Z"/>
      <polygon class="cls-1" points="235.74 121.272 231.736 164.89 207.965 161.176 187.907 139.514 235.74 121.272"/>
      <polygon class="cls-1" points="196.867 155.273 196.452 167.268 174.363 166.669 196.867 155.273"/>
      <polygon class="cls-1" points="236.169 170.18 238.109 192.082 232.762 195.395 232.762 169.772 236.169 170.18"/>
      <polygon class="cls-1" points="288.298 153.089 285.829 170.436 309.581 162.29 288.298 153.089"/>
      <polygon class="cls-1" points="289.932 118.723 293.704 144.181 298.731 137.651 289.932 118.723"/>
      <polygon class="cls-1" points="286.287 90.701 286.287 127.689 289.932 125.675 288.109 114.706 315.615 110.571 329.111 104.457 286.287 90.701"/>
      <path class="cls-1" d="M223.964,99.647c.463.519,11.258,19.076,11.258,19.076L251.59,90.535Z"/>
      <polygon class="cls-1" points="255.893 90.63 251.59 179.107 268.781 168.004 278.825 84.699 255.893 90.63"/>
      <path class="cls-1" d="M200.089,167.268c1.069.183,52.04-13.935,52.04-13.935l-.539,9.148L288.3,141.832s6.333-1.308,6.027,0-6.033,11.257-6.033,11.257l-2.469,17.347-47.72,21.646-5.347-22.31Z"/>
      <path class="cls-1" d="M285.23,187.814l-5.32,11.235a27.335,27.335,0,0,1,9.277-1.8,304.936,304.936,0,0,0-29.047,43.1c13.059-14.163,27.841-26.177,41.344-39.806,2.266-2.287,4.561-4.721,5.736-7.873l-13.394-3.626a87.005,87.005,0,0,0,10.887-13.364c-9.37-.733-18.321-4.419-27.421-7.03a6.278,6.278,0,0,0-2.556-.355,6.592,6.592,0,0,0-2.165.853q-6.572,3.537-13.029,7.336-3.276,1.929-6.522,3.924c-1.682,1.034-4.906,2.252-5.881,4.047,5.758,1.939,12.855,1.767,18.856,2.283Q275.6,187.567,285.23,187.814Z"/>
      <path class="cls-1" d="M158.475,171.6a12.751,12.751,0,0,1-.776-6.376q-14.367,12.846-28.066,26.6a11.97,11.97,0,0,1-.179-6.026c-7.551,5.594-15.62,10.242-23.67,14.878L89.44,210.089a282.473,282.473,0,0,1,36.78-17.574,84.619,84.619,0,0,0,.043,9.933q12.7-14.043,25.933-27.466a26.863,26.863,0,0,0,1.049,7.29c12.225-8.035,25.668-13.412,39.02-18.742-2.345.936-6.179.329-8.711.64a31.311,31.311,0,0,0-8.018,1.781C170.078,168.222,164.149,169.8,158.475,171.6Z"/>
      <path class="cls-1" d="M167.808,143.145l8.762-8.541-30.3.9,37.633-4.693a14.805,14.805,0,0,1-4.32,5.393c11.349-3.411,23.393-.754,35.112-1.715a94.124,94.124,0,0,1-25.454,4.695,80.824,80.824,0,0,0-9.631.526C176.5,140.182,170.258,140.757,167.808,143.145Z"/>
      <polygon class="cls-1" points="284.709 170.944 293.278 194.173 293.826 189.046 304.713 175.682 284.709 170.944"/>
      <polygon class="cls-1" points="289.187 197.251 285.829 215.471 260.14 240.351 289.187 197.251"/>
      <path class="cls-1" d="M267.559,74.842c4.547-2.577,9.5-4.1,14.419-5.6l21.416-6.556a48.471,48.471,0,0,0-6.7-5.293c9.987.329,19.449-5.457,29.437-5.738a169.5,169.5,0,0,1-20.812,6.8l6.359,4.372-21.951,9.538c-3.99,1.733-8.023,3.48-12.261,4.148a48.533,48.533,0,0,1,8.773,4.915,1.854,1.854,0,0,1,.985,1.406,2.008,2.008,0,0,1-.3.888c-1.717,3.245-3.294,6.7-5.216,9.79-.257-1.972.1-4.032-.142-5.978-.245-1.973-1.483-3.057-2.777-4.32a53.058,53.058,0,0,0-5.37-4.593C272.619,78.023,268.409,74.425,267.559,74.842Z"/>
      <path class="cls-1" d="M314.346,66.566l-.615,3.291A207.874,207.874,0,0,1,334.2,66.214q-3.1,5.439-6.2,10.879,1.6-4.391,3.191-8.782-10.426,3.63-20.978,6.786a32.756,32.756,0,0,0,1.481-5.392c-.141.724-6.968,1.719-7.817,1.9-2.751.572-5.516,1.055-8.288,1.48-5.484.842-11.065,1.707-16.592,2.049,5.112-2.922,9.223-3.662,14.879-4.393A144.573,144.573,0,0,0,314.346,66.566Z"/>
      <path class="cls-1" d="M273.62,55.727,270.642,59.5a124.436,124.436,0,0,1,22.991-2.046,41.874,41.874,0,0,1-6.1,8.236,33.592,33.592,0,0,1,9.233.54,11.163,11.163,0,0,0,2.469.334c2.169-.06,4.066-1.562,5.812-3a41.044,41.044,0,0,1-13.643.368,20.67,20.67,0,0,0,3.513-7.612,126.35,126.35,0,0,0-20.76,1.08q.633-1.786,1.267-3.572-13.875,1.915-27.656,4.594c2.112-.411,4.519-.039,6.693-.327,1.52-.2,3.023-.406,4.552-.51A110.316,110.316,0,0,0,273.62,55.727Z"/>
    </g>
  </g>
</svg>
