<svg xmlns="http://www.w3.org/2000/svg" width="149.747mm" height="103.012mm" viewBox="0 0 424.479 292.003">
  <defs>
    <style>
      .cls-1 {
        fill: #231f20;
      }
    </style>
  </defs>
  <g id="Bild">
    <g>
      <path class="cls-1" d="M209.808,133.447a10.564,10.564,0,0,0-2.845,1.744c-1.736,1.736-.857,4-.2,6.023,3.145,9.612-.371,20.047-9.418,27.952-.771.674-1.624,1.423-1.488,2.256.117.715.937,1.287,1.716,1.8q20.685,13.653,43.249,26.05a6.321,6.321,0,0,1,2.474,1.91,3.18,3.18,0,0,1,.29,1.784,56.09,56.09,0,0,1-.87,7.876,220.643,220.643,0,0,0,23.393-20.619c2.045-2.086,4.094-4.349,4.028-6.816a9.807,9.807,0,0,0-1.886-4.595q-3.661-5.923-7.325-11.847a4.874,4.874,0,0,1-.947-2.332,5.237,5.237,0,0,1,1.576-3.053l8.329-10.158q-15.78-4.8-30.869-10.478a151.651,151.651,0,0,0,12.273-15.989,30.088,30.088,0,0,1-4.888-16.238c-.009,1.8-6.058,6.112-7.533,7.817-1.806,2.09-3.173,4.3-5.983,5.915C225.865,126.478,217.355,129.816,209.808,133.447Z"/>
      <path class="cls-1" d="M242.912,118.127l-4.115,6.394-18.291,14.861,3.887,19.755-7.317,11.644,28.58,17.835s2.515,13.708,2.515,13.266,10.975-17.1,10.975-17.1l-18.977-17.245,12.844-11.792-17.646-5.708-5.487-10.657L245.2,124.521Z"/>
      <polygon class="cls-1" points="207.018 154.568 224.393 159.137 221.056 142.179 207.623 151.778 207.018 154.568"/>
      <polygon class="cls-1" points="253.013 155.747 269.888 151.424 239.019 140.946 235.367 150.039 253.013 155.747"/>
      <polygon class="cls-1" points="235.367 120.589 239.395 123.592 242.912 118.127 246.404 108.719 235.367 120.589"/>
      <polygon class="cls-1" points="195.861 171.422 217.076 170.781 221.875 163.144 199.353 167.283 195.861 171.422"/>
      <polygon class="cls-1" points="242.696 200.476 245.656 188.616 235.367 182.196 238.829 198.172 242.696 200.476"/>
      <polygon class="cls-1" points="240.169 167.539 259.983 164.635 265.088 157.279 244.956 163.144 240.169 167.539"/>
      <polygon class="cls-1" points="259.146 184.784 270.141 183.409 266.963 176.725 244.707 171.663 259.146 184.784"/>
      <path class="cls-1" d="M243.23,119.016l-2.345,5.5-16.492,14.861,6.173,16.365-4.344,13.266L250,184.784s.457,10.76,0,10.318,6.173-9.581,6.173-9.581L233,166.655,246.4,156.632,234,153.094l-5.944-13.712L245.2,124.521Z"/>
      <path class="cls-1" d="M243.529,204.164,235.367,220.7l19.135,5.957-4.158,16.532,10.4,7.446-7.727-9.085,9.575-17.425s-19.637-4.467-19.406-4.914,7.859-15.045,7.859-15.045Z"/>
      <polygon class="cls-1" points="246.404 108.719 256.173 96.684 269.888 99.677 282.918 89.952 294.713 88.911 284.304 91.128 273.061 102.539 257.424 99.677 246.404 116.155 246.404 108.719"/>
      <polygon class="cls-1" points="207.018 138.19 197.671 131.34 197.209 123.592 188.18 126.556 184.146 112.425 178.496 113.17 186.35 109.322 192.757 122.553 203.215 119.408 204.37 130.297 215.705 133.406 207.018 138.19"/>
      <polygon class="cls-1" points="269.888 151.424 280.377 146.836 292.852 153.977 317.109 155.747 324.04 165.445 318.495 153.083 294.713 150.658 281.763 142.792 255.195 150.039 269.888 151.424"/>
      <polygon class="cls-1" points="270.141 183.409 281.994 177.359 287.307 180.934 294.469 178.997 305.69 186.146 307.406 195.115 318.495 189.125 322.423 191.336 330.739 187.338 324.04 188.827 319.881 186.237 310.409 190.465 306.944 183.019 294.238 175.87 287.769 178.223 283.611 173.785 266.515 179.444 270.141 183.409"/>
      <polygon class="cls-1" points="203.484 174.703 191.132 182.196 195.846 189.097 190.42 199.05 194.695 208.39 180.681 215.893 180.681 221.712 182.819 216.506 200.871 210.844 195.846 198.897 203.484 190.169 199.208 182.196 212.51 182.196 203.484 174.703"/>
      <polygon class="cls-1" points="196.595 204.164 208.868 200.476 212.51 206.859 222.723 204.164 224.393 208.85 224.393 201.892 215.705 204.164 210.494 198.208 194.458 200.476 196.595 204.164"/>
      <path class="cls-1" d="M298.627,180.828v9.8l-9.01.708,1.513,4.5-15.914,5.36,18.289-4.441s-1.425-4.441-.475-4.134,8.551,1.225,8.551,1.225V182.2Z"/>
      <polygon class="cls-1" points="279.016 176.235 273.791 171.663 280.441 167.539 279.016 159.781 287.329 157.065 281.866 160.01 287.329 167.539 279.491 171.663 283.054 174.703 279.016 176.235"/>
      <polygon class="cls-1" points="259.146 227.398 266.515 234.268 277.828 226.459 287.329 228.602 296.355 220.793 287.329 226.152 277.75 223.856 266.515 229.215 262.588 224.123 259.146 227.398"/>
      <polygon class="cls-1" points="251.408 102.553 245.455 96.684 236.065 102.533 227.67 100.345 224.393 104.58 201.006 98.858 224.405 106.297 229.589 102.196 236.065 105.61 243.812 100.754 250.169 107.212 251.408 102.553"/>
      <polygon class="cls-1" points="276.634 98.68 285.016 100.309 279.924 106.011 289.899 107.989 285.519 117.064 294.666 119.408 288.704 116.48 293.367 106.709 284.178 104.064 288.871 98.68 279.924 95.539 276.634 98.68"/>
    </g>
  </g>
</svg>
