<svg xmlns="http://www.w3.org/2000/svg" xmlns:xlink="http://www.w3.org/1999/xlink" width="1920" height="1080" viewBox="0 0 1920 1080">
  <defs>
    <style>
      .cls-1, .cls-10, .cls-11, .cls-12, .cls-13, .cls-14, .cls-15, .cls-16, .cls-17, .cls-18, .cls-19, .cls-2, .cls-20, .cls-21, .cls-22, .cls-23, .cls-24, .cls-3, .cls-4, .cls-5, .cls-6, .cls-7, .cls-8, .cls-9 {
        fill-rule: evenodd;
      }

      .cls-1 {
        fill: url(#Unbenannter_Verlauf_50);
      }

      .cls-2 {
        fill: url(#Unbenannter_Verlauf_8);
      }

      .cls-3 {
        fill: url(#Unbenannter_Verlauf_50-2);
      }

      .cls-16, .cls-21, .cls-22, .cls-23, .cls-4, .cls-7, .cls-8 {
        fill: #613962;
      }

      .cls-4 {
        opacity: 0.3;
      }

      .cls-10, .cls-16, .cls-21, .cls-23, .cls-4, .cls-7, .cls-8 {
        isolation: isolate;
      }

      .cls-5 {
        fill: url(#Unbenannter_Verlauf_50-3);
      }

      .cls-6 {
        fill: url(#Unbenannter_Verlauf_50-4);
      }

      .cls-7 {
        opacity: 0.2;
      }

      .cls-8 {
        opacity: 0.5;
      }

      .cls-9 {
        fill: url(#Unbenannter_Verlauf_53);
      }

      .cls-10, .cls-21 {
        opacity: 0.4;
      }

      .cls-10 {
        fill: url(#Unbenannter_Verlauf_54);
      }

      .cls-11 {
        fill: url(#Unbenannter_Verlauf_50-5);
      }

      .cls-12 {
        fill: url(#Unbenannter_Verlauf_50-6);
      }

      .cls-13 {
        fill: url(#Unbenannter_Verlauf_50-7);
      }

      .cls-14 {
        fill: url(#Unbenannter_Verlauf_50-8);
      }

      .cls-15 {
        fill: url(#Unbenannter_Verlauf_50-9);
      }

      .cls-16 {
        opacity: 0.17;
      }

      .cls-17 {
        fill: url(#Unbenannter_Verlauf_50-10);
      }

      .cls-18 {
        fill: url(#Unbenannter_Verlauf_50-11);
      }

      .cls-19 {
        fill: url(#Unbenannter_Verlauf_50-12);
      }

      .cls-20 {
        fill: url(#Unbenannter_Verlauf_50-13);
      }

      .cls-23 {
        opacity: 0.15;
      }

      .cls-24 {
        fill: url(#Unbenannter_Verlauf_53-2);
      }
    </style>
    <linearGradient id="Unbenannter_Verlauf_50" data-name="Unbenannter Verlauf 50" x1="2143.343" y1="-6003.084" x2="2355.432" y2="-6339.285" gradientTransform="matrix(1, 0, 0, -1, -192.638, -5282.836)" gradientUnits="userSpaceOnUse">
      <stop offset="0" stop-color="#eac080"/>
      <stop offset="0.602" stop-color="#b48b73"/>
      <stop offset="0.994" stop-color="#848b89"/>
    </linearGradient>
    <linearGradient id="Unbenannter_Verlauf_8" data-name="Unbenannter Verlauf 8" x1="2081.189" y1="-6005.134" x2="2192.937" y2="-6263.257" gradientTransform="matrix(1, 0, 0, -1, -192.638, -5282.836)" gradientUnits="userSpaceOnUse">
      <stop offset="0" stop-color="#eac080"/>
      <stop offset="0.602" stop-color="#b48b73"/>
      <stop offset="1" stop-color="#848b89"/>
    </linearGradient>
    <linearGradient id="Unbenannter_Verlauf_50-2" x1="2109.666" y1="-6045.979" x2="2152.602" y2="-6406.338" xlink:href="#Unbenannter_Verlauf_50"/>
    <linearGradient id="Unbenannter_Verlauf_50-3" x1="2094.789" y1="-5986.639" x2="2275.098" y2="-6472.691" xlink:href="#Unbenannter_Verlauf_50"/>
    <linearGradient id="Unbenannter_Verlauf_50-4" x1="1940.04" y1="-6158.823" x2="2005.176" y2="-6394.257" xlink:href="#Unbenannter_Verlauf_50"/>
    <linearGradient id="Unbenannter_Verlauf_53" data-name="Unbenannter Verlauf 53" x1="2148.637" y1="-6254.119" x2="2103.451" y2="-6178.809" gradientTransform="matrix(1, 0, 0, -1, -192.638, -5282.836)" gradientUnits="userSpaceOnUse">
      <stop offset="0" stop-color="#8eab29"/>
      <stop offset="1" stop-color="#d2c52f"/>
    </linearGradient>
    <linearGradient id="Unbenannter_Verlauf_54" data-name="Unbenannter Verlauf 54" x1="2114.364" y1="-6205.678" x2="2106.354" y2="-6166.817" gradientTransform="matrix(1, 0, 0, -1, -192.638, -5282.836)" gradientUnits="userSpaceOnUse">
      <stop offset="0" stop-color="#b36566"/>
      <stop offset="1" stop-color="#f3d3db"/>
    </linearGradient>
    <linearGradient id="Unbenannter_Verlauf_50-5" x1="291.319" y1="-6153.916" x2="298.42" y2="-6379.96" xlink:href="#Unbenannter_Verlauf_50"/>
    <linearGradient id="Unbenannter_Verlauf_50-6" x1="128.515" y1="-5606.283" x2="236.167" y2="-6306.015" xlink:href="#Unbenannter_Verlauf_50"/>
    <linearGradient id="Unbenannter_Verlauf_50-7" x1="190.146" y1="-6065.089" x2="190.146" y2="-6389.47" xlink:href="#Unbenannter_Verlauf_50"/>
    <linearGradient id="Unbenannter_Verlauf_50-8" x1="437.701" y1="-6133.941" x2="518.137" y2="-6398.906" xlink:href="#Unbenannter_Verlauf_50"/>
    <linearGradient id="Unbenannter_Verlauf_50-9" x1="130.314" y1="-6066.7" x2="294.425" y2="-6563.755" xlink:href="#Unbenannter_Verlauf_50"/>
    <linearGradient id="Unbenannter_Verlauf_50-10" x1="230.364" y1="-6288.06" x2="264.614" y2="-6396.124" xlink:href="#Unbenannter_Verlauf_50"/>
    <linearGradient id="Unbenannter_Verlauf_50-11" x1="162.242" y1="-5861.269" x2="182.751" y2="-6225.7" xlink:href="#Unbenannter_Verlauf_50"/>
    <linearGradient id="Unbenannter_Verlauf_50-12" x1="354.137" y1="-6159.822" x2="434.374" y2="-6424.132" xlink:href="#Unbenannter_Verlauf_50"/>
    <linearGradient id="Unbenannter_Verlauf_50-13" x1="190.031" y1="-5984.594" x2="244.943" y2="-6143.428" xlink:href="#Unbenannter_Verlauf_50"/>
    <linearGradient id="Unbenannter_Verlauf_53-2" x1="-1197.218" y1="-5820.669" x2="-1235.088" y2="-5757.553" gradientTransform="matrix(0.991, -0.137, -0.137, -0.991, 465.094, -5383.425)" xlink:href="#Unbenannter_Verlauf_53"/>
  </defs>
  <g id="Bild">
    <g>
      <g>
        <polygon class="cls-1" points="1776.281 801.803 2105.066 752.516 2205.571 766.207 1904.445 830.358 1776.281 801.803"/>
        <polygon class="cls-2" points="2238.684 885.512 1712.004 1002.862 1719.405 979.783 1722.132 971.177 1726.418 957.486 1727.586 953.575 1776.281 801.803 1859.646 801.803 1950.802 793.197 2147.528 772.466 2205.571 766.207 2219.985 818.232 2222.323 827.62 2222.323 827.62 2228.166 848.743 2229.724 853.046 2230.114 855.001 2238.684 885.512"/>
        <polygon class="cls-3" points="2367.627 995.038 2365.289 1020.073 2357.888 1097.132 2357.498 1101.435 1534.366 1101.435 1608.772 1023.202 1618.121 1002.862 1618.121 985.259 1685.125 985.259 1694.474 977.827 1722.132 971.177 2034.167 895.682 2043.906 893.335 2089.094 882.383 2089.094 882.383 2096.106 880.818 2096.106 880.818 2191.937 857.739 2228.166 848.743 2262.057 840.528 2277.639 889.033 2310.752 889.033 2346.201 955.14 2352.045 966.092 2367.627 995.038"/>
        <path class="cls-4" d="M2352.045,966.092l-5.844-10.953-35.449-66.5H2277.64l-15.583-48.113-39.734-12.908h0l-2.727-9.388-14.414-52.025-58.044,5.867-37.787,3.912-99.726,10.17-149.979,15.256-4.286,17.993-3.506,15.647,40.514-7.432h0L2009.625,806.5v4.3l-194.778,48.113-7.4,22.3-49.863-1.173,46.747,9.779-2.727,8.606-25.711-1.565-18.309,51.634,29.217-5.477-.39.783h0l-28.827,4.694-30.386,5.085-1.168,3.52-31.944,20.341-9.349,7.823h-67v17.211l-9.349,20.341-74.4,78.233H2357.5l.39-4.3,7.012-77.059,2.337-24.644ZM1946.906,836.225l62.719-14.082,56.1-12.517,15.972,9-134.787,19.949Z"/>
        <path class="cls-5" d="M2262.057,840.528l-26.879,11.735-5.454,2.347-82.586,36.379v5.476l-10.908,3.911-417.214,79.016-12.856,2.347-11.686-4.3,31.943-20.341,60.382-13.3h0l371.636-82.536h0l1.948-.391h1.168c.39,0,.78,0,.78-.391l1.168-.392c.779,0,1.169-.391,1.948-.391l1.169-.391h.389l1.169-.391a1.426,1.426,0,0,0,1.168-.391c.779,0,1.169-.392,1.948-.392l1.169-.391,1.947-.391c.78-.391,1.948-.391,2.727-.782a1.427,1.427,0,0,0,1.169-.391h.39l1.558-.392,2.337-.391,3.116-.782c.39,0,1.169-.391,1.559-.391l2.337-.391h.779l1.559-.392h.779l1.558-.391h.779c.39,0,1.169-.391,1.558-.391l15.193-3.52,1.169-.392,5.064-1.173,1.169-.391,7.791-1.565-5.064-18.776h0Z"/>
        <path class="cls-4" d="M1932.493,939.1s-.39,5.476-1.558,14.864h0c-.39,2.347-.39,4.694-.78,7.432l-272.689,68.845-20.646,5.476s-1.948,6.65-4.675,15.256v.391c-4.285,13.691-10.129,33.249-12.855,43.028v.391c-1.169,3.912-1.948,6.65-1.559,6.65h321.774c22.984,0,38.566-.782,38.566-.782l.389-3.912.39-3.129,5.454-70.41,1.168-14.082,8.571.391,22.594-74.321,3.895-12.126Zm-3.117,35.987c-.779,10.17-1.947,21.9-3.116,34.031l-208.8,42.246Z"/>
        <polygon class="cls-6" points="1618.121 985.259 1637.209 1035.719 1930.545 961.398 1788.747 992.691 1770.437 993.865 1699.538 1002.862 1685.125 985.259 1618.121 985.259"/>
        <polygon class="cls-7" points="1629.808 1047.846 1606.824 1096.35 1604.486 1101.435 1534.366 1101.435 1608.772 1023.202 1629.808 1047.846"/>
        <polygon class="cls-8" points="1717.458 1101.435 1717.458 1050.975 1929.376 975.089 1715.51 1047.454 1712.004 1052.539 1717.458 1101.435"/>
      </g>
      <path class="cls-8" d="M1907.951,917.588s40.514.391,48.694-3.521-20.257-3.129-20.257-3.129,148.421-6.259,184.26-24.643c35.45-17.994-46.357-10.171-46.357-10.171Z"/>
      <g>
        <path class="cls-9" d="M1936.388,910.938l-28.437,6.65a39.766,39.766,0,0,1-5.454-3.912h0c-1.948-1.956-3.9-4.3-3.506-6.65.39-5.085,8.57,3.521,8.96,3.912-.39-.782-14.414-19.558,1.558-20.341,13.245-.391,19.867,4.3,23.373,9.388,0,.391.39.391.39.783.389.782.779,1.173.779,1.955A19,19,0,0,1,1936.388,910.938Z"/>
        <path class="cls-10" d="M1936.388,910.938l-28.437,6.65a39.766,39.766,0,0,1-5.454-3.912h0s36.618,1.565,31.554-10.953A19,19,0,0,1,1936.388,910.938Z"/>
      </g>
      <path class="cls-8" d="M2360.615,1073.662l-2.337,23.47-.39,4.3H1538.651l68.562-5.085h0l22.6-48.9,2.727,3.521v.391l-12.856,43.028v.391l97.389,3.13h0l.39-14.865,261.781,10.562s-2.337,2.738-.389,3.129h.389c2.338,0,43.631,1.565,48.305,1.565h.39l.39-13.3,1.947-59.457,12.856-79.015h0l-8.571,80.189-.779,70.409,40.9-1.173-1.559-31.293h0l5.454,29.337,100.895,3.912h0l-2.337-13.3h.779l79.859,3.129v7.432l34.281-.782L2286.6,982.521h1.948l3.895,55.937,3.9,56.327,55.317-2.738Z"/>
      <path class="cls-8" d="M1737.325,1021.246c.39,0-18.309-25.425-18.309-25.425L1732.261,979l-9.739,16.428,17.53,24.644Z"/>
    </g>
    <g>
      <polygon class="cls-11" points="392.128 1107.346 -140.395 1107.346 -185.194 939.537 -178.182 908.243 -104.945 948.142 134.632 1009.555 173.198 1000.949 173.198 1033.025 243.708 1022.072 261.627 992.344 335.643 992.344 335.643 992.344 387.064 1096.394 392.128 1107.346"/>
      <polygon class="cls-12" points="173.198 1000.949 134.632 1009.555 -104.945 948.142 -178.182 908.243 -150.913 908.243 -150.913 886.729 -199.607 697.014 -199.607 678.63 -176.234 678.63 -270.117 390.733 149.825 347.313 166.186 414.202 140.865 794.023 157.226 805.367 158.784 997.429 158.784 997.82 158.784 1000.949 173.198 1000.949"/>
      <path class="cls-4" d="M387.064,1096.394h0l-51.421-104.05H261.627l-17.919,29.728-70.121,11.344v-32.075l-38.566,8.605-239.577-61.413-5.064,8.606L-184.8,939.928l44.409,167.418H392.128Z"/>
      <polygon class="cls-13" points="173.198 1000.949 134.632 1009.555 -104.945 948.142 -178.182 908.243 -150.913 908.243 -90.921 928.975 -90.921 928.975 72.692 984.912 158.784 997.82 173.198 1000.949"/>
      <polygon class="cls-14" points="335.643 992.344 300.583 1038.892 250.33 1025.593 261.627 992.344 335.643 992.344"/>
      <polygon class="cls-15" points="-74.949 994.3 104.246 1021.29 110.479 1025.593 -82.351 1004.861 -74.949 994.3"/>
      <path class="cls-4" d="M121,1089.353l-10.518-63.76-192.83-20.732,19.478,44.593h0l23.373,52.807,2.338,5.085H42.7l-1.948-5.476-18.7-52.807,56.875,3.129h2.727l4.285,54.763h37.4Z"/>
      <polygon class="cls-16" points="-136.889 570.668 -111.568 700.535 -87.026 709.141 -87.026 689.582 -82.351 684.106 26.725 688.409 33.347 546.025 -136.889 570.668"/>
      <polygon class="cls-17" points="21.271 1038.892 79.315 1049.063 82.042 1052.583 22.44 1049.454 21.271 1038.892"/>
      <polygon class="cls-4" points="261.627 992.344 250.33 1025.593 247.993 1045.542 242.149 1101.088 241.76 1107.346 123.724 1107.346 120.997 1089.353 110.479 1025.593 134.632 1051.018 134.632 1009.555 173.198 1000.949 173.198 1033.025 243.708 1022.072 261.627 992.344"/>
      <path class="cls-4" d="M90.612,820.231,91,812.8l51.031-17.993-1.168-.783L166.186,414.2l-16.362-66.889-24.542,11.735-17.14,8.215-1.948.391-127.385,3.911H-33.656L13.09,390.733-39.5,403.25h0l-61.55-18.776,49.084,21.905-47.915,11.735-7.012,1.565-163.224-29.338,93.883,287.9h-23.373v18.385l48.694,189.715v21.514l59.992,20.732h0L72.692,984.912l86.092,12.908v-.391l-1.947-192.062ZM-91.7,564.018l-2.338.392-2.337.391-40.514,5.867h-17.14l39.734-8.605,5.065-1.174,15.192-3.129,15.972-3.521,10.518-2.347,28.827-6.258,15.583-3.521,60.77,3.13-4.285.782-73.236,10.561L-67.937,560.5l-10.129,1.565ZM32.958,699.361l-4.675-.391-115.309-9.388,4.675-5.476,109.076,4.3,5.064.391h2.727l26.49,1.174,21.036,13.69ZM86.327,503.779,37.632,518.643l-59.6-2.347L29.062,503h59.6Z"/>
      <path class="cls-4" d="M392.128,1107.346H300.972v-3.129c-1.168-23.47-1.947-61.413-1.947-61.413l36.228-50.46h0l51.422,104.05h0Z"/>
      <polygon class="cls-18" points="157.226 805.367 152.551 803.802 114.375 792.459 105.026 789.72 88.664 784.635 87.885 784.244 -38.331 745.91 -108.841 716.573 -114.295 714.226 -150.134 699.361 -199.607 678.63 -176.234 678.63 -111.568 700.535 -87.026 709.141 -83.909 710.314 -34.436 727.134 75.419 768.989 89.054 774.074 105.415 780.332 115.154 784.244 140.865 794.023 152.551 802.238 157.226 805.367"/>
      <polygon class="cls-4" points="157.226 805.367 158.784 997.429 138.138 994.3 140.865 971.221 134.632 938.363 133.853 973.177 138.527 973.568 138.138 994.3 72.692 984.912 -90.921 928.975 -151.692 908.243 -150.913 908.243 -150.913 894.161 -124.813 901.202 -150.134 699.361 -114.295 714.226 -108.841 716.573 -30.93 749.039 -13.01 948.142 -8.335 912.546 -2.492 912.546 -2.492 936.016 3.351 939.145 21.271 781.115 74.64 792.459 70.355 970.83 75.419 970.83 92.949 789.72 88.664 784.635 75.419 768.989 79.704 727.134 79.704 725.569 82.042 703.273 61.006 689.582 34.905 688.409 32.179 688.409 26.725 688.409 29.062 639.513 37.632 634.428 37.632 518.643 85.937 502.997 86.327 503.779 102.299 536.637 96.845 586.315 111.648 458.013 33.347 476.789 112.427 451.754 112.817 448.234 125.282 359.048 149.825 347.313 166.186 414.202 154.11 592.182 140.865 794.023 152.551 802.238 157.226 805.367"/>
      <polygon class="cls-8" points="28.283 698.97 54.383 727.134 79.704 727.134 79.704 725.569 53.994 725.569 32.958 699.361 34.905 688.409 32.179 688.409 28.283 698.97"/>
      <polygon class="cls-8" points="392.128 1107.346 86.327 1107.346 86.327 1107.346 79.704 1052.583 79.315 1049.063 89.833 1098.741 131.905 1103.826 135.8 1087.006 134.632 1051.018 173.198 1033.025 138.527 1074.097 138.527 1103.826 237.864 1104.999 242.149 1101.088 301.362 1104.217 328.241 1100.696 310.322 1031.851 327.073 1073.706 348.109 1100.305 387.064 1096.394 387.064 1096.394 392.128 1107.346"/>
      <polygon class="cls-8" points="86.327 1107.346 -140.395 1107.346 -98.323 1102.652 -110.009 956.748 -104.945 948.142 -78.066 1101.479 -39.11 1102.261 -62.484 1049.454 -34.046 1100.696 14.259 1102.652 9.195 1088.57 11.532 1087.788 21.271 1101.87 41.138 1101.87 85.548 1101.479 86.327 1107.346"/>
      <path class="cls-19" d="M179.82,1032.243l-5.064,9s64.277-3.911,64.277-4.694,3.116-14.473,3.116-14.473Z"/>
      <polygon class="cls-20" points="74.64 794.023 -10.283 792.85 -24.307 771.727 74.64 792.459 74.64 794.023"/>
      <polygon class="cls-21" points="13.09 390.341 1.793 449.798 28.283 370.001 -34.046 371.565 13.09 390.341"/>
      <polygon class="cls-22" points="157.226 805.367 142.033 794.806 143.592 794.023 157.226 805.367"/>
      <polygon class="cls-8" points="-24.307 771.727 -13.01 948.142 -28.982 767.033 15.428 779.941 -24.307 771.727"/>
      <polygon class="cls-8" points="117.102 991.561 133.463 876.95 136.19 876.95 133.853 973.177 138.527 973.568 138.138 994.3 117.102 991.561"/>
      <polygon class="cls-23" points="110.09 655.16 105.415 780.332 89.054 774.074 103.467 654.377 110.09 655.16"/>
      <polygon class="cls-23" points="154.11 592.182 140.865 794.023 115.154 784.244 118.66 746.692 126.062 746.692 138.527 592.182 154.11 592.182"/>
      <path class="cls-24" d="M20.492,506.517s-1.169-13.3,7.012-14.473c2.337-.391,1.948,5.085,1.948,5.085s1.168-3.911,1.558-3.911-.39,12.126-.39,12.126l8.571-1.956s-5.844-26.6-1.948-28.946c4.285-2.347,5.843,21.9,5.843,21.9s1.558-7.432,2.727-7.432-1.169,14.473-1.169,14.473Z"/>
    </g>
  </g>
</svg>
