<svg xmlns="http://www.w3.org/2000/svg" xmlns:xlink="http://www.w3.org/1999/xlink" width="935.988mm" height="661.81mm" viewBox="0 0 2653.196 1875.997">
  <defs>
    <style>
      .cls-1 {
        fill: #97d5ec;
      }

      .cls-2 {
        fill: url(#Unbenannter_Verlauf_88);
      }

      .cls-3 {
        fill: url(#Unbenannter_Verlauf_13);
      }

      .cls-4 {
        fill: url(#Unbenannter_Verlauf_11);
      }

      .cls-5 {
        fill: #56707a;
      }

      .cls-6 {
        fill: url(#Unbenannter_Verlauf_36);
      }

      .cls-7 {
        fill: url(#Unbenannter_Verlauf_36-2);
      }

      .cls-8 {
        fill: url(#Unbenannter_Verlauf_36-3);
      }

      .cls-9 {
        fill: url(#Unbenannter_Verlauf_36-4);
      }

      .cls-10 {
        fill: url(#Unbenannter_Verlauf_40);
      }

      .cls-11 {
        fill: url(#Unbenannter_Verlauf_36-5);
      }

      .cls-12 {
        fill: url(#Unbenannter_Verlauf_36-6);
      }

      .cls-13 {
        fill: url(#Unbenannter_Verlauf_36-7);
      }

      .cls-14 {
        fill: url(#Unbenannter_Verlauf_36-8);
      }

      .cls-15 {
        fill: url(#Unbenannter_Verlauf_36-9);
      }

      .cls-16 {
        fill: url(#Unbenannter_Verlauf_36-10);
      }

      .cls-17 {
        fill: url(#Unbenannter_Verlauf_36-11);
      }

      .cls-18 {
        fill: url(#Unbenannter_Verlauf_36-12);
      }

      .cls-19 {
        fill: url(#Unbenannter_Verlauf_36-13);
      }

      .cls-20 {
        fill: #f0f9fc;
      }

      .cls-21 {
        fill: #fff;
      }

      .cls-22 {
        fill: #c1d8dd;
      }
    </style>
    <linearGradient id="Unbenannter_Verlauf_88" data-name="Unbenannter Verlauf 88" x1="1620.894" y1="2621.285" x2="1393.099" y2="1113.122" gradientUnits="userSpaceOnUse">
      <stop offset="0" stop-color="#496873"/>
      <stop offset="0.635" stop-color="#6c7d83"/>
      <stop offset="1" stop-color="#7b868a"/>
    </linearGradient>
    <linearGradient id="Unbenannter_Verlauf_13" data-name="Unbenannter Verlauf 13" x1="1407.546" y1="-55.078" x2="1448.895" y2="606.494" gradientUnits="userSpaceOnUse">
      <stop offset="0" stop-color="#496873"/>
      <stop offset="0" stop-color="#919ea3"/>
    </linearGradient>
    <linearGradient id="Unbenannter_Verlauf_11" data-name="Unbenannter Verlauf 11" x1="87.654" y1="564.355" x2="2444.579" y2="530.477" gradientUnits="userSpaceOnUse">
      <stop offset="1" stop-color="#496873"/>
      <stop offset="1" stop-color="#7b868a"/>
    </linearGradient>
    <linearGradient id="Unbenannter_Verlauf_36" data-name="Unbenannter Verlauf 36" x1="1960.404" y1="-6151.674" x2="1980.766" y2="-6075.318" gradientTransform="matrix(1, 0, 0, -1, -192.638, -5443.582)" gradientUnits="userSpaceOnUse">
      <stop offset="0" stop-color="#496873"/>
      <stop offset="1" stop-color="#7b868a"/>
    </linearGradient>
    <linearGradient id="Unbenannter_Verlauf_36-2" x1="1988.331" y1="-5712.896" x2="1991.355" y2="-5701.551" xlink:href="#Unbenannter_Verlauf_36"/>
    <linearGradient id="Unbenannter_Verlauf_36-3" x1="2653.227" y1="-6285.139" x2="2673.588" y2="-6208.783" xlink:href="#Unbenannter_Verlauf_36"/>
    <linearGradient id="Unbenannter_Verlauf_36-4" x1="2691.198" y1="-5825.279" x2="2693.298" y2="-5817.404" xlink:href="#Unbenannter_Verlauf_36"/>
    <linearGradient id="Unbenannter_Verlauf_40" data-name="Unbenannter Verlauf 40" x1="-944.099" y1="-5641.654" x2="-966.342" y2="-6327.795" gradientTransform="translate(167.551 -5443.582) rotate(180)" gradientUnits="userSpaceOnUse">
      <stop offset="0" stop-color="#496873"/>
      <stop offset="0.763" stop-color="#56707a"/>
      <stop offset="1" stop-color="#798489"/>
      <stop offset="1" stop-color="#7b868a"/>
    </linearGradient>
    <linearGradient id="Unbenannter_Verlauf_36-5" x1="-968.832" y1="-6150.955" x2="-948.47" y2="-6074.598" gradientTransform="translate(167.551 -5443.582) rotate(180)" xlink:href="#Unbenannter_Verlauf_36"/>
    <linearGradient id="Unbenannter_Verlauf_36-6" x1="-940.709" y1="-5712.275" x2="-937.685" y2="-5700.93" gradientTransform="translate(167.551 -5443.582) rotate(180)" xlink:href="#Unbenannter_Verlauf_36"/>
    <linearGradient id="Unbenannter_Verlauf_36-7" x1="-275.813" y1="-6284.518" x2="-255.452" y2="-6208.162" gradientTransform="translate(167.551 -5443.582) rotate(180)" xlink:href="#Unbenannter_Verlauf_36"/>
    <linearGradient id="Unbenannter_Verlauf_36-8" x1="-237.841" y1="-5824.657" x2="-235.742" y2="-5816.783" gradientTransform="translate(167.551 -5443.582) rotate(180)" xlink:href="#Unbenannter_Verlauf_36"/>
    <linearGradient id="Unbenannter_Verlauf_36-9" x1="1420.804" y1="1021.115" x2="1420.537" y2="1018.428" gradientTransform="matrix(1.276, -0.143, 0.117, 1.046, 453.931, -1.874)" xlink:href="#Unbenannter_Verlauf_36"/>
    <linearGradient id="Unbenannter_Verlauf_36-10" x1="1654.406" y1="1416.379" x2="1589.508" y2="764.909" gradientTransform="matrix(1.276, -0.143, 0.117, 1.046, 453.931, -1.874)" xlink:href="#Unbenannter_Verlauf_36"/>
    <linearGradient id="Unbenannter_Verlauf_36-11" x1="970.764" y1="1274.463" x2="915.084" y2="715.527" gradientTransform="matrix(1.276, -0.143, 0.117, 1.046, 453.931, -1.874)" xlink:href="#Unbenannter_Verlauf_36"/>
    <linearGradient id="Unbenannter_Verlauf_36-12" x1="1173.788" y1="1806.026" x2="1075.371" y2="818.083" gradientTransform="matrix(1.276, -0.143, 0.117, 1.046, 453.931, -1.874)" xlink:href="#Unbenannter_Verlauf_36"/>
    <linearGradient id="Unbenannter_Verlauf_36-13" x1="307.751" y1="-6073.791" x2="148.744" y2="-7669.966" gradientTransform="translate(918.855 -5443.582) rotate(180)" xlink:href="#Unbenannter_Verlauf_36"/>
  </defs>
  <g id="Bild">
    <rect class="cls-1" x="-735.522" y="-329.242" width="4197.913" height="1108.174"/>
    <g id="Damm">
      <g>
        <path class="cls-2" d="M6.391,616.149c148.881-50.33,282.328-87.785,394.435-115.826,173.105-43.3,307.251-66.561,353.739-75.131a3603.3,3603.3,0,0,1,391.3-50.087c137.77-10.036,242.929-9.778,328.7-9.391,109.8.5,245.025,1.322,419.478,18.783,91.27,9.135,238.937,24.433,428.87,68.869,253.64,59.341,416.215,131.7,457.043,150.261,37.981,17.263,69.121,32.739,90.783,43.826q-61.044,684-122.087,1368l-2776.7-62.609Q-10.826,1284.5,6.391,616.149Z"/>
        <path class="cls-3" d="M3130.369,614.4c-368.8-204.106-924.876-355.2-1680.981-353.852h0c-703.945,0-1312.184,149.73-1680.981,353.836l167.776,48.262C340.7,455.677,804.365,361.883,1319.863,351.431l-2.552,1.553h.773q66.828-2.056,132.578-2.43,64.506.41,130.03,2.413h.774l-2.5-1.519C2094.445,361.906,2558.1,455.7,2962.594,662.662Z"/>
        <path class="cls-4" d="M1492.309,350.876c-584.95-9.187-1107,82.01-1556.126,311.806l6.185,55.3c10.825-6.032,22.422-12.065,34.019-18.1,405.5-216.758,883.947-302.346,1406.044-311.314,576.255-4.481,1103.887,76.067,1545.135,311.936,11.6,6.032,23.194,12.065,34.018,18.1l6.186-55.3C2539.392,444.124,2044.671,351.038,1492.309,350.876Z"/>
        <polygon class="cls-5" points="1731.488 236.993 1739.22 611.02 1838.184 621.074 1845.915 237.998 1731.488 236.993"/>
        <polygon class="cls-6" points="1845.915 237.998 1883.027 214.873 1878.342 367.328 1860.538 365.763 1858.239 406.703 1876.728 408.415 1838.184 621.074 1845.915 237.998"/>
        <polygon class="cls-7" points="1845.915 237.998 1731.488 236.993 1773.239 211.857 1883.027 214.873 1845.915 237.998"/>
        <polygon class="cls-5" points="2437.382 354.63 2429.651 724.636 2530.935 754.799 2538.666 371.723 2437.382 354.63"/>
        <polygon class="cls-8" points="2538.666 371.723 2575.778 348.598 2571.13 501.105 2553.457 495.758 2552.348 541.932 2570.087 548.062 2530.935 754.799 2538.666 371.723"/>
        <polygon class="cls-9" points="2538.666 371.723 2437.382 354.63 2479.133 329.494 2575.778 348.598 2538.666 371.723"/>
        <polygon class="cls-10" points="1058.037 237.377 1065.769 620.453 1164.733 610.398 1172.465 236.371 1058.037 237.377"/>
        <polygon class="cls-11" points="1065.965 620.355 1027.891 407.877 1045.862 406.194 1045.174 365.192 1026 366.627 1021.121 214.154 1058.233 237.279 1065.965 620.355"/>
        <polygon class="cls-12" points="1020.926 214.252 1130.714 211.235 1172.465 236.371 1058.037 237.377 1020.926 214.252"/>
        <polygon class="cls-5" points="365.287 371.101 373.018 754.178 474.302 724.014 466.571 354.009 365.287 371.101"/>
        <polygon class="cls-13" points="373.018 754.178 334.028 547.325 351.522 541.605 349.761 495.236 331.957 500.714 328.175 347.976 365.287 371.101 373.018 754.178"/>
        <polygon class="cls-14" points="328.175 347.976 424.82 328.873 466.571 354.009 365.287 371.101 328.175 347.976"/>
      </g>
      <g>
        <g>
          <path class="cls-15" d="M2386.8,863.113c.039-1.3.046-1.973.046-1.973S2386.826,861.8,2386.8,863.113Z"/>
          <path class="cls-16" d="M2741.1,884.071a788.975,788.975,0,0,0-79.019-11.661c3.158-30.586,4.074-57.682,5.467-80.513,1.606-44.449,2.4-72.611,2.4-72.611s-.916,27.1-5.123,71.836c-1.393,22.831-5.03,49.152-8.189,79.738-2.721-.775-6.623-.338-9.345-1.112-37.259-3.384-70.378-5.072-95.572-6.567-25.074-.43-39.5.107-39.5.107s14.667,1.6,39.861,3.092c23.893,1.642,57.251,5.462,94.511,8.845,2.721.775,6.623.338,9.345,1.113-3.517,27.387-6.676,57.973-12.317,89.918-10.8,68.154-22.444,128.844-33.275,173.246-9.53,44.257-17.07,71.016-17.07,71.016s8.84-26.9,20.972-71.453a1417.715,1417.715,0,0,0,35.877-173.538c4.341-31.8,8.92-61.464,11.017-89.772,30.636,3.045,58.67,6.383,78.78,9.528,24.132,3.775,38.919,6.437,38.919,6.437S2763.927,887.991,2741.1,884.071Z"/>
          <path class="cls-17" d="M1573.231,1076.778q12.607.089,25.09.122c91.073,1.673,173.039,4.366,240.577,7.6,19.871,1.012,39.742,2.025,57.011,3.329,1.209,22.539,2.642,35.335,2.642,35.335s-.133-12.942.079-34.56c11.947.821,22.593,1.787,33.119,1.688,27.8,1.2,50.387,2.992,70.258,4,38.442,2.171,59.733,4.1,59.733,4.1s-21.291-1.933-59.852-5.171c-18.57-1.158-42.583-3.866-69.078-5.217-10.645-.967-21.291-1.933-33.238-2.754-.16-36.693-.107-95-2.431-162.767-3.081-109.788-9.1-198.731-9.1-198.731s-.489,89.672,2.592,199.46c2.2,66.7,4.873,125.782,7.635,162.184-17.269-1.3-37.14-2.317-57.012-3.33-68.958-4.15-149.743-8.055-240.815-9.728q-13.806-.335-27.783-.639Z"/>
          <path class="cls-18" d="M2351.207,1248.437c.942-3.344,1.885-6.689,1.526-9.888,18.688-103.589,27.806-198.547,30.686-266.893,1.5-33.64,2.3-61.8,2.746-81.288q.5-21.645.631-27.255c-.117,3.906-.528,13.47-1.932,27.4-.451,19.486-2.667,46.728-5.468,80.513-5.481,68.637-16.019,162.675-34.707,266.264-.942,3.344-1.885,6.689-1.526,9.888-45.543-6.774-77.361-8.608-77.361-8.608s30.875,5.179,76.538,13.019c-13.047,71.645-28.112,137.037-42.951,192.686-5.323-.483-16.089-2.516-32.176-5.033-22.832-3.92-56.309-8.806-97.71-13.885-42.822-6-93.448-11.124-149.4-16.732a54.756,54.756,0,0,0,.226-9.743,60.189,60.189,0,0,0-1.527,9.889c-43.883-3.721-90.488-8.217-140.876-11.209a3.514,3.514,0,0,1,.942-3.345c4.911-50.218,6.4-95.732,6.715-128.16s.65-52.98.65-52.98-1.633,20.7-3.252,53.271-5.706,78.381-9.436,127.386a3.513,3.513,0,0,1-.942,3.345c-9.226-.046-18.57-1.158-27.8-1.2-86.368-4.829-167-6.4-236.494-5.976l.532,4.748c69.585.566,150.9,2.611,237.98,7.48,9.225.046,18.57,1.158,27.8,1.2-3.968,46.873-8.533,88.415-11.692,119-4.221,32.865-5.973,52.5-5.973,52.5s4.354-19.923,8.575-52.788c4.459-30.732,10.326-72.419,14.414-118.225,49.087,3.137,96.872,6.421,140.756,10.142-.7,5.477-1.407,10.955-1.871,18.565-2.933,20.843-6.45,48.231-12.091,80.175-5.761,30.878-10.459,59.477-14.813,79.4s-6.822,33.157-6.822,33.157,3.889-12.313,10.845-32.528a814.428,814.428,0,0,0,18.715-79.837,488.6,488.6,0,0,0,8.188-79.738c.465-7.611,1.049-14.154.571-18.42,55.83,4.542,106.457,9.667,149.159,14.6,41.4,5.078,74.759,8.9,97.59,12.819,16.088,2.516,28.035,3.338,32.057,3.967-5.655,20.068-10.128,38.925-16.021,56.861-9.424,33.448-18.264,60.352-24.038,79.355s-8.6,29.036-8.6,29.036,4.128-10.18,9.9-29.182c7.194-18.082,16.034-44.986,25.458-78.434,19.207-63.7,43.709-150.661,61.694-248.772,16.088,2.516,34.9,5.807,53.825,10.164,75.357,14.232,136.045,26.867,136.045,26.867a1337.674,1337.674,0,0,0-134.04-32.49C2386.1,1254.245,2367.3,1250.954,2351.207,1248.437Z"/>
        </g>
        <path class="cls-19" d="M1065.3,1813.726s-6.707-51.522-11.738-115.311-7.546-116.538-7.546-116.538,6.708,51.522,11.738,115.311S1065.3,1813.726,1065.3,1813.726ZM199.218,1454.3a684.323,684.323,0,0,0-83,53.975s37.728-22.08,84.68-47.841a361.864,361.864,0,0,1,33.536-18.4c18.445,109.177,40.244,204.861,57.012,274.784,8.384,36.8,15.93,66.242,21.8,85.87,5.03,20.854,8.384,31.895,8.384,31.895s-2.515-11.041-7.546-31.895-12.576-50.295-20.96-87.1c-5.031-19.627-9.223-40.482-14.253-62.562,2.515-1.227,10.061-3.681,20.122-8.588,14.253-7.36,35.213-15.947,61.2-26.987,26.829-11.041,58.689-23.308,93.9-35.575,0,4.907.839,12.267,1.677,20.854,1.677,23.308,5.03,55.2,10.9,89.55,5.869,35.575,12.576,66.243,17.607,88.324,5.869,22.081,9.223,35.575,9.223,35.575s-2.516-14.721-6.708-36.8-9.222-53.976-15.091-88.324c-5.869-35.574-10.061-66.242-13.415-89.55-.838-8.587-1.676-14.72-2.515-20.854,27.668-9.813,57.851-19.627,88.872-29.441,5.869,51.522,12.576,98.137,17.607,132.485,5.03,36.8,9.222,58.882,9.222,58.882s-2.515-22.08-7.545-58.882c-4.192-34.348-10.061-80.963-15.93-133.712,5.869-1.227,11.738-3.68,17.607-4.907a1942.436,1942.436,0,0,1,208.764-50.3c15.092-3.68,28.506-4.907,40.244-7.36,5.031,49.068,10.061,94.457,14.253,132.485,5.031,41.708,9.223,76.056,12.576,99.364s5.031,36.8,5.031,36.8-1.677-13.494-4.192-36.8c-3.354-23.308-7.546-57.656-11.738-99.364q-6.288-57.042-12.576-132.485,11.319-1.841,20.122-3.68c15.091-2.454,23.475-3.68,23.475-3.68s-8.384,1.226-23.475,2.453c-5.869,1.227-12.576,1.227-20.122,2.454-5.031-60.109-10.061-126.352-14.253-196.275-3.354-57.655-5.869-112.857-7.546-164.379,29.345-6.134,60.366-12.267,91.387-17.174,67.073-11.041,130.793-19.628,189.482-25.761,32.7-3.681,63.719-6.134,92.225-8.587-1.677,62.562-1.677,137.392,0,217.128,2.515,114.085,10.061,217.129,16.768,290.732,3.354,36.8,6.708,66.242,9.223,87.1,1.676,20.854,3.353,31.894,3.353,31.894s-1.676-11.04-3.353-31.894-5.031-51.522-7.546-88.324c-5.869-73.6-11.738-176.647-15.091-290.732-2.516-79.736-2.516-153.339-1.677-217.128,20.96-1.227,41.082-2.453,59.527-3.68,21.8-1.227,41.921-1.227,59.528-2.454a125.048,125.048,0,0,1,20.96-1.227v19.628c-.839,95.684,1.677,182.78,3.354,246.57,2.515,62.562,4.192,101.817,4.192,101.817s0-38.028-1.677-101.817c-.839-62.563-1.677-149.66-.839-246.57V1064.2h0c.839-88.323,2.516-166.833,4.192-225.715,1.677-62.562,3.354-101.817,3.354-101.817s-2.515,39.254-5.031,101.817c-2.515,57.655-5.03,137.392-5.868,225.715H1291.67c-17.606,0-37.728,0-59.527,1.227-18.445,0-38.567,1.227-59.527,2.454.838-24.535.838-49.069,1.676-69.923.839-36.8,1.677-67.47,2.516-88.324s1.677-31.895,1.677-31.895-.839,11.041-1.677,31.895-2.516,51.522-4.192,88.324c-.839,22.081-1.677,45.388-2.516,71.149q-44.016,3.681-93.063,7.36c-57.851,6.134-122.409,13.494-189.482,24.535-31.021,4.907-61.2,11.04-90.548,17.174-2.515-61.336-3.354-116.538-3.354-161.927V818.86s0,13.494-.838,36.8-1.677,57.656-1.677,100.591c0,45.389,0,100.591,1.677,161.927-32.7,6.133-63.72,13.494-93.9,20.854-57.85,13.494-108.993,28.214-152.591,41.708-12.576,3.68-25.152,7.361-36.052,11.041-.838-41.709-3.353-109.178-6.707-185.234-5.869-125.126-12.576-226.943-12.576-226.943s2.515,101.817,8.384,226.943c3.354,77.283,7.546,143.525,10.061,185.234-7.546,2.453-14.253,4.906-20.96,7.36-16.768,4.907-31.86,11.041-43.6,14.721-24.314,8.587-37.728,13.494-37.728,13.494s13.414-4.907,37.728-12.267c12.576-3.681,26.829-8.588,44.436-13.494,6.707-1.227,13.415-3.68,20.96-6.134,1.677,24.534,2.515,39.255,2.515,39.255s0-14.72-.838-40.481c10.9-3.68,23.475-7.361,36.052-11.041,42.759-12.267,94.74-25.761,152.591-39.255,30.183-6.133,61.2-13.494,93.9-19.627,1.677,51.521,3.354,106.724,6.707,164.379,4.193,71.15,9.223,137.393,15.092,196.275-11.738,2.453-25.153,3.68-40.244,6.133-54.5,7.36-128.277,22.081-209.6,46.615-5.869,1.227-11.738,3.68-17.607,4.907a5.955,5.955,0,0,1-.838-3.68c-5.869-55.2-11.738-106.724-15.092-143.526s-5.869-60.109-5.869-60.109,1.677,23.308,4.192,60.109,6.708,88.324,13.415,144.753a5.95,5.95,0,0,1,.839,3.68c-31.86,9.813-61.2,20.854-88.872,30.668-.839-7.361-1.677-11.041-1.677-11.041a109.93,109.93,0,0,0,.838,11.041c-35.213,13.493-67.073,25.761-93.9,38.028-25.991,11.04-46.951,20.854-61.2,28.214-10.061,4.907-16.768,8.587-20.122,9.814-13.415-61.336-27.668-133.712-41.082-213.449,28.506-14.72,47.789-24.534,47.789-24.534s-20.121,6.134-48.627,19.628a50.329,50.329,0,0,0-1.677-11.041c-19.284-115.311-32.7-220.809-41.082-298.091-4.193-38.029-7.546-68.7-9.223-90.777-2.515-20.855-3.354-33.122-3.354-33.122s.839,11.041,2.515,33.122,4.193,53.975,7.546,92c6.708,77.283,19.284,184.008,38.567,299.319a50.321,50.321,0,0,0,1.677,11.04A266.8,266.8,0,0,0,199.218,1454.3ZM-39.73,1071.563c12.576-6.133,30.183-13.494,49.466-20.854,3.354,31.895,8.385,65.016,13.415,100.591,10.9,76.056,24.314,143.526,35.214,192.594S76.81,1422.4,76.81,1422.4s-6.707-29.441-15.93-78.51c-10.061-49.068-21.8-116.538-33.537-192.594-5.869-35.575-10.061-69.923-14.253-100.591,1.677-1.227,4.192-1.227,5.869-2.454,23.476-8.586,44.436-17.173,59.528-22.08,15.93-4.907,25.152-8.587,25.152-8.587s-9.222,1.226-25.152,4.906c-15.93,4.907-36.891,11.041-60.366,19.628-1.677,1.227-4.192,1.227-5.869,2.453-4.192-34.347-8.384-63.789-10.9-89.55-5.869-50.295-8.385-80.963-8.385-80.963s2.516,31.895,6.708,82.19c2.515,25.761,5.03,56.429,9.222,90.777a346.666,346.666,0,0,0-49.466,23.308c-14.253,7.36-23.475,13.493-23.475,13.493S-54.821,1078.924-39.73,1071.563Z"/>
      </g>
    </g>
    <g>
      <g>
        <path class="cls-20" d="M2000.338,110.161c3.3,6.514,16.5,4.343,21.781,4.343,6.6,0,13.2.723,19.8-.724,9.24-1.448,15.841-4.343,25.081.724a50.065,50.065,0,0,0,23.1,5.789c13.86,8.685,32.341,11.58,44.881,13.028s27.061,2.171,39.6-1.448c9.241-2.895,16.5-6.513,22.441-13.027,15.18,9.409,34.321,12.3,50.822,13.751,13.2.724,27.061.724,39.6-3.619a93.316,93.316,0,0,0,14.521-7.237,92.858,92.858,0,0,0,30.361,7.237,111.93,111.93,0,0,0,40.921-2.9c9.24-2.171,16.5-4.342,21.781-12.3,3.3,5.79,12.54,7.961,18.48,7.237,4.62,0,8.58-3.619,11.881-7.237,4.62-6.514,3.96,0,8.58,3.618,9.9,8.685,21.78,15.2,34.321,15.2,9.9,0,25.081-1.447,31.681-10.856,3.3-4.343,3.96-5.066,7.92-1.448,1.98,1.448,3.96,3.619,6.6,5.067A48.453,48.453,0,0,0,2531,132.6c11.88,3.619,25.081,2.895,36.961.724,8.58-1.448,19.8-4.343,28.381-10.133,4.62,2.172,9.24,2.895,13.2,4.343,11.22,2.895,21.78,5.79,33.661,5.066,8.58-.724,32.341-7.961,29.041-20.988,3.3,2.171,8.58,1.447,11.88.723,8.58-1.447,16.5-7.237,18.48-16.646,3.3-18.094-9.24-43.425-27.061-45.6,3.961-7.961.661-17.37-4.62-23.884a17.272,17.272,0,0,0-9.24-6.513c-1.32,0-2.64-.724-3.3-.724a8.372,8.372,0,0,0-4.62-2.171c-10.561-5.067-23.1-5.79-33.661,0-3.961,2.171-6.6,5.79-8.581,10.856-.66,1.447-12.54-4.343-13.86-5.066-5.28-1.448-9.24-.724-14.521,2.171-1.98.724-7.26,5.066-7.92,7.237.66-2.895-7.92-6.513-9.24-7.237a140.891,140.891,0,0,0-18.481-5.79c-13.86-2.895-27.721-4.343-41.581-2.895a129.357,129.357,0,0,0-36.3,7.237c-16.5-5.79-37.622-2.895-50.822,8.685a11.993,11.993,0,0,0-3.96,4.343c-2.64,4.342-7.261.724-9.9,0-5.28-1.448-9.9-.724-15.18-.724s-15.18,7.961-18.48,5.79c-17.821-11.58-38.942-13.027-58.742-7.961-10.561,2.895-19.141,7.237-28.381,13.751a34.418,34.418,0,0,0-11.881-2.171c-10.56-.724-25.74,0-33.661,8.685a45.688,45.688,0,0,0-5.28,6.514c-.66,1.447-1.32,7.237-2.64,5.066a17.28,17.28,0,0,0-9.24-6.514c-8.58-2.895-19.141-4.342-28.381-.724-3.3,1.448-7.92,3.619-9.9,7.238-2.64,4.342-.66,7.237-5.28,3.618-7.921-6.513-23.761-7.237-33.661-7.237-11.881,0-24.421.724-34.982,7.237-3.96,2.172-11.22,6.514-15.84,11.58a67.729,67.729,0,0,0-35.641,5.79,15.512,15.512,0,0,0-7.92,9.409c-1.321,5.066-4.621,1.448-9.241,1.448-11.22-1.448-24.421-2.172-34.981,1.447C2002.318,99.305,1997.038,102.924,2000.338,110.161Z"/>
        <path class="cls-21" d="M2670.26,25.483a48.366,48.366,0,0,0-11.881-6.514c-8.58-2.895-17.82-4.343-26.4-1.448-5.28,1.448-10.561,5.067-12.541,10.857a22.874,22.874,0,0,0-1.32,6.513,31.862,31.862,0,0,0-27.061-9.408,14.523,14.523,0,0,0-12.54,11.58,9.973,9.973,0,0,0-.66,4.342,61.961,61.961,0,0,0-7.26-7.237,48.585,48.585,0,0,0-28.381-13.752c-11.221-2.171-22.441-2.171-33.661-1.447-10.561.724-21.121,2.895-29.7,10.132-.661.724-.661,1.448,0,1.448,5.28,1.447,9.24,7.237,11.88,13.027-13.2-11.58-32.341-15.2-48.182-10.856-13.2,3.619-24.421,12.3-25.74,27.5-1.98-4.343-1.98-10.857-.66-15.2V44.3c-10.561-7.961-23.761-6.514-34.982-1.447a20,20,0,0,0-6.6,3.618c-3.3-2.171-6.6-4.342-10.56-6.513a45.369,45.369,0,0,0-16.5-5.79c-11.22-2.172-23.1-2.172-33.661.723-11.22,2.9-22.441,8.685-27.061,19.542a29.581,29.581,0,0,0-9.9-4.343c-7.92-1.447-17.161-1.447-25.081,2.171-5.94,2.895-11.22,7.238-13.86,14.475a22.88,22.88,0,0,0-1.32,6.514c-9.241-10.133-22.441-15.922-35.642-13.027-7.92,2.171-12.54,7.237-13.86,15.922,0,1.447-.66,2.9-.66,5.066a70.3,70.3,0,0,1-7.26-4.342,99.685,99.685,0,0,0-28.381-8.685,74.433,74.433,0,0,0-31.021,2.171,45.7,45.7,0,0,0-13.2,6.514l-3.96,4.342c-.66.724-1.32,2.171-1.98,2.895h0a38.013,38.013,0,0,0-23.761,1.448c-7.26,2.171-18.48,8.685-19.14,18.093-10.561-5.79-23.1-7.961-34.322-7.961-5.94,0-13.86.724-19.8,4.343a26.157,26.157,0,0,1,5.94-3.619c11.22-3.619,23.761-2.895,34.981-1.448,3.96.724,7.26,3.619,9.24-1.447,1.32-3.619,4.621-7.961,7.921-9.409a66.69,66.69,0,0,1,35.641-5.79c3.96-5.066,11.22-9.409,15.84-11.58,10.561-5.79,23.1-7.237,34.981-7.237,9.9,0,25.081.724,33.661,7.237,4.621,3.619,2.64.724,5.281-3.619,1.98-3.618,6.6-5.789,9.9-7.237,8.58-3.619,19.14-2.171,28.381.724a27.538,27.538,0,0,1,9.24,6.513c1.98,2.172,2.64-3.618,2.64-5.066.66-2.9,3.3-5.066,5.28-6.513,7.92-8.685,23.1-9.409,33.661-8.685a34.394,34.394,0,0,1,11.881,2.171c9.24-6.514,17.82-11.58,28.38-13.751,19.8-5.067,40.922-3.619,58.742,7.961,3.96,2.171,13.2-5.066,18.481-5.79,5.28,0,9.9-.724,15.18.724,3.3.723,7.26,4.342,9.9,0a11.985,11.985,0,0,1,3.96-4.343c12.54-11.58,34.321-14.475,50.821-8.685a124.864,124.864,0,0,1,36.3-7.237c13.86-1.448,27.721,0,41.581,2.895,5.94,1.447,12.54,2.9,18.48,5.79,1.98.723,9.9,4.342,9.241,7.237,0-2.171,5.94-6.514,7.92-7.237,4.62-2.172,9.24-3.619,14.521-2.172,1.32.724,13.2,6.514,13.86,5.067a19.319,19.319,0,0,1,8.58-10.857c10.561-5.066,23.1-4.342,33.661,0,.66.724,3.3,1.448,4.621,2.172a5.513,5.513,0,0,1,3.3.723,17.28,17.28,0,0,1,9.24,6.514,9.962,9.962,0,0,1,1.98,2.895h0C2672.24,26.93,2670.92,26.206,2670.26,25.483Z"/>
        <path class="cls-22" d="M2003.638,111.609c8.58,2.9,18.481,2.9,27.721,2.171s23.761-1.448,30.361-10.133c1.98,5.067,7.92,7.962,13.2,9.409a24.664,24.664,0,0,0,12.541.724c1.98-.724,3.96-1.448,6.6-2.171,15.18,16.646,40.921,19.541,60.722,17.369,9.9-1.447,20.461-3.618,29.7-7.961,5.28-2.895,9.9-5.79,13.2-10.856,5.28,5.79,13.2,8.685,19.8,11.58,12.541,4.342,25.081,7.961,38.281,7.961,12.541,0,27.061-.724,38.282-7.961,2.64-1.448,8.58-5.066,7.26-9.409-.66-2.171-1.98-3.618-2.64-5.79,7.92,6.514,16.5,11.58,26.4,13.751a106.191,106.191,0,0,0,33.661,2.895c10.56-.723,27.061-3.618,33-15.2,9.24,11.58,29.7,9.408,35.641-5.066,3.3,5.066,9.24,8.685,13.86,12.3a57.169,57.169,0,0,0,30.361,8.685c9.9,0,20.461-2.171,28.381-9.408,3.96-2.9,7.921-6.514,9.9-11.58,9.9,15.922,28.38,23.883,45.541,24.607,9.9,0,20.461-1.448,29.7-5.79,3.3-2.171,8.58-4.343,9.9-8.685.66-2.171-1.32-4.342-1.98-5.79a2.6,2.6,0,0,0-.66-1.447l1.98,2.171c2.64,2.171,5.94,5.79,9.241,5.79.66,0,.66-.724.66-1.448a33.119,33.119,0,0,1-5.941-15.2c6.6,13.027,19.141,22.436,31.681,26.778a39.044,39.044,0,0,0,20.461,1.448c5.94-1.448,12.541-3.619,15.841-9.409,0-.724,0-1.447-.66-1.447-3.961.723-7.261-.724-9.9-3.619,7.921-.724,15.841-2.9,21.121-9.409,1.98-2.895,4.62-5.79,5.94-8.685a18.813,18.813,0,0,1-8.58,13.751c-.66,0-.66.724,0,1.448,8.58,4.342,21.781,0,27.061-8.685l1.98-4.343V96.41c-1.98,9.409-9.9,15.2-18.481,16.646-3.96.724-8.58,1.448-11.88-.724,3.3,13.751-20.461,20.265-29.041,20.989-11.22,1.447-22.441-2.171-33.661-5.066a55.131,55.131,0,0,1-13.2-4.343c-8.581,5.79-19.8,8.685-28.381,10.133a90.894,90.894,0,0,1-36.962-.724c-5.94-1.448-11.22-4.343-16.5-7.238a23.819,23.819,0,0,1-6.6-5.066c-4.621-4.342-5.28-2.895-7.921,1.448-6.6,10.132-21.12,10.856-31.681,10.856-12.54,0-25.08-6.514-34.321-15.2-3.96-3.619-3.3-10.132-8.58-3.619-3.3,3.619-7.26,7.238-11.88,7.238-5.94,0-14.521-1.448-18.481-7.238-5.28,7.962-12.54,10.133-21.78,12.3-13.2,3.619-27.721,3.619-40.922,2.895a92.889,92.889,0,0,1-30.361-7.237c-4.62,2.895-9.24,5.79-14.52,7.237-12.541,4.343-26.4,4.343-39.6,3.619-16.5-.724-35.641-4.343-50.821-13.751-6.6,6.513-13.2,10.132-22.441,13.027-12.541,3.619-27.061,2.895-39.6,1.448s-31.681-4.343-44.882-13.028a50.06,50.06,0,0,1-23.1-5.79c-9.24-5.066-15.84-2.171-25.08-.724-6.6,1.448-13.2.724-19.8.724-5.28,0-18.48,2.171-21.781-4.342h0C2001.658,110.885,2002.318,111.609,2003.638,111.609Z"/>
      </g>
      <g>
        <g>
          <path class="cls-20" d="M1907.935,39.958c-5.94-7.238-15.841-7.962-24.421-6.514-3.3-5.066-10.56-7.238-15.84-8.685-11.221-3.619-25.741-7.238-37.622-4.343l-.66-.723a23.438,23.438,0,0,0-7.26-3.619c-2.64,0-4.62,0-6.6.724a7.619,7.619,0,0,0-.66-6.514c-2.64-5.066-7.921-6.514-13.2-6.514-2.64,0-4.62,0-7.26,1.448-7.92-8.685-30.361-2.172-36.3,11.58-3.96-.724-8.58.723-12.541,2.171a37.022,37.022,0,0,0-8.58,5.79c-10.56-5.066-25.081-5.066-30.361,5.066h-.66c-6.6-5.066-17.821-3.619-24.421-2.171-7.26,2.171-15.84,5.79-19.8,13.027-3.3-1.447-9.241-2.171-10.561-2.895-5.28-.723-11.88,0-16.5,2.172-5.28,2.171-12.541,7.237-13.2,13.751-.66,7.961,11.221,7.961,15.841,7.961,7.92.724,17.16-2.171,24.421-5.79a25.924,25.924,0,0,0,13.86,4.343,33.939,33.939,0,0,0,17.161-4.343s0,.724.66.724c1.32,2.9,3.96,2.171,5.94,2.9a10.322,10.322,0,0,0,4.62-.724c2.64,3.619,8.58,5.79,12.54,5.79,7.921.724,15.181-1.448,21.781-5.066,4.62,6.513,15.181,8.685,22.441,9.408,8.58.724,21.121-1.447,29.041-7.961,7.92,4.343,19.14,3.619,26.4,2.9,8.58-.724,17.16-3.619,25.08-7.237.66-.724,1.98-.724,2.64-1.448a102.626,102.626,0,0,0,25.741,1.448,158.835,158.835,0,0,0,18.481-1.448c3.96-.724,10.56,0,14.52-2.171S1911.9,45.024,1907.935,39.958Z"/>
          <path class="cls-21" d="M1640.626,41.405a32.137,32.137,0,0,1,21.781,3.619,36.637,36.637,0,0,1,29.041-16.646c3.96,0,11.22,0,15.84,3.618,6.6-10.132,19.8-10.856,29.041-5.066,4.62-5.066,10.561-7.237,16.5-7.961,1.32,0,3.3-.724,5.28,0,.66-2.895,3.96-5.79,5.94-7.961,4.62-3.619,9.9-6.514,15.84-7.238,4.621-.724,9.9,0,12.541,3.619,5.94-2.9,14.52-2.171,18.48,2.9a10.183,10.183,0,0,1,1.98,8.685c3.3-1.448,6.6-1.448,10.561,0a10.4,10.4,0,0,1,5.28,4.342c11.22-3.618,25.08-1.447,36.3,2.172,3.96,1.447,10.56,2.895,12.54,7.237a10.984,10.984,0,0,1,1.32,4.343c5.941-2.9,13.861-2.172,19.141-.724,2.64.724,6.6,2.171,8.58,4.342,0,0,0-.723-.66-.723-5.94-7.238-15.84-7.962-24.421-6.514-3.3-5.066-10.56-7.238-15.84-8.685-11.221-3.619-25.741-7.238-37.622-4.343l-.66-.723a23.438,23.438,0,0,0-7.26-3.619c-2.64,0-4.62,0-6.6.724a7.619,7.619,0,0,0-.66-6.514c-2.64-5.066-7.92-6.514-13.2-6.514-2.64,0-4.62,0-7.26,1.448-7.92-8.685-30.361-2.172-36.3,11.58-3.96-.724-8.58.723-12.54,2.171a37.007,37.007,0,0,0-8.581,5.79c-10.56-5.066-25.08-5.066-30.361,5.066h-.66c-6.6-5.066-17.82-3.619-24.421-2.171-7.26,2.171-15.84,5.79-19.8,13.027-3.3-1.447-9.24-2.171-10.561-2.895-5.28-.723-11.88,0-16.5,2.172-4.62,1.447-11.221,6.513-13.2,11.58A50.79,50.79,0,0,1,1640.626,41.405Z"/>
          <path class="cls-22" d="M1906.615,47.2c-5.94,5.066-13.2,5.066-19.8,5.79a106.642,106.642,0,0,1-30.361,0c-3.96-.724-7.92-1.447-11.22-3.619a14.219,14.219,0,0,1-3.3-2.171,17.97,17.97,0,0,1-3.961,3.619,37.33,37.33,0,0,1-20.46,8.685c-9.9,1.447-23.1,1.447-30.361-7.238l-1.98,2.172a27.1,27.1,0,0,1-7.261,5.066,56.485,56.485,0,0,1-19.14,3.618c-7.26,0-15.841-2.171-19.8-8.684-5.28,5.79-13.2,8.684-20.461,7.237-4.62-.724-9.9-2.171-12.54-5.79-1.98,1.448-4.62,2.171-6.6,1.448-3.3,0-5.28-2.172-6.6-5.067-1.98,1.448-3.961,2.895-4.621,2.895-3.3,1.448-6.6,2.9-10.56,2.172-5.28,0-11.22-1.448-15.18-5.067-1.98,1.448-4.621,2.172-5.941,2.895a47.137,47.137,0,0,1-22.44,2.9c-3.3,0-10.561-.724-11.221-6.513V48.643c-.66,1.447-.66,2.171-1.32,3.618-.66,7.961,11.221,7.961,15.841,7.961,7.92.724,17.16-2.171,24.421-5.789a25.931,25.931,0,0,0,13.86,4.342,33.948,33.948,0,0,0,17.161-4.342s0,.723.66.723c1.32,2.9,3.96,2.171,5.94,2.9a10.322,10.322,0,0,0,4.62-.724c2.64,3.619,8.58,5.79,12.54,5.79,7.921.724,15.181-1.447,21.781-5.066,4.62,6.514,15.181,8.685,22.441,9.409,8.58.724,21.121-1.448,29.041-7.961,7.92,4.342,19.14,3.618,26.4,2.895,8.58-.724,17.16-3.619,25.08-7.238.66-.724,1.98-.724,2.64-1.447a102.625,102.625,0,0,0,25.741,1.447,159.052,159.052,0,0,0,18.481-1.447c3.96-.724,10.56,0,14.52-2.171,2.64-2.172,6.6-5.79,6.6-10.133C1908.6,45.024,1907.935,46.471,1906.615,47.2Z"/>
        </g>
        <g>
          <path class="cls-20" d="M1761.41,12.455c-4.62-5.79-12.54-6.514-19.141-5.066-2.64-3.619-7.92-5.79-12.54-7.237-9.24-2.895-20.461-5.79-29.7-2.895l-.66-.724c-1.32-1.448-3.96-2.895-5.28-2.895-1.98,0-3.96,0-5.28.724,0-1.448.66-2.895-.66-5.067-1.98-3.618-6.6-5.066-9.9-5.066a16.746,16.746,0,0,0-5.941.724c-6.6-7.238-23.76-2.171-28.38,9.409-3.3-.724-6.6.723-9.9,1.447a57.263,57.263,0,0,0-6.6,4.343c-7.92-3.619-19.8-3.619-24.421,4.342h-.66c-5.28-3.619-13.86-2.895-19.141-1.448s-12.54,5.067-15.84,10.133a23.923,23.923,0,0,0-8.58-2.171,27.642,27.642,0,0,0-13.2,1.447c-3.96,1.448-9.9,5.79-10.56,10.856-.66,5.79,9.24,6.514,12.54,6.514a37.965,37.965,0,0,0,19.141-5.066,22.771,22.771,0,0,0,11.22,3.619c5.28,0,9.9-.724,13.861-3.619v.724c.66,2.171,3.3,2.171,4.62,2.171a7.714,7.714,0,0,0,3.96-.724c1.98,2.895,6.6,4.343,9.9,4.343,5.94,0,11.88-.724,17.16-4.343,3.96,5.066,11.88,6.514,17.821,7.238,6.6.723,16.5-.724,23.1-6.514,5.94,2.895,15.18,2.895,21.12,2.171a62.943,62.943,0,0,0,19.8-5.79c.66-.724,1.32-.724,1.98-1.447,6.6,1.447,13.86,1.447,20.461,1.447a98.787,98.787,0,0,0,14.52-1.447c3.3,0,7.921,0,11.221-2.172C1760.75,21.14,1764.71,16.074,1761.41,12.455Z"/>
          <path class="cls-21" d="M1550.2,13.9a28.138,28.138,0,0,1,17.161,2.895c5.28-7.962,13.86-13.028,23.1-13.028,3.3,0,9.24,0,12.54,2.9,5.28-7.961,15.84-8.685,23.1-3.619a21.443,21.443,0,0,1,13.2-6.513h3.96c.66-2.171,3.3-4.343,4.62-6.514a25.666,25.666,0,0,1,12.541-5.79,10.372,10.372,0,0,1,9.9,2.9c4.62-2.9,11.88-1.447,14.521,2.171a9.064,9.064,0,0,1,1.32,7.238c2.64-.724,5.28-1.448,8.58,0,1.32.724,3.3,1.447,3.96,3.618,9.24-2.894,19.8-.723,29.041,2.172,3.3.723,8.58,2.171,9.9,5.79.661.723.661,2.171,1.321,2.895a22.116,22.116,0,0,1,15.18-.724c1.98.724,5.28,1.447,7.26,3.619,0,0,0-.724-.66-.724-4.62-5.79-12.54-6.514-19.14-5.066-2.64-3.619-7.921-5.79-12.541-7.238-9.24-2.895-20.46-5.79-29.7-2.895l-.66-.723c-1.32-1.448-3.96-2.895-5.28-2.895-1.98,0-3.96,0-5.28.723,0-1.447.66-2.895-.66-5.066-1.98-3.619-6.6-5.066-9.9-5.066a16.746,16.746,0,0,0-5.941.724c-6.6-7.238-23.76-2.172-28.38,9.408-3.3-.723-6.6.724-9.9,1.448a57.264,57.264,0,0,0-6.6,4.342c-7.92-3.618-19.8-3.618-24.421,4.343h-.66c-5.28-3.619-13.86-2.895-19.14-1.448S1570,8.836,1566.7,13.9a23.928,23.928,0,0,0-8.58-2.172,27.642,27.642,0,0,0-13.2,1.448c-3.3,1.447-8.58,5.066-9.9,9.409A22.331,22.331,0,0,1,1550.2,13.9Z"/>
          <path class="cls-22" d="M1760.75,18.245c-4.62,3.619-10.56,4.343-15.84,5.066a130.24,130.24,0,0,1-23.761,0c-3.3-.723-5.94-.723-8.58-2.895a9.244,9.244,0,0,1-2.641-2.171,6.742,6.742,0,0,1-3.3,2.895,33.606,33.606,0,0,1-16.5,6.514c-7.921.724-18.481,1.447-23.761-5.79-.66.724-.66,1.447-1.32,2.171l-5.94,4.343a35.708,35.708,0,0,1-15.181,2.895c-5.94,0-12.54-2.172-15.84-7.238-3.96,4.343-10.561,6.514-16.5,5.79-3.3-.724-7.92-1.447-9.9-5.066-1.98.724-3.3,1.447-5.28,1.447a5.23,5.23,0,0,1-5.28-3.618,9.48,9.48,0,0,1-3.3,2.171,16.972,16.972,0,0,1-8.581,2.171c-3.96,0-8.58-.724-11.88-3.619-1.98.724-3.3,2.172-4.62,2.172a37.914,37.914,0,0,1-17.821,2.171c-2.64,0-8.58-.724-8.58-5.066V20.416a4.683,4.683,0,0,0-.66,2.895c-.66,5.79,9.24,6.514,12.54,6.514a37.962,37.962,0,0,0,19.141-5.066,22.771,22.771,0,0,0,11.22,3.619c5.281,0,9.9-.724,13.861-3.619v.724c.66,2.171,3.3,2.171,4.62,2.171a7.714,7.714,0,0,0,3.96-.724c1.98,2.895,6.6,4.343,9.9,4.343,5.94,0,11.88-.724,17.16-4.343,3.96,5.066,11.881,6.514,17.821,7.238,6.6.723,16.5-.724,23.1-6.514,5.94,2.895,15.18,2.895,21.12,2.171a62.943,62.943,0,0,0,19.8-5.79c.66-.724,1.32-.724,1.98-1.447,6.6,1.447,13.861,1.447,20.461,1.447a98.787,98.787,0,0,0,14.52-1.447c3.3,0,7.921,0,11.221-2.172,1.98-1.447,5.28-4.342,5.28-7.961C1762.07,16.074,1761.41,17.521,1760.75,18.245Z"/>
        </g>
      </g>
      <g>
        <path class="cls-20" d="M522.55,119.57c-9.9-2.895-21.121-2.895-31.021-1.448-3.96.724-6.6,2.895-7.921-.724a13.772,13.772,0,0,0-7.26-7.961c-9.9-4.342-20.46-6.513-31.681-5.066-3.96-4.342-9.9-8.685-13.86-10.132-9.241-5.067-20.461-6.514-31.021-6.514-8.581,0-22.441.724-29.7,6.514-3.96,3.618-2.64.723-4.62-2.9a20.189,20.189,0,0,0-8.581-6.514c-7.92-2.895-17.16-2.171-25.081.724-2.64.723-5.94,3.618-7.92,5.79-1.32,2.171-1.98-2.895-2.64-4.343a12.6,12.6,0,0,0-4.62-5.79c-7.26-7.961-20.461-7.961-29.7-7.961a60.375,60.375,0,0,0-10.56,1.447c-7.921-5.79-15.841-10.132-25.081-12.3-17.821-4.343-36.3-3.619-52.142,7.237-3.3,2.171-11.88-4.342-16.5-5.066-4.621,0-8.581-.724-13.2.724-2.64.723-6.6,3.618-9.24,0-1.32-2.172-1.98-2.172-3.3-3.619-11.221-10.132-30.361-13.027-44.882-7.961A122.769,122.769,0,0,0,79.675,47.2a127.66,127.66,0,0,0-36.961,2.9c-5.28,1.448-11.22,2.895-15.84,5.066-1.321.724-8.581,4.343-8.581,6.514,0-2.171-5.28-5.79-6.6-6.514A15.155,15.155,0,0,0-.847,53.709c-1.32.724-11.881,5.79-12.541,4.342a19.661,19.661,0,0,0-7.26-9.408c-9.24-5.067-20.461-4.343-29.7,0-.66.723-2.64,1.447-3.96,2.171a6.626,6.626,0,0,0-3.3.724,15.333,15.333,0,0,0-7.921,5.79c-4.62,5.789-7.26,13.751-3.96,20.988-15.84,2.171-27.061,24.608-23.76,40.53a18.713,18.713,0,0,0,16.5,14.475,17.639,17.639,0,0,0,10.56-.724c-3.3,11.58,18.481,18.094,25.741,18.818,9.9.723,19.8-2.172,29.7-4.343a102.61,102.61,0,0,0,11.881-3.619c7.26,5.067,17.82,7.962,25.08,9.409,10.561,2.171,22.441,2.171,32.342-.724a68.552,68.552,0,0,0,15.18-6.513l5.94-4.343c3.96-3.619,4.62-2.9,7.26,1.448,5.941,8.685,19.141,10.132,27.721,10.132,11.221,0,21.781-5.79,30.361-13.751,3.3-2.895,3.3-8.685,7.261-2.895,2.64,3.619,5.94,6.514,10.56,6.514,5.28,0,13.2-1.448,15.84-6.514,4.621,7.237,11.221,8.685,19.141,10.856,11.88,3.619,24.421,3.619,36.3,2.171a92.239,92.239,0,0,0,27.061-6.513,45.7,45.7,0,0,0,13.2,6.513c11.22,4.343,23.1,4.343,34.981,3.619,14.52-.724,31.681-3.619,44.881-12.3a43.307,43.307,0,0,0,19.8,11.58c11.22,2.895,23.761,2.172,34.981,1.448,11.22-1.448,27.721-4.343,39.6-11.58a47.92,47.92,0,0,0,20.461-5.066c8.58-4.343,13.86-2.172,22.441-.724a146.7,146.7,0,0,0,17.82.724c4.62,0,16.5,2.171,19.141-3.619C533.11,125.36,527.83,121.741,522.55,119.57Z"/>
        <path class="cls-21" d="M-63.549,56.6a50.944,50.944,0,0,1,10.56-5.79,38.012,38.012,0,0,1,23.761-1.448c4.62,1.448,9.24,4.343,11.22,10.133a19.63,19.63,0,0,1,.66,5.79c6.6-6.514,15.181-9.409,23.761-7.961A13.074,13.074,0,0,1,17.633,67.46a7.063,7.063,0,0,1,.66,3.619,27.821,27.821,0,0,1,6.6-6.514,48.6,48.6,0,0,1,25.741-12.3,136.336,136.336,0,0,1,29.7-1.447c9.241.724,18.481,2.9,26.4,9.408.66,0,.66.724,0,1.448-4.62,1.447-8.58,6.514-10.56,11.58,11.88-10.133,28.381-13.751,42.9-9.409,11.221,2.9,21.781,10.856,23.1,24.608a17.972,17.972,0,0,0,.66-13.028V74.7c9.24-7.237,21.121-5.79,31.021-1.447a26.157,26.157,0,0,1,5.94,3.619c3.3-2.172,5.94-3.619,9.24-5.79,4.621-2.172,9.9-4.343,14.521-5.067,9.9-2.171,20.461-2.171,29.7.724,9.9,2.895,19.8,7.961,23.761,17.37a43.492,43.492,0,0,1,8.58-3.619c7.26-1.447,15.18-1.447,22.441,1.448a20.862,20.862,0,0,1,11.88,12.3c.66,2.171.66,3.618,1.32,5.79,8.58-8.685,19.8-14.475,31.681-11.58,6.6,1.447,11.221,6.513,12.541,13.751v4.342a29.827,29.827,0,0,1,6.6-3.618c7.92-3.619,16.5-6.514,25.081-7.238,9.24-.724,19.14-.724,27.721,2.171,3.96,1.448,7.92,2.895,11.88,5.79a8.383,8.383,0,0,1,3.3,3.619,9.962,9.962,0,0,1,1.98,2.895h0c6.6-2.171,14.521-1.447,21.121.724s15.84,7.237,16.5,15.922a56.507,56.507,0,0,1,30.361-6.514c5.281,0,12.541.724,17.821,3.619-1.32-1.447-3.3-2.171-5.28-2.9-9.9-2.895-21.121-2.895-31.021-1.447-3.96.723-6.6,2.9-7.921-.724a13.766,13.766,0,0,0-7.26-7.961c-9.9-4.343-20.46-6.514-31.681-5.066-3.96-4.343-9.9-8.685-13.86-10.133-9.241-5.066-20.461-6.514-31.021-6.514-8.581,0-22.441.724-29.7,6.514-3.96,3.619-2.64.724-4.62-2.9a20.2,20.2,0,0,0-8.581-6.514c-7.92-2.895-17.16-2.171-25.08.724-2.641.724-5.941,3.619-7.921,5.79-1.32,2.171-1.98-2.895-2.64-4.342a12.6,12.6,0,0,0-4.62-5.79c-7.26-7.962-20.461-7.962-29.7-7.962a60.288,60.288,0,0,0-10.56,1.448c-7.92-5.79-15.841-10.133-25.081-12.3-17.821-4.342-36.3-3.619-52.142,7.238-3.3,2.171-11.88-4.343-16.5-5.067-4.62,0-8.581-.723-13.2.724-2.64.724-6.6,3.619-9.24,0-1.32-2.171-1.98-2.171-3.3-3.619-11.221-10.132-30.361-13.027-44.882-7.961a122.768,122.768,0,0,0-32.341-6.513,127.66,127.66,0,0,0-36.961,2.895c-5.28,1.447-11.22,2.9-15.84,5.066-1.32.723-8.581,4.342-8.581,6.513,0-2.171-5.28-5.79-6.6-6.513A15.159,15.159,0,0,0-.847,55.156c-1.32.724-11.881,5.79-12.541,4.343a19.658,19.658,0,0,0-7.26-9.409c-9.24-5.066-20.461-4.342-29.7,0-.66.724-2.64,1.448-3.96,2.171a6.626,6.626,0,0,0-3.3.724,15.333,15.333,0,0,0-7.92,5.79c-.66.724-1.321,1.447-1.321,2.171h0A11.664,11.664,0,0,1-63.549,56.6Z"/>
        <path class="cls-22" d="M526.51,132.6c-7.92,2.895-16.5,2.171-24.421,1.448s-21.121-1.448-27.061-8.685c-1.98,4.342-7.26,7.237-11.88,8.685-3.3.723-7.261,1.447-11.221.723a42.9,42.9,0,0,1-5.28-2.171c-13.2,14.475-36.3,17.37-54.122,15.2-9.24-1.448-17.82-2.895-26.4-7.238a30.82,30.82,0,0,1-11.881-9.408c-4.62,5.066-11.22,7.961-17.16,10.132a112.323,112.323,0,0,1-33.661,7.238c-11.221,0-23.761-.724-33.662-6.514-1.98-1.448-7.92-4.343-5.94-7.961.66-1.448,1.32-3.619,2.64-5.067-7.26,5.79-14.52,10.133-23.76,12.3-9.9,2.171-19.8,3.619-29.7,2.171-9.241-.723-23.761-3.618-29.041-13.027-8.581,10.132-26.4,8.685-31.681-4.343a47.208,47.208,0,0,1-12.541,10.857,49.951,49.951,0,0,1-27.061,7.961c-8.58,0-17.82-2.171-25.081-7.961-3.3-2.9-6.6-5.79-9.24-10.133-8.58,14.475-25.081,20.989-40.921,21.713-9.24,0-18.481-1.448-26.4-5.067-3.3-1.447-7.92-3.618-8.58-7.961-.66-1.447.66-3.619,1.98-5.066,0-.724.66-.724.66-1.448-.66.724-1.32,1.448-1.98,1.448-1.98,2.171-5.28,5.066-8.581,5.066-.66,0-.66-.724-.66-1.447A34.7,34.7,0,0,0-.847,120.293c-5.941,11.58-17.161,20.265-28.381,23.884-5.941,2.171-11.881,2.9-17.821,1.448-5.28-.724-11.22-2.9-13.86-7.962,0-.723,0-1.447.66-.723,3.3.723,5.94-.724,8.58-2.9-5.28-3.619-11.88-5.79-17.161-11.58a32.217,32.217,0,0,1-5.28-7.961,17.979,17.979,0,0,0,7.26,12.3c.66,0,.66.724,0,1.448-7.92,4.342-19.14,0-23.76-7.962-.66-1.447-1.32-2.171-1.98-3.618v1.447A18.713,18.713,0,0,0-76.09,132.6a17.639,17.639,0,0,0,10.56-.724c-3.3,11.58,18.481,18.094,25.741,18.818,9.9.724,19.8-2.171,29.7-4.343A102.592,102.592,0,0,0,1.793,142.73c7.26,5.066,17.82,7.961,25.08,9.408,10.561,2.172,22.441,2.172,32.342-.723A68.6,68.6,0,0,0,74.4,144.9l5.94-4.343c3.96-3.618,4.62-2.895,7.26,1.448,5.941,8.685,19.141,10.132,27.721,10.132,11.221,0,21.781-5.79,30.361-13.751,3.3-2.9,3.3-8.685,7.261-2.9,2.64,3.619,5.94,6.514,10.56,6.514,5.28,0,13.2-1.448,15.84-6.514,4.621,7.238,11.221,8.685,19.141,10.856,11.88,3.619,24.421,3.619,36.3,2.172a92.241,92.241,0,0,0,27.061-6.514,45.724,45.724,0,0,0,13.2,6.514c11.22,4.342,23.1,4.342,34.981,3.618,14.52-.723,31.681-3.618,44.881-12.3a43.316,43.316,0,0,0,19.8,11.58c11.22,2.9,23.761,2.171,34.981,1.447,11.22-1.447,27.721-4.342,39.6-11.58a47.924,47.924,0,0,0,20.461-5.066c8.58-4.343,13.86-2.171,22.441-.724a146.7,146.7,0,0,0,17.82.724c4.62,0,16.5,2.171,19.141-3.619h0C528.49,131.873,527.83,132.6,526.51,132.6Z"/>
      </g>
      <g>
        <g>
          <path class="cls-20" d="M405.066,55.88c3.3,2.171,8.58,2.171,12.54,2.171a117.48,117.48,0,0,0,16.5,1.448c7.26,0,15.18,0,22.44-1.448.661.724,1.981.724,2.641,1.448a58.7,58.7,0,0,0,21.78,6.513c6.6.724,16.5.724,23.1-2.9,7.26,5.79,17.821,7.238,25.741,7.238,6.6-.724,15.84-2.171,19.8-7.961a30.129,30.129,0,0,0,19.14,4.342,17.886,17.886,0,0,0,11.221-5.066c1.32.724,2.64.724,4.62.724s4.62,0,5.28-2.171V59.5a22.785,22.785,0,0,0,15.18,3.618A25.111,25.111,0,0,0,616.933,59.5c6.6,3.618,14.52,5.79,21.781,5.066,3.96,0,14.52-.724,13.86-7.237-.66-5.79-7.26-10.857-11.88-12.3s-9.9-2.9-14.521-2.171a30.58,30.58,0,0,0-9.24,2.171c-3.96-5.79-11.221-9.409-17.161-11.58-5.94-1.448-15.84-2.9-21.12,1.447h-.66c-5.281-8.685-17.821-8.685-27.061-4.342a27.061,27.061,0,0,0-7.261-5.066c-3.3-1.448-7.26-2.895-11.22-2.172-5.28-12.3-25.081-18.093-31.681-10.132-1.98-.724-3.96-1.448-6.6-.724-3.96,0-9.24,1.448-11.22,5.79-1.321,2.171-.661,3.619-.661,5.79a16.741,16.741,0,0,0-5.94-.724,9.453,9.453,0,0,0-5.94,2.895c-.66,0-.66.724-.66.724-10.56-2.895-23.1.724-33,3.619-4.62,1.447-11.22,3.619-13.86,7.961-7.921-.724-15.841-.724-21.121,5.79C397.146,48.643,401.766,53.709,405.066,55.88Z"/>
          <path class="cls-21" d="M636.073,45.748c-6.6-.724-13.2,0-19.14,3.618-5.941-9.408-15.181-14.475-25.741-14.475-3.3,0-9.9,0-13.861,2.9-5.28-8.685-17.82-10.132-25.74-4.342-3.961-4.343-9.241-5.79-14.521-7.238h-4.62c-.66-2.895-3.3-5.066-5.28-7.237a25.172,25.172,0,0,0-13.861-6.514c-3.96-.724-8.58,0-11.22,3.619-5.28-2.9-13.2-2.171-16.5,2.895a8.71,8.71,0,0,0-1.98,7.961,10.351,10.351,0,0,0-9.24,0,20.185,20.185,0,0,0-4.62,3.619c-9.9-3.619-22.441-.724-31.681,2.171-3.96,1.448-9.24,2.171-11.22,6.514a5.819,5.819,0,0,0-1.32,3.619,28.041,28.041,0,0,0-17.161-.724,65.46,65.46,0,0,0-7.92,3.619s0-.724.66-.724c5.28-6.514,13.86-7.238,21.12-5.79,2.64-4.343,9.241-6.514,13.861-7.961,9.9-2.895,22.441-6.514,33-3.619l.66-.724a9.453,9.453,0,0,1,5.94-2.895,16.741,16.741,0,0,1,5.94.724c0-2.171-.66-3.619.66-5.79,1.98-4.343,7.261-5.79,11.221-5.79a20.552,20.552,0,0,1,6.6.724c7.26-7.962,26.4-2.172,31.681,10.132,3.96-.724,7.92.724,11.22,2.171a27.1,27.1,0,0,1,7.261,5.067c9.24-4.343,21.78-4.343,27.06,4.342h.66c5.941-4.342,15.181-3.619,21.121-1.447,5.94,1.447,13.861,5.066,17.161,11.58,2.64-1.448,7.92-2.172,9.24-2.172,4.62-.723,10.56,0,14.52,2.172,3.961,1.447,9.9,5.79,11.221,10.132C648.614,49.366,642.014,46.471,636.073,45.748Z"/>
          <path class="cls-22" d="M401.766,50.814c5.28,4.342,11.88,4.342,17.82,5.066a168.848,168.848,0,0,0,27.061,0,51.154,51.154,0,0,0,9.9-2.9,9.26,9.26,0,0,0,2.641-2.171,11.844,11.844,0,0,0,3.3,2.9c5.28,4.342,11.88,6.513,17.82,7.961,8.581,1.447,20.461,1.447,26.4-6.514.66.724.66,1.448,1.32,2.172a13.526,13.526,0,0,0,6.6,4.342c5.281,2.171,11.221,3.619,16.5,2.895,6.6,0,13.86-2.171,17.82-7.961,4.621,5.066,11.881,7.237,18.481,6.513,3.96-.723,8.58-2.171,11.22-5.066,1.98,1.448,3.96,1.448,5.941,1.448,2.64,0,4.62-2.172,5.94-4.343a39.12,39.12,0,0,1,3.96,2.9,21.554,21.554,0,0,0,9.24,2.171c4.62,0,9.9-.723,13.2-4.342a37.723,37.723,0,0,0,5.28,2.895,37.931,37.931,0,0,0,19.8,2.9c3.3,0,9.9-.724,9.9-5.79V53.709a4.68,4.68,0,0,1,.66,2.895c.66,6.513-9.9,7.237-13.861,7.237-6.6.724-15.18-1.447-21.78-5.066-3.3,2.9-8.581,3.619-11.881,3.619-5.28,0-10.56-.724-15.18-3.619V59.5c-1.32,2.171-3.3,2.171-5.28,2.171a11.834,11.834,0,0,1-4.621-.724,16.474,16.474,0,0,1-11.22,5.066c-6.6.724-13.2-1.447-19.141-4.342-3.96,5.79-13.2,7.961-19.8,7.961-7.92.724-18.481-1.447-25.741-7.237-6.6,3.618-17.161,2.9-23.1,2.9a55.246,55.246,0,0,1-21.781-6.514c-.66-.724-1.98-.724-2.64-1.448-7.26,1.448-15.18,1.448-22.44,1.448a137.8,137.8,0,0,1-16.5-1.448c-3.96-.723-9.24,0-12.54-2.171-2.64-1.447-5.941-5.066-5.941-8.685C399.786,48.643,400.446,50.09,401.766,50.814Z"/>
        </g>
        <g>
          <path class="cls-20" d="M1096.768,70.355c3.3,2.171,7.921,1.447,11.221,2.171,4.62.724,9.9.724,14.52,1.448,6.6,0,13.2,0,20.461-1.448.66.724,1.32.724,1.98,1.448a62.943,62.943,0,0,0,19.8,5.79c5.94.723,14.52.723,21.12-2.172,6.6,5.067,15.841,6.514,23.1,6.514,5.94-.724,13.861-2.171,17.821-7.237a35.739,35.739,0,0,0,17.16,4.342c3.3,0,7.92-1.447,9.9-4.342a7.723,7.723,0,0,0,3.96.723c1.98,0,3.96,0,4.62-2.171V74.7c3.96,2.895,8.58,3.619,13.86,3.619a22.764,22.764,0,0,0,11.221-3.619,37.962,37.962,0,0,0,19.14,5.067c3.3,0,13.2-.724,12.541-6.514-.66-5.066-6.6-9.409-10.561-10.856a27.637,27.637,0,0,0-13.2-1.448,21.194,21.194,0,0,0-7.92,2.171c-3.3-5.066-9.9-8.684-15.841-10.132-5.28-1.447-13.86-2.171-19.14,1.448h-.661c-4.62-7.962-15.84-7.962-24.42-4.343a13.517,13.517,0,0,0-6.6-4.342c-3.3-1.448-6.6-2.172-9.9-1.448-4.62-10.856-22.441-15.922-28.381-9.409a16.763,16.763,0,0,0-5.94-.723c-3.96,0-7.92,1.447-9.9,5.066a15.4,15.4,0,0,0-.66,5.066c-1.32-.724-3.3-.724-5.281-.724s-3.96,1.448-5.28,2.895l-.66.724c-9.9-2.171-20.461.724-29.7,2.9-3.96,1.448-9.9,2.895-12.54,7.237-6.6-.723-14.521-.723-19.141,5.067C1088.848,63.841,1093.468,68.184,1096.768,70.355Z"/>
          <path class="cls-21" d="M1303.355,60.946a28.134,28.134,0,0,0-17.16,2.9c-5.281-7.961-13.861-13.027-23.1-13.027-3.3,0-9.24,0-12.541,2.9-5.28-7.961-15.84-8.685-23.1-3.619a21.441,21.441,0,0,0-13.2-6.514h-3.96c-.66-2.171-3.3-4.342-4.62-6.513a25.65,25.65,0,0,0-12.54-5.79,10.373,10.373,0,0,0-9.9,2.895c-4.62-2.895-11.88-1.448-14.52,2.171a9.061,9.061,0,0,0-1.32,7.237c-2.64-.723-5.28-1.447-8.581,0-1.32.724-3.3,1.448-3.96,3.619-9.24-2.9-19.8-.724-28.381,2.171-3.3.724-8.58,2.172-9.9,5.79-.66.724-.66,2.172-1.32,2.9a22.13,22.13,0,0,0-15.181-.724c-1.98.724-5.28,1.448-7.26,3.619,0,0,0-.724.66-.724,4.62-5.79,12.541-6.513,19.141-5.066,2.64-3.618,7.92-5.79,12.54-7.237,9.24-2.895,19.8-5.79,29.7-2.895l.66-.724c1.32-1.447,3.3-2.895,5.28-2.895s3.961,0,5.281.724c0-1.448-.66-2.895.66-5.066,1.98-3.619,6.6-5.067,9.9-5.067a16.741,16.741,0,0,1,5.94.724c6.6-7.237,23.761-2.171,28.381,9.409,3.3-.724,6.6.724,9.9,1.447,2.641.724,4.621,2.895,6.6,4.343,7.92-3.619,19.8-3.619,24.42,4.342h.661c5.28-3.618,13.86-2.9,19.14-1.447s12.54,5.066,15.841,10.132a24.826,24.826,0,0,1,7.92-2.171,27.625,27.625,0,0,1,13.2,1.448c3.3,1.447,8.581,5.066,9.9,9.408A23.838,23.838,0,0,0,1303.355,60.946Z"/>
          <path class="cls-22" d="M1093.468,66.012c4.62,3.619,10.561,4.343,15.841,5.067a130.42,130.42,0,0,0,23.761,0c3.3-.724,5.94-.724,8.58-2.895.66-.724,1.98-1.448,2.64-2.172a6.737,6.737,0,0,0,3.3,2.895,33.606,33.606,0,0,0,16.5,6.514c7.92.724,18.48,1.448,23.76-5.79.66.724.66,1.448,1.32,2.171,1.98,1.448,3.3,2.895,5.941,4.343a35.7,35.7,0,0,0,15.18,2.9c5.94,0,12.54-2.171,15.841-7.238,3.96,4.343,10.56,6.514,16.5,5.79,3.3-.723,7.92-1.447,9.9-5.066,1.98.724,3.3,1.448,5.281,1.448,2.64,0,3.96-1.448,5.28-3.619a9.48,9.48,0,0,0,3.3,2.171,16.961,16.961,0,0,0,8.58,2.171c3.96,0,8.581-.723,11.881-3.618,1.98.723,3.3,2.171,4.62,2.171a37.911,37.911,0,0,0,17.82,2.171c2.64,0,8.581-.724,8.581-5.066V68.184a4.68,4.68,0,0,1,.66,2.895c.66,5.79-9.241,6.513-12.541,6.513a37.961,37.961,0,0,1-19.14-5.066,22.774,22.774,0,0,1-11.221,3.619c-5.28,0-9.9-.724-13.86-3.619v.724c-.66,2.171-3.3,2.171-4.62,2.171a7.714,7.714,0,0,1-3.96-.724c-1.981,2.895-6.6,4.343-9.9,4.343-5.94,0-11.88-.724-17.16-4.343-3.3,5.067-11.881,6.514-17.821,7.238-6.6.724-16.5-.724-23.1-6.514-5.94,2.895-15.18,2.895-21.12,2.171a62.916,62.916,0,0,1-19.8-5.79c-.66-.723-1.32-.723-1.98-1.447-6.6,1.447-13.2,1.447-20.461,1.447a98.651,98.651,0,0,1-14.52-1.447c-3.3,0-7.92,0-11.221-2.171-1.98-1.448-5.28-4.343-5.28-7.962C1091.488,63.841,1092.148,64.565,1093.468,66.012Z"/>
        </g>
      </g>
    </g>
  </g>
</svg>
