<svg xmlns="http://www.w3.org/2000/svg" xmlns:xlink="http://www.w3.org/1999/xlink" width="935.988mm" height="661.81mm" viewBox="0 0 2653.196 1875.997">
  <defs>
    <style>
      .cls-1, .cls-10, .cls-11, .cls-12, .cls-13, .cls-14, .cls-15, .cls-2, .cls-3, .cls-4, .cls-5, .cls-6, .cls-7, .cls-8, .cls-9 {
        fill-rule: evenodd;
      }

      .cls-1 {
        fill: url(#Unbenannter_Verlauf_31);
      }

      .cls-2 {
        fill: #b48b73;
      }

      .cls-3 {
        fill: url(#Unbenannter_Verlauf_50);
      }

      .cls-4 {
        fill: url(#Unbenannter_Verlauf_24);
      }

      .cls-5 {
        fill: url(#Unbenannter_Verlauf_50-2);
      }

      .cls-10, .cls-13, .cls-14, .cls-6 {
        fill: #613962;
      }

      .cls-6 {
        opacity: 0.3;
      }

      .cls-10, .cls-14, .cls-6 {
        isolation: isolate;
      }

      .cls-7 {
        fill: url(#Unbenannter_Verlauf_50-3);
      }

      .cls-8 {
        fill: url(#Unbenannter_Verlauf_24-2);
      }

      .cls-9 {
        fill: url(#Unbenannter_Verlauf_50-4);
      }

      .cls-10 {
        opacity: 0.5;
      }

      .cls-11 {
        fill: url(#Unbenannter_Verlauf_50-5);
      }

      .cls-12 {
        fill: url(#Unbenannter_Verlauf_50-6);
      }

      .cls-14 {
        opacity: 0.15;
      }

      .cls-15 {
        fill: #b68d74;
      }

      .cls-16 {
        fill: none;
      }
    </style>
    <linearGradient id="Unbenannter_Verlauf_31" data-name="Unbenannter Verlauf 31" x1="283.514" y1="-6839.404" x2="298.558" y2="-7318.297" gradientTransform="matrix(1, 0, 0, -1, -192.638, -5443.582)" gradientUnits="userSpaceOnUse">
      <stop offset="0" stop-color="#eac080"/>
      <stop offset="0" stop-color="#b48b73"/>
    </linearGradient>
    <linearGradient id="Unbenannter_Verlauf_50" data-name="Unbenannter Verlauf 50" x1="68.32" y1="-6651.376" x2="68.32" y2="-7338.374" gradientTransform="matrix(1, 0, 0, -1, -192.638, -5443.582)" gradientUnits="userSpaceOnUse">
      <stop offset="0" stop-color="#eac080"/>
      <stop offset="0.602" stop-color="#b48b73"/>
      <stop offset="0.994" stop-color="#848b89"/>
    </linearGradient>
    <linearGradient id="Unbenannter_Verlauf_24" data-name="Unbenannter Verlauf 24" x1="595.098" y1="-6796.884" x2="765.593" y2="-7358.513" gradientTransform="matrix(1, 0, 0, -1, -192.638, -5443.582)" gradientUnits="userSpaceOnUse">
      <stop offset="0" stop-color="#eac080"/>
      <stop offset="0" stop-color="#b68d74"/>
      <stop offset="1" stop-color="#b48b73"/>
    </linearGradient>
    <linearGradient id="Unbenannter_Verlauf_50-2" x1="-58.684" y1="-6653.482" x2="289.831" y2="-7709.054" xlink:href="#Unbenannter_Verlauf_50"/>
    <linearGradient id="Unbenannter_Verlauf_50-3" x1="153.909" y1="-7123.39" x2="226.621" y2="-7352.807" xlink:href="#Unbenannter_Verlauf_50"/>
    <linearGradient id="Unbenannter_Verlauf_24-2" x1="115.928" y1="1774.52" x2="437.361" y2="1774.52" gradientTransform="matrix(1, 0, 0, 1, 0, 0)" xlink:href="#Unbenannter_Verlauf_24"/>
    <linearGradient id="Unbenannter_Verlauf_50-4" x1="9.049" y1="-6219.519" x2="52.509" y2="-6991.77" xlink:href="#Unbenannter_Verlauf_50"/>
    <linearGradient id="Unbenannter_Verlauf_50-5" x1="417.14" y1="-6850.903" x2="587.636" y2="-7412.537" xlink:href="#Unbenannter_Verlauf_50"/>
    <linearGradient id="Unbenannter_Verlauf_50-6" x1="68.169" y1="-6480.471" x2="184.758" y2="-6817.701" xlink:href="#Unbenannter_Verlauf_50"/>
  </defs>
  <g id="Bild">
    <g id="Berge">
      <g>
        <polygon class="cls-1" points="714.886 1896.3 -417.584 1896.3 -512.854 1540.902 -497.942 1474.627 -342.196 1559.127 167.291 1689.191 249.306 1670.966 249.306 1738.897 399.253 1715.701 437.361 1652.74 594.763 1652.74 594.763 1652.74 704.117 1873.104 714.886 1896.3"/>
        <polygon class="cls-2" points="249.306 1670.966 167.291 1689.191 -342.196 1559.127 -497.942 1474.627 -439.952 1474.627 -439.952 1429.063 -543.506 1027.272 -543.506 988.336 -493.8 988.336 -693.453 378.608 199.6 286.651 234.394 428.314 180.546 1232.724 215.34 1256.748 218.654 1663.51 218.654 1664.338 218.654 1670.966 249.306 1670.966"/>
        <polygon class="cls-3" points="249.306 1670.966 167.291 1689.191 -342.196 1559.127 -497.942 1474.627 -439.952 1474.627 -312.373 1518.534 -312.373 1518.534 35.57 1637 218.654 1664.338 249.306 1670.966"/>
        <polygon class="cls-4" points="594.763 1652.74 520.204 1751.324 413.336 1723.157 437.361 1652.74 594.763 1652.74"/>
        <polygon class="cls-5" points="-278.407 1656.882 102.673 1714.044 115.928 1723.157 -294.147 1679.25 -278.407 1656.882"/>
        <path class="cls-6" d="M138.3,1858.192l-22.368-135.035-410.075-43.907,41.422,94.442h0l49.706,111.838,4.97,10.77H-28.22l-4.142-11.6-39.765-111.839,120.952,6.628h5.8l9.113,115.981h79.529Z"/>
        <polygon class="cls-7" points="-73.784 1751.324 49.653 1772.863 55.452 1780.319 -71.298 1773.692 -73.784 1751.324"/>
        <polygon class="cls-8" points="437.361 1652.74 413.336 1723.157 408.365 1765.407 395.939 1883.045 395.11 1896.3 144.095 1896.3 138.296 1858.192 115.928 1723.157 167.291 1777.006 167.291 1689.191 249.306 1670.966 249.306 1738.897 399.253 1715.701 437.361 1652.74"/>
        <path class="cls-6" d="M715.046,1896.3H521.193v-6.627c-2.486-49.707-4.143-130.065-4.143-130.065L594.1,1652.74h0L703.448,1873.1h0Z"/>
        <polygon class="cls-9" points="215.34 1256.748 205.399 1253.435 124.212 1229.41 104.33 1223.611 69.536 1212.841 67.879 1212.013 -200.534 1130.826 -350.481 1068.694 -362.079 1063.723 -438.295 1032.243 -543.506 988.336 -493.8 988.336 -356.28 1034.728 -304.088 1052.953 -297.461 1055.439 -192.25 1091.061 41.369 1179.704 70.364 1190.474 105.158 1203.729 125.869 1212.013 180.546 1232.724 205.399 1250.121 215.34 1256.748"/>
        <polygon class="cls-6" points="215.34 1256.748 218.654 1663.51 174.747 1656.882 180.546 1608.005 167.291 1538.416 165.634 1612.147 175.575 1612.975 174.747 1656.882 35.57 1637 -312.373 1518.534 -441.609 1474.627 -439.952 1474.627 -439.952 1444.803 -384.447 1459.715 -438.295 1032.243 -362.079 1063.723 -350.481 1068.694 -184.794 1137.454 -146.686 1559.127 -136.745 1483.74 -124.318 1483.74 -124.318 1533.446 -111.892 1540.073 -73.784 1205.386 39.712 1229.41 30.599 1607.176 41.369 1607.176 78.648 1223.611 69.536 1212.841 41.369 1179.704 50.482 1091.061 50.482 1087.748 55.452 1040.527 10.717 1011.532 -44.788 1009.046 -50.587 1009.046 -62.185 1009.046 -57.215 905.492 -38.989 894.722 -38.989 649.506 63.737 616.368 64.565 618.025 98.531 687.614 86.933 792.825 118.413 521.098 -48.102 560.863 120.07 507.843 120.899 500.387 147.409 311.504 199.6 286.651 234.394 428.314 208.713 805.251 180.546 1232.724 205.399 1250.121 215.34 1256.748"/>
        <polygon class="cls-10" points="-58.872 1031.414 -3.367 1091.061 50.482 1091.061 50.482 1087.748 -4.195 1087.748 -48.931 1032.243 -44.788 1009.046 -50.587 1009.046 -58.872 1031.414"/>
        <polygon class="cls-10" points="714.886 1896.3 64.565 1896.3 64.565 1896.3 50.482 1780.319 49.653 1772.863 72.021 1878.075 161.492 1888.844 169.776 1853.221 167.291 1777.006 249.306 1738.897 175.575 1825.883 175.575 1888.844 386.826 1891.329 395.939 1883.045 521.861 1889.673 579.023 1882.217 540.915 1736.412 576.538 1825.055 621.273 1881.388 704.117 1873.104 704.117 1873.104 714.886 1896.3"/>
        <polygon class="cls-10" points="64.565 1896.3 -417.584 1896.3 -328.113 1886.359 -352.966 1577.353 -342.196 1559.127 -285.034 1883.874 -202.191 1885.53 -251.897 1773.692 -191.421 1882.217 -88.695 1886.359 -99.465 1856.535 -94.494 1854.878 -73.784 1884.702 -31.533 1884.702 62.908 1883.874 64.565 1896.3"/>
        <path class="cls-11" d="M263.389,1737.241,252.62,1756.3s136.691-8.285,136.691-9.942,6.628-30.652,6.628-30.652Z"/>
        <polygon class="cls-12" points="39.712 1232.724 -140.887 1230.239 -170.71 1185.503 39.712 1229.41 39.712 1232.724"/>
        <polygon class="cls-13" points="215.34 1256.748 183.031 1234.381 186.345 1232.724 215.34 1256.748"/>
        <polygon class="cls-10" points="130.011 1651.083 164.806 1408.352 170.605 1408.352 165.634 1612.147 175.575 1612.975 174.747 1656.882 130.011 1651.083"/>
        <polygon class="cls-14" points="115.1 938.629 105.158 1203.729 70.364 1190.474 101.016 936.973 115.1 938.629"/>
        <polygon class="cls-14" points="208.713 805.251 180.546 1232.724 125.869 1212.013 133.325 1132.483 149.065 1132.483 175.575 805.251 208.713 805.251"/>
      </g>
      <g>
        <polygon class="cls-2" points="2412.475 1269.268 3111.674 1164.886 3325.41 1193.881 2685.03 1329.744 2412.475 1269.268"/>
        <polygon class="cls-2" points="3395.827 1446.553 2275.784 1695.084 2291.524 1646.206 2297.323 1627.981 2306.436 1598.985 2308.921 1590.701 2412.475 1269.268 2589.76 1269.268 2783.614 1251.043 3201.974 1207.136 3325.41 1193.881 3356.063 1304.063 3361.034 1323.945 3361.034 1323.945 3373.46 1368.68 3376.774 1377.793 3377.602 1381.935 3395.827 1446.553"/>
        <polygon class="cls-15" points="3670.04 1678.515 3665.069 1731.535 3649.329 1894.737 3648.5 1903.849 1898.017 1903.849 2056.249 1738.162 2076.131 1695.084 2076.131 1657.804 2218.622 1657.804 2238.504 1642.064 2297.323 1627.981 2960.899 1468.093 2981.61 1463.122 3077.709 1439.926 3077.709 1439.926 3092.62 1436.612 3092.62 1436.612 3296.415 1387.734 3373.46 1368.68 3445.533 1351.283 3478.671 1454.009 3549.088 1454.009 3624.476 1594.015 3636.902 1617.211 3670.04 1678.515"/>
        <path class="cls-6" d="M3638,1617.211l-12.427-23.2-75.387-140.834h-70.417l-33.138-101.9-84.5-27.338h0l-5.8-19.882-30.652-110.182-123.437,12.426-80.359,8.285-212.079,21.539-318.947,32.309-9.113,38.108-7.456,33.137,86.157-15.74h0l249.359-44.735v9.113l-414.217,101.9-15.741,47.221-106.039-2.486,99.412,20.711-5.8,18.226-54.677-3.314-38.936,109.354,62.132-11.6-.828,1.656h0l-61.3,9.942-64.618,10.769-2.485,7.456-67.932,43.079-19.883,16.568H2076.4v36.451l-19.882,43.079L1898.29,1903.021H3649.6l.829-9.113,14.911-163.2,4.971-52.192Zm-861.573-275.04,133.378-29.824,119.295-26.51,33.966,19.054-286.639,42.25Z"/>
        <path class="cls-2" d="M3445.533,1351.283l-57.162,24.853-11.6,4.971-175.628,77.045v11.6l-23.2,8.284L2290.7,1645.378l-27.338,4.97-24.853-9.112,67.931-43.079,128.408-28.167h0l790.327-174.8h0l4.142-.828h2.485c.828,0,1.657,0,1.657-.829l2.485-.828c1.657,0,2.485-.829,4.142-.829l2.485-.828h.829l2.485-.828a3.041,3.041,0,0,0,2.485-.829c1.657,0,2.485-.828,4.142-.828l2.485-.829,4.143-.828c1.657-.829,4.142-.829,5.8-1.657a3.041,3.041,0,0,0,2.485-.829h.828l3.314-.828,4.971-.829,6.627-1.657c.828,0,2.485-.828,3.314-.828l4.97-.829h1.657l3.314-.828h1.657l3.314-.829h1.657c.828,0,2.485-.828,3.314-.828l32.309-7.456,2.485-.828,10.77-2.486,2.485-.828,16.569-3.314-10.77-39.765h0Z"/>
        <polygon class="cls-2" points="2076.131 1657.804 2116.724 1764.672 2740.536 1607.27 2438.985 1673.544 2400.049 1676.03 2249.274 1695.084 2218.622 1657.804 2076.131 1657.804"/>
        <polygon class="cls-10" points="2287.382 1903.849 2287.382 1796.981 2738.05 1636.265 2283.24 1789.525 2275.784 1800.295 2287.382 1903.849"/>
        <path class="cls-10" d="M3655.128,1845.03l-4.971,49.707-.828,9.112H1907.13l145.8-10.769h0l48.049-103.555,5.8,7.456v.829l-27.338,91.127v.829l207.109,6.627h0l.828-31.48,556.708,22.368s-4.971,5.8-.828,6.627h.828c4.971,0,92.785,3.314,102.726,3.314h.828l.829-28.167,4.142-125.922,27.338-167.344h0l-18.225,169.829-1.657,149.119,86.985-2.486-3.313-66.274h0l11.6,62.132,214.564,8.284h0l-4.97-28.166h1.657l169.829,6.627v15.74l72.9-1.656-11.6-236.933h4.142l8.284,118.466,8.285,119.3,117.637-5.8Z"/>
        <path class="cls-10" d="M2329.632,1734.02c.828,0-38.937-53.848-38.937-53.848l28.167-35.623-20.711,34.794,37.28,52.192Z"/>
        <rect class="cls-16" y="-0.025" width="2653.174" height="1875.391"/>
      </g>
    </g>
  </g>
</svg>
