<svg xmlns="http://www.w3.org/2000/svg" width="186.207mm" height="593.533mm" viewBox="0 0 527.83 1682.457">
  <defs>
    <style>
      .cls-1 {
        fill: #8cd1e8;
      }

      .cls-2 {
        fill: #dff1f6;
      }

      .cls-3 {
        fill: #4cc0e3;
      }
    </style>
  </defs>
  <g id="Bild">
    <g id="Wasserstrahl2">
      <path class="cls-1" d="M212.984,1567.567c11.653,3.327,134.008,29.947,132.843,6.655-8.157-249.563-12.818-499.126-12.818-752.016-1.166-232.926,0-469.179-1.166-698.777-10.487-13.31-22.14-13.31-33.793-16.637-32.628-13.31-54.769,588.968-58.265,675.483C226.967,1041.821,217.645,1304.694,212.984,1567.567Z"/>
      <path class="cls-2" d="M324.852,246.547a204.264,204.264,0,0,0,6.991,23.293V166.687c-1.165-3.327-2.33-6.655-3.5-6.655h-3.5c-3.5-3.328-6.992-9.983-10.488-9.983-4.661,0-9.322,13.311-12.818,6.656-1.166-3.328-1.166-3.328-2.331-6.656-2.33-6.655-5.826-13.31-9.322-13.31h-4.661c-4.661,19.966-8.157,49.913-11.653,86.516,2.33-3.328,3.5-6.655,5.826-9.983,3.5-3.327,6.992-3.327,8.157,6.655,0,3.328,0,3.328,1.166,6.655h2.33q5.244,0,10.488-9.982c2.33-3.328,5.826-9.983,9.322-9.983s6.992,6.655,9.322,16.638C321.356,226.582,323.686,239.892,324.852,246.547Z"/>
      <path class="cls-3" d="M301.546,1045.148c2.33-126.445,6.992-252.89,5.826-382.663,0,106.48-9.322,219.616-13.983,326.1s-9.323,206.3-23.306,306.13c-1.165-43.257-2.331-86.515-4.661-126.445-3.5,63.223-11.653,123.118-23.306,176.358-4.661-183.013-5.826-366.026-3.5-552.366-12.818,256.218-22.14,515.763-26.8,775.309,11.653,3.327,134.009,29.947,132.844,6.655-5.827-173.031-9.323-346.061-11.653-522.419q-13.985,169.7-27.967,339.406C295.719,1281.4,300.381,1158.284,301.546,1045.148Z"/>
    </g>
  </g>
</svg>
