<svg xmlns="http://www.w3.org/2000/svg" width="186.207mm" height="595.52mm" viewBox="0 0 527.83 1688.087">
  <defs>
    <style>
      .cls-1 {
        fill: #8cd1e8;
      }

      .cls-2 {
        fill: #dff1f6;
      }

      .cls-3 {
        fill: #4cc0e3;
      }
    </style>
  </defs>
  <g id="Bild">
    <g id="Wasserstrahl">
      <path class="cls-1" d="M177.079,526.925c-1.128,82.163-2.256,164.326-4.511,246.489-5.639,235.534-14.661,476.546-29.321,706.6-6.767,109.55,3.383,120.5,24.81,125.983,24.811,5.477,50.749,0,75.559-16.433,3.383,0,6.767-5.477,9.022-21.91,1.128-5.477,1.128-16.433,1.128-27.388,0-98.6,5.638-208.146,5.638-312.219V893.92q1.692-271.138,3.383-542.276c0-21.91,0-43.82-1.127-65.73C258.277,220.183,237.977,88.722,224.444,94.2c-14.66,5.477-28.193,10.955-42.854,16.432s-4.511,224.579-4.511,279.355C178.207,444.762,178.207,488.582,177.079,526.925Z"/>
      <path class="cls-2" d="M263.915,340.689c0-16.433,0-27.388-1.128-43.82-1.128-21.911-4.511-49.3-7.894-82.163-3.383,0-6.767,0-9.022-10.955s-3.383-27.388-5.639-32.866c-6.766-21.91-16.916,32.866-23.682,43.821-9.022,16.432-15.789,16.432-24.811-5.478-5.639-10.955-11.277-21.91-16.916-27.387-1.128,43.82,0,98.595,1.128,142.415,3.383-10.955,6.766-16.432,10.149-27.387l6.767-16.433c2.255,0,5.639,0,6.766,10.955s1.128,21.91,3.383,27.388c2.256,10.955,6.767,5.477,9.022-10.955,2.256-10.955,3.383-32.865,5.639-43.82,5.639-27.388,16.916-21.911,23.683,0,2.255,10.955,3.383,21.91,5.638,32.865C252.638,335.211,258.276,340.689,263.915,340.689Z"/>
      <path class="cls-3" d="M260.532,910.353c-5.639,120.505-9.022,279.354-25.938,372.472,0-76.686-2.256-158.849-5.639-235.534-1.128,76.686-3.383,158.849-7.894,235.534-1.128,16.433-3.383,38.343-6.767,32.865a144.313,144.313,0,0,1-2.255-21.91c-1.128-32.865-2.256-60.253-3.383-93.118-2.256,32.865-5.639,65.73-10.15,93.118,1.128-175.281,1.128-356.04,0-531.321-2.256,164.326-9.022,334.13-21.427,487.5,0-147.894,1.128-295.787-2.256-443.681-5.638,224.579-14.66,454.636-28.193,673.737-6.767,109.551,3.383,120.506,24.81,125.984,24.811,5.477,50.749,0,75.559-16.433,3.383,0,6.767-5.477,9.022-21.91,1.128-5.478,1.128-16.433,1.128-27.388,0-98.6,5.638-208.146,5.638-312.219C260.532,1123.977,259.4,1019.9,260.532,910.353Z"/>
    </g>
  </g>
</svg>
