<svg xmlns="http://www.w3.org/2000/svg" width="184.712mm" height="81.56mm" viewBox="0 0 523.592 231.193">
  <defs>
    <style>
      .cls-1 {
        fill: #f6fbfd;
      }
    </style>
  </defs>
  <g id="Bild">
    <g id="Schaum">
      <g>
        <path class="cls-1" d="M358.313,83.364c6.766.9,19.172,8.068,6.766,10.758-5.638,1.793-7.894-1.793-13.533-1.793-2.255,0-16.916,3.586-16.916,6.275,1.128-8.965,14.661-16.137,23.683-15.24Z"/>
        <path class="cls-1" d="M335.758,80.674c-4.511,4.483-12.4,8.069-19.172,11.655-4.511-11.655,2.256-26.895,14.661-34.963,11.277-7.172,12.4,4.482,11.277,10.758A24.4,24.4,0,0,1,335.758,80.674Z"/>
        <path class="cls-1" d="M221.856,55.573c4.511.9,9.022-.9,9.022-7.172-1.128-7.172-10.15-13.447-15.788-8.965-2.256,2.69-2.256,7.172-1.128,9.862C215.09,52.883,218.473,54.676,221.856,55.573Z"/>
        <path class="cls-1" d="M221.856,93.225c-10.15,1.793-13.533,11.654-1.128,15.24,5.639,1.793,18.044-.9,23.683-3.586,4.511-1.792-15.788-12.55-20.3-11.654Z"/>
        <path class="cls-1" d="M317.714,36.747c-2.255-8.069-14.66-9.861-19.172-.9-2.255,4.483,2.256,14.344,4.511,18.826,2.256,3.586,14.661-12.55,14.661-17.033Z"/>
        <path class="cls-1" d="M185.768,53.78c-4.511-.9-12.4,1.793-7.894,6.275,2.255,1.793,15.788,1.793,15.788,2.69a13.432,13.432,0,0,0-7.894-8.965Z"/>
        <path class="cls-1" d="M165.469,97.708c-5.639.9-11.278,5.379-4.511,8.964,3.383,1.793,15.788-3.585,16.916-3.585a16.508,16.508,0,0,0-12.4-5.379Z"/>
        <path class="cls-1" d="M359.441,65.434c3.383-3.586,12.405-4.482,11.277,1.793,0,2.69-12.405,8.965-12.405,9.862a14.464,14.464,0,0,1,1.128-11.655Z"/>
        <path class="cls-1" d="M259.071,86.053c-1.127-3.586,2.256-9.861,7.895-6.275,3.383,1.793,2.255,12.551,3.383,12.551-3.383-.9-9.022-2.69-11.278-6.276Z"/>
        <path class="cls-1" d="M220.728,72.606a5.873,5.873,0,0,0-6.766-2.689c-3.383.9-1.128,3.586,1.128,4.482,3.383.9,4.51.9,5.638,3.586,1.128,0,1.128-.9,1.128-.9C222.984,75.3,221.856,73.5,220.728,72.606Z"/>
        <path class="cls-1" d="M406.806,45.712c2.256-.9,5.639-.9,6.767,1.793s-1.128,3.586-4.511,2.689-4.511-1.793-7.9,0c-1.128,0,0-.9,0-.9A19.752,19.752,0,0,1,406.806,45.712Z"/>
        <path class="cls-1" d="M331.247,43.919a5.876,5.876,0,0,1,6.767-2.69c3.383.9,1.127,3.586-1.128,4.483-3.383.9-4.511.9-5.639,4.482-1.128,0-1.128-.9-1.128-.9C330.119,47.505,331.247,45.712,331.247,43.919Z"/>
        <path class="cls-1" d="M383.123,83.364c-1.128.9-2.255,1.793-2.255,2.689,1.127,1.793,7.894.9,6.766-1.793S384.251,82.467,383.123,83.364Z"/>
        <path class="cls-1" d="M352.674,55.573c0,.9,0,2.689,1.128,2.689,2.256.9,4.511-4.482,2.256-5.378S352.674,53.78,352.674,55.573Z"/>
        <path class="cls-1" d="M383.123,62.745c-1.128.9-2.255,1.793-2.255,2.689,1.127,1.793,7.894.9,6.766-1.793C387.634,61.848,385.379,61.848,383.123,62.745Z"/>
        <path class="cls-1" d="M242.155,62.745c0,.9,1.128,1.793,2.256,1.793,2.256,0,2.256-5.379,0-5.379S242.155,60.952,242.155,62.745Z"/>
        <path class="cls-1" d="M428.233,73.5c-1.128.9-2.256.9-2.256,1.793,0,1.793,6.767,1.793,6.767-.9C432.744,73.5,430.489,72.606,428.233,73.5Z"/>
        <path class="cls-1" d="M189.151,87.846c1.128,1.793,3.383,2.69,5.639,3.586,5.639.9,4.511-4.482-1.128-6.275C188.024,84.26,188.024,86.053,189.151,87.846Z"/>
        <path class="cls-1" d="M322.225,103.087a19.012,19.012,0,0,0,6.767-1.793c3.383-2.69-2.256-6.276-6.767-2.69C317.714,101.294,318.842,103.087,322.225,103.087Z"/>
        <path class="cls-1" d="M304.181,98.6a8.417,8.417,0,0,0,2.256-5.379c0-4.482-6.767-2.689-6.767,2.69C299.67,100.4,301.926,100.4,304.181,98.6Z"/>
        <path class="cls-1" d="M264.71,99.5a4.905,4.905,0,0,0-3.383-4.483c-4.511-2.689-6.766,2.69-2.256,6.276C263.582,103.087,264.71,101.294,264.71,99.5Z"/>
        <path class="cls-1" d="M195.918,104.88c2.255.9,4.511,1.792,6.766.9,5.639-.9,2.256-6.275-4.511-5.379C192.535,101.294,192.535,103.087,195.918,104.88Z"/>
        <path class="cls-1" d="M338.014,29.575c2.255,0,4.51-1.793,5.638-2.689,3.383-3.586-3.383-5.379-7.894-.9C332.375,29.575,334.63,30.471,338.014,29.575Z"/>
        <path class="cls-1" d="M387.634,76.192c2.256.9,4.511,1.793,6.767.9,5.638-.9,2.255-6.276-4.511-5.379C384.251,72.606,385.379,75.3,387.634,76.192Z"/>
      </g>
      <g>
        <path class="cls-1" d="M315.459,110.258h1.127c10.15,1.793,13.534,7.172,18.044,13.448,0,.9,1.128,1.793,2.256,1.793,2.256,0,2.256-1.793,3.383-2.69,2.256-8.965,18.044-14.344,28.194-10.758,11.277,3.586,16.916,15.241,12.4,24.205,6.767,0,14.661.9,19.172,4.483,7.894,5.379,7.894,15.24,1.128,20.619s-20.3,4.482-25.938-1.793c-3.383,7.172-12.406,12.551-22.555,14.344-21.427,3.586-24.811-5.379-41.727-8.069-14.66-2.689-24.81,8.965-39.471,10.758-13.533,1.793-28.194,2.69-41.727,0-20.3-2.689-18.044-9.861-31.576-18.826-1.128-.9-1.128-.9-2.256-.9-2.256,0-3.383.9-5.639,1.792-27.065,12.551-30.449-21.515-49.62-20.619-5.639,0-10.15,1.793-14.661,3.586-4.511.9-11.277,1.793-14.66-.9,0-15.24,15.788-25.1,33.832-22.412,9.022,1.793,13.533,5.379,23.683,3.586,7.894-.9,14.66-6.276,22.554-7.172,13.534-.9,29.322,4.482,33.833,14.344,4.511-5.379,12.405-8.069,20.3-7.172,6.767.9,11.278,6.275,15.788,9.861C269.221,115.637,297.415,108.465,315.459,110.258Z"/>
        <path class="cls-1" d="M486.876,136.256c-7.894.9-14.661,5.379-7.894,10.758,5.638,4.483,22.554,1.793,19.171-6.275C495.9,137.153,491.387,136.256,486.876,136.256Z"/>
        <path class="cls-1" d="M129.381,149.7c-9.022,2.689-15.788,9.861-5.639,13.447s29.322-4.483,21.427-12.551C140.658,147.911,135.02,147.911,129.381,149.7Z"/>
        <path class="cls-1" d="M83.143,134.463c-12.4,4.483-21.427,15.241-6.766,19.723,13.533,4.482,40.6-7.172,28.193-17.93C100.059,130.877,91.038,131.774,83.143,134.463Z"/>
        <path class="cls-1" d="M433.872,141.635c-13.533,5.379-23.683,17.033-6.767,21.516,15.789,4.482,43.982-8.965,30.449-20.619C451.916,138.049,442.894,138.049,433.872,141.635Z"/>
        <path class="cls-1" d="M428.233,112.948a12.568,12.568,0,0,0,5.639,4.482c3.383.9,6.766-1.793,10.149-3.586,10.15-5.379,23.683-1.793,34.961,2.69,5.638,1.793,11.277,5.379,10.149,9.861s-9.022,5.379-14.66,5.379c-16.917,0-32.7-.9-49.621-.9-11.277,0-39.471,2.69-47.365-2.689C360.568,112.948,413.573,97.708,428.233,112.948Z"/>
      </g>
    </g>
  </g>
</svg>
