<svg xmlns="http://www.w3.org/2000/svg" width="935.988mm" height="661.81mm" viewBox="0 0 2653.196 1875.997">
  <defs>
    <style>
      .cls-1 {
        fill: #4cc0e3;
      }

      .cls-2 {
        fill: #1e97c1;
      }

      .cls-3 {
        fill: #036d9c;
      }

      .cls-4 {
        fill: #8cd1e8;
      }
    </style>
  </defs>
  <g id="Bild">
    <g id="Wasser_Unten" data-name="Wasser Unten">
      <path class="cls-1" d="M3012.7,1636.339c-72.533,8.22-145.066,20.233-216.483,27.821-191.934,20.549-384.984,43.627-579.707,47.737-645.545,13.594-1340.188,21.814-1999.123-50.266-130.56-14.227-252.75-31.93-385.542-31.93H-920.265v252.28h4184.6V1629.7c-59.143,0-121.633-3.794-180.217,0C3060.685,1631.6,3036.694,1633.81,3012.7,1636.339Z"/>
      <path class="cls-2" d="M3264.336,1785.369c-55.795-7.49-169.616-6.741-239.917,2.621s-166.268,28.459-249.4,40.817c-101.547,15.353-206.441,26.212-309.661,17.974-67.511-5.617-126.1-32.2-195.281-30.332-49.658,1.5-95.967,16.1-143.393,27.336-46.867,11.234-99.872,18.724-146.182,5.992-27.9-7.864-49.657-21.719-74.206-33.7-59.7-29.208-119.959-19.472-187.47-12.732-60.259,5.992-103.221-2.621-162.921-10.859-142.834-19.847-280.647,45.31-425.713,56.919-172.406,13.855-340.906-49.43-514.427-44.562-71.417,1.872-144.508,21.345-215.926,17.974-45.751-2.246-82.018-20.221-126.1-26.212-74.207-10.111-140.044-19.847-217.041-7.864-36.824,5.991-78.112,14.979-109.357.374-16.739-7.863-25.666-20.97-38.5-31.455-26.781-22.468-70.859-33.327-113.821-34.451-42.962-1.5-85.366,5.617-126.654,13.481-104.336,19.847-203.65,61.038-307.428,77.889-93.178,14.979-188.028-14.229-277.3-27.336-1.674-.374-3.906-.374-5.579-.749v96.613h4184.6v-97.736Z"/>
      <path class="cls-3" d="M3054.548,1856.143c-41.846,2.621-186.912,13.855-220.389,14.23-63.048.749-122.191-14.23-185.8-12.358-73.091,1.873-147.3,16.851-219.273,1.5-35.709-7.489-68.628-20.6-105.452-25.089-69.744-7.864-137.813,17.225-206.441,28.459-63.606,10.485-130,8.613-195.281,6.741-18.97-.375-37.94-1.124-55.237-5.992-15.622-4.493-27.9-12.357-42.962-17.974-18.412-6.741-40.172-9.736-61.374-8.238-51.331,3.744-99.314,32.953-148.414,21.719-21.76-5.243-38.5-17.6-60.258-23.217-13.391-3.37-27.9-3.745-41.846-3.745-75.323,0-148.972,13.106-222.621,23.591-72.533,10.111-143.95,12.358-217.6,12.732-83.134.375-169.616,2.622-251.634-8.238-51.331-6.74-106.568-31.455-159.015-28.834-25.665,1.5-49.1,10.485-73.091,16.477a324.54,324.54,0,0,1-118.842,6.366c-37.383-4.869-71.976-15.354-111.032-14.979-28.455.374-55.794,13.855-83.692,11.234-21.76-2.247-37.382-14.23-55.237-22.094-53-23.965-124.422-13.48-184.68,0-17.3,4.12-35.708,8.239-54.121,7.49-37.382-1.5-65.837-22.468-97.64-35.575-58.027-24.34-133.35-23.591-198.629-9.736-101.547,21.719-193.05,61.038-301.292,68.528-102.1,7.114-202.534-14.6-304.081-11.234v34.825h4184.6v-34.825C3195.709,1849.777,3123.176,1851.649,3054.548,1856.143Z"/>
      <path class="cls-4" d="M3748.634,1631.659c-137.813,3.644-275.626,9.719-412.881,15.793-178.543,7.9-355.97,8.2-533.4,11.541-41.288.911-82.018,1.822-123.306,3.037-20.644.607-42.4,1.822-62.49,5.163a96.606,96.606,0,0,0-12.833,2.733c-8.369,2.126-16.18,4.556-22.875,7.9a37.945,37.945,0,0,1-5.022,2.429c-1.674,1.215-3.348,2.126-5.022,3.341-107.683,7.289-219.273,1.215-328.63,3.037-276.742,4.252-551.81,22.475-827.435,34.623-82.019,3.644-154.552-6.682-236.57-8.2-108.8-2.126-218.157-4.86-326.957-9.415-212.577-8.808-424.6-22.778-633.827-44.949-130.56-13.667-252.75-30.675-385.541-30.675-227.643,0-454.727,9.719-681.811,19.741-84.808,3.645-169.616,5.771-253.866,7.289,11.717,25.208,15.622,51.327,8.927,76.535,23.992-.607,48.542-.911,72.533-.911,44.078,0,89.83-1.519,132.234,6.074,46.309,8.2,93.735,26.726,142.276,16.1a725.021,725.021,0,0,1,132.233-16.4c10.6-.3,21.76-.3,29.572,3.341,4.463,2.126,7.253,5.467,11.159,7.9,11.158,6.985,31.245,7.289,48.541,6.074A623.424,623.424,0,0,0-373.477,1725.2c27.34-9.111,46.31-18.526,77.555-23.385a560.348,560.348,0,0,1,85.366-6.378c6.7,0,13.39.3,20.086.607,12.833.608,28.455,3.037,30.129,10.023,2.79,10.629-3.348,10.326,16.18,14.881a276.627,276.627,0,0,0,33.477,6.074c36.267,3.949,79.229,0,116.053-.3,20.086-.3,45.752,1.518,51.889,11.844,1.674,2.734,1.674,5.771,3.348,8.5,5.579,8.5,26.223,10.022,42.962,10.326,84.808.3,167.384-5.467,251.076,4.556,8.369.911,16.738,2.126,23.434,4.555,8.927,3.341,15.064,8.808,23.433,12.756,12.833,5.771,30.13,7.289,46.31,6.074,16.18-.911,31.8-4.252,47.425-6.681,39.615-6.682,80.9-8.808,122.191-9.112,40.73-.3,79.786-2.733,119.958,2.126,6.138.608,11.717,1.519,16.739,3.645s8.369,5.163,12.275,7.9c14.506,9.415,39.614,12.452,62.49,10.63,22.318-1.518,43.519-6.985,64.722-11.844,43.519-9.719,124.422-24.6,164.594-4.252,7.253,3.644,12.275,8.5,20.086,11.844,11.717,5.163,28.455,5.467,43.52,5.163,29.571-.607,59.142-3.341,88.155-6.985,31.245-3.644,62.49-8.5,93.177-12.148,55.8-6.986,114.937-11.541,172.406-11.845,17.854,0,36.266.3,52.447,3.948,13.949,3.037,26.223,8.2,40.73,11.237,29.013,5.771,60.816,1.823,90.387-3.34,62.49-11.541,128.886-15.489,194.724-16.4,45.751-.607,117.169-3.34,150.645,17.312,5.58,3.644,10.043,7.593,16.181,10.63,12.833,6.681,31.8,8.5,49.657,8.5,55.237,0,100.431-15.489,151.762-23.689,34.035-5.467,92.619-13.97,118.285,4.86,16.18,11.844,6.7,31.281,43.519,32.5,16.181.608,31.8-3.341,46.868-6.378,36.824-7.592,122.191-24.9,153.993-4.251,5.022,3.34,8.37,7.288,13.949,10.629,10.6,5.771,26.781,7.289,42.4,7.9a435.2,435.2,0,0,0,82.018-5.771c25.108-4.252,47.983-10.629,70.859-17.311,22.318-6.378,44.078-11.237,67.512-16.4,30.129-6.986,59.7-14.882,90.945-20.652,30.687-5.467,61.932-10.327,93.735-14.275,51.889-6.378,104.336-10.63,156.783-11.237,11.717-.3,22.876,0,34.593,0,20.086.607,39.614,2.126,59.142,5.77,46.309,8.2,93.735,26.727,142.276,16.1a724.933,724.933,0,0,1,132.234-16.4c10.6-.3,21.76-.3,29.571,3.341,4.463,2.126,7.253,5.466,11.159,7.9,11.159,6.985,31.245,7.289,48.541,6.074A668.259,668.259,0,0,0,3757,1740.994v-2.733C3755.887,1702.119,3751.981,1666.889,3748.634,1631.659Z"/>
    </g>
  </g>
</svg>
